<svg width="91" height="80" viewBox="0 0 91 80" fill="none" xmlns="http://www.w3.org/2000/svg">
<path d="M13.9448 7.14429H9.59839V20.3006H13.9448V7.14429Z" fill="#00308E"/>
<path d="M21.5013 5L1.5 24.1027H41.5L21.5013 5Z" fill="#00308E"/>
<path d="M21.5013 6.62213L3.1958 24.1029H39.8043L21.5013 6.62213Z" fill="#407BFF"/>
<path opacity="0.1" d="M13.5063 21.1067V22.1246H29.4963V21.1067H13.5063Z" fill="#1919D3"/>
<path opacity="0.1" d="M21.65 12.0102V10.9923H18.7397V12.0102H20.1936V13.0258H23.1038V12.0102H21.65Z" fill="#1919D3"/>
<path d="M37.6296 23.027H5.37012V75H37.6296V23.027Z" fill="#407BFF"/>
<path d="M38.2573 74.3454H4.74292V75H38.2573V74.3454Z" fill="#407BFF"/>
<path d="M4.93683 34.3833V49.0869H4.52612V49.8642H5.37022V49.0869V34.3833H4.93683Z" fill="#407BFF"/>
<path d="M38.0633 34.3833V49.0869H38.474V49.8642H37.6299V49.0869V34.3833H38.0633Z" fill="#407BFF"/>
<path d="M4.50122 24.8199H38.4993L38.0987 29.9746H4.90185L4.50122 24.8199Z" fill="#407BFF"/>
<path opacity="0.1" d="M37.6296 24.1027H5.37012V24.8199H37.6296V24.1027Z" fill="#1919D3"/>
<path opacity="0.1" d="M37.6296 29.9312H5.37012V30.6483H37.6296V29.9312Z" fill="#1919D3"/>
<path opacity="0.4" d="M21.5011 14.5514C19.6801 14.5514 17.9337 15.2423 16.6461 16.4721C15.3584 17.7019 14.635 19.3699 14.635 21.1091H28.3648C28.3648 19.3703 27.6417 17.7027 26.3546 16.473C25.0675 15.2432 23.3217 14.552 21.5011 14.5514Z" fill="white"/>
<path opacity="0.3" d="M22.4738 16.1397C21.0943 16.1403 19.7715 16.6642 18.7963 17.5961C17.821 18.5279 17.2732 19.7916 17.2732 21.1091H27.6745C27.6745 19.7916 27.1266 18.5279 26.1514 17.5961C25.1761 16.6642 23.8533 16.1403 22.4738 16.1397Z" fill="#407BFF"/>
<path opacity="0.1" d="M6.43857 25.8282H6.05054V28.9663H6.43857V25.8282Z" fill="#1919D3"/>
<path opacity="0.1" d="M8.34579 25.8282H7.95776V28.9663H8.34579V25.8282Z" fill="#1919D3"/>
<path opacity="0.1" d="M10.2535 25.8282H9.86548V28.9663H10.2535V25.8282Z" fill="#1919D3"/>
<path opacity="0.1" d="M12.161 25.8282H11.7729V28.9663H12.161V25.8282Z" fill="#1919D3"/>
<path opacity="0.1" d="M14.0655 25.8282H13.6775V28.9663H14.0655V25.8282Z" fill="#1919D3"/>
<path opacity="0.1" d="M15.9732 25.8282H15.5852V28.9663H15.9732V25.8282Z" fill="#1919D3"/>
<path opacity="0.1" d="M17.8805 25.8282H17.4924V28.9663H17.8805V25.8282Z" fill="#1919D3"/>
<path opacity="0.1" d="M19.7879 25.8282H19.3999V28.9663H19.7879V25.8282Z" fill="#1919D3"/>
<path opacity="0.1" d="M21.6927 25.8282H21.3047V28.9663H21.6927V25.8282Z" fill="#1919D3"/>
<path opacity="0.1" d="M23.6002 25.8282H23.2122V28.9663H23.6002V25.8282Z" fill="#1919D3"/>
<path opacity="0.1" d="M25.5074 25.8282H25.1194V28.9663H25.5074V25.8282Z" fill="#1919D3"/>
<path opacity="0.1" d="M27.4149 25.8282H27.0269V28.9663H27.4149V25.8282Z" fill="#1919D3"/>
<path opacity="0.1" d="M29.3221 25.8282H28.9341V28.9663H29.3221V25.8282Z" fill="#1919D3"/>
<path opacity="0.1" d="M31.2271 25.8282H30.8391V28.9663H31.2271V25.8282Z" fill="#1919D3"/>
<path opacity="0.1" d="M33.1346 25.8282H32.7466V28.9663H33.1346V25.8282Z" fill="#1919D3"/>
<path opacity="0.1" d="M35.0421 25.8282H34.6541V28.9663H35.0421V25.8282Z" fill="#1919D3"/>
<path opacity="0.1" d="M36.9493 25.8282H36.5613V28.9663H36.9493V25.8282Z" fill="#1919D3"/>
<path opacity="0.1" d="M6.81399 50.8797H6.43604V51.7244H6.81399V50.8797Z" fill="#1919D3"/>
<path opacity="0.1" d="M8.67336 50.8797H8.29541V51.7244H8.67336V50.8797Z" fill="#1919D3"/>
<path opacity="0.1" d="M10.533 50.8797H10.155V51.7244H10.533V50.8797Z" fill="#1919D3"/>
<path opacity="0.1" d="M12.3924 50.8797H12.0144V51.7244H12.3924V50.8797Z" fill="#1919D3"/>
<path opacity="0.1" d="M14.252 50.8797H13.874V51.7244H14.252V50.8797Z" fill="#1919D3"/>
<path opacity="0.1" d="M16.1116 50.8797H15.7336V51.7244H16.1116V50.8797Z" fill="#1919D3"/>
<path opacity="0.1" d="M17.971 50.8797H17.593V51.7244H17.971V50.8797Z" fill="#1919D3"/>
<path opacity="0.1" d="M19.8306 50.8797H19.4526V51.7244H19.8306V50.8797Z" fill="#1919D3"/>
<path opacity="0.1" d="M21.6875 50.8797H21.3096V51.7244H21.6875V50.8797Z" fill="#1919D3"/>
<path opacity="0.1" d="M23.5471 50.8797H23.1692V51.7244H23.5471V50.8797Z" fill="#1919D3"/>
<path opacity="0.1" d="M25.4068 50.8797H25.0288V51.7244H25.4068V50.8797Z" fill="#1919D3"/>
<path opacity="0.1" d="M27.2661 50.8797H26.8882V51.7244H27.2661V50.8797Z" fill="#1919D3"/>
<path opacity="0.1" d="M29.1255 50.8797H28.7476V51.7244H29.1255V50.8797Z" fill="#1919D3"/>
<path opacity="0.1" d="M30.9851 50.8797H30.6072V51.7244H30.9851V50.8797Z" fill="#1919D3"/>
<path opacity="0.1" d="M32.8447 50.8797H32.4668V51.7244H32.8447V50.8797Z" fill="#1919D3"/>
<path opacity="0.1" d="M34.7022 50.8797H34.3242V51.7244H34.7022V50.8797Z" fill="#1919D3"/>
<path opacity="0.1" d="M36.5615 50.8797H36.1836V51.7244H36.5615V50.8797Z" fill="#1919D3"/>
<path opacity="0.4" d="M15.9856 49.0845L15.9856 34.3809H8.53993V49.0845H15.9856Z" fill="white"/>
<path opacity="0.1" d="M8.48486 49.087V49.8643H15.9834V49.087H8.48486Z" fill="#1919D3"/>
<path opacity="0.4" d="M15.9856 42.1827V41.285H8.53993V42.1827H15.9856Z" fill="white"/>
<path opacity="0.4" d="M15.4212 34.9199H9.10181V48.5478H15.4212V34.9199Z" fill="white"/>
<path opacity="0.3" d="M14.9475 37.1916H10.0593V48.5478H14.9475V37.1916Z" fill="#407BFF"/>
<path opacity="0.4" d="M31.1062 49.0869V34.3833H23.6605V49.0869H31.1062Z" fill="white"/>
<path opacity="0.1" d="M20.2339 49.087V49.8643H34.5331V49.087H20.2339Z" fill="#1919D3"/>
<path opacity="0.4" d="M31.1062 42.185V41.2874H23.6605V42.185H31.1062Z" fill="white"/>
<path opacity="0.4" d="M30.5418 34.9199H24.2224V48.5478H30.5418V34.9199Z" fill="white"/>
<path opacity="0.3" d="M30.0681 37.1916H25.1799V48.5478H30.0681V37.1916Z" fill="#407BFF"/>
<path opacity="0.4" d="M34.533 49.0869V34.3833H32.104V49.0869H34.533Z" fill="white"/>
<path opacity="0.4" d="M34.533 42.1827V41.285H32.104V42.1827H34.533Z" fill="white"/>
<path opacity="0.4" d="M33.9687 34.9199H32.666V48.5478H33.9687V34.9199Z" fill="white"/>
<path opacity="0.4" d="M22.6602 49.0869V34.3833H20.2312V49.0869H22.6602Z" fill="white"/>
<path opacity="0.4" d="M22.6602 42.1827V41.285H20.2312V42.1827H22.6602Z" fill="white"/>
<path opacity="0.4" d="M22.0983 34.9199H20.7957V48.5478H22.0983V34.9199Z" fill="white"/>
<path opacity="0.4" d="M31.1062 68.8826V54.179H23.6605V68.8826H31.1062Z" fill="white"/>
<path opacity="0.1" d="M20.2339 68.8827V69.66H34.5331V68.8827H20.2339Z" fill="#1919D3"/>
<path opacity="0.4" d="M31.1062 61.9809V61.0833H23.6605V61.9809H31.1062Z" fill="white"/>
<path opacity="0.4" d="M30.5418 54.7181H24.2224V68.346H30.5418V54.7181Z" fill="white"/>
<path opacity="0.3" d="M30.0681 56.9898H25.1799V68.346H30.0681V56.9898Z" fill="#407BFF"/>
<path opacity="0.4" d="M34.5305 68.885V54.1814H32.1015V68.885H34.5305Z" fill="white"/>
<path opacity="0.4" d="M34.5305 61.9833V61.0857H32.1015V61.9833H34.5305Z" fill="white"/>
<path opacity="0.4" d="M33.9687 54.7181H32.666V68.346H33.9687V54.7181Z" fill="white"/>
<path opacity="0.4" d="M22.6602 68.885V54.1814H20.2312V68.885H22.6602Z" fill="white"/>
<path opacity="0.4" d="M22.6602 61.9809V61.0833H20.2312V61.9809H22.6602Z" fill="white"/>
<path opacity="0.4" d="M22.0983 54.7181H20.7957V68.346H22.0983V54.7181Z" fill="white"/>
<path opacity="0.1" d="M18.6441 73.6909V72.3817H7.49449V73.6909H6.78394V75H19.3546V73.6909H18.6441Z" fill="#1919D3"/>
<path opacity="0.4" d="M13.07 54.1814C14.3718 54.1814 15.6203 54.6753 16.5408 55.5544C17.4613 56.4336 17.9784 57.6259 17.9784 58.8692V72.3816H8.15161V58.8692C8.15161 58.2528 8.2789 57.6424 8.5262 57.073C8.7735 56.5037 9.13594 55.9864 9.59279 55.551C10.0496 55.1156 10.5919 54.7705 11.1886 54.5355C11.7853 54.3004 12.4246 54.1801 13.07 54.1814Z" fill="white"/>
<path d="M17.0062 59.3073H9.12964V72.3817H17.0062V59.3073Z" fill="#407BFF"/>
<path d="M13.0703 55.0935C12.6763 55.0932 12.2861 55.1671 11.9221 55.3108C11.558 55.4546 11.2271 55.6655 10.9484 55.9314C10.6697 56.1974 10.4487 56.5132 10.2978 56.8608C10.147 57.2084 10.0693 57.581 10.0693 57.9572H16.0687C16.0687 57.5812 15.9911 57.2088 15.8405 56.8613C15.6898 56.5139 15.4689 56.1982 15.1905 55.9323C14.9121 55.6664 14.5815 55.4554 14.2177 55.3115C13.8539 55.1676 13.464 55.0935 13.0703 55.0935Z" fill="#407BFF"/>
<path d="M16.565 65.8433C16.565 65.9385 16.5354 66.0316 16.4801 66.1107C16.4247 66.1899 16.346 66.2516 16.2539 66.288C16.1618 66.3244 16.0605 66.3339 15.9628 66.3154C15.865 66.2968 15.7752 66.251 15.7047 66.1837C15.6343 66.1163 15.5863 66.0306 15.5668 65.9372C15.5474 65.8439 15.5573 65.7471 15.5955 65.6591C15.6336 65.5712 15.6982 65.496 15.7811 65.4431C15.864 65.3903 15.9614 65.362 16.0611 65.362C16.1947 65.362 16.3229 65.4127 16.4174 65.503C16.5119 65.5933 16.565 65.7157 16.565 65.8433Z" fill="#407BFF"/>
<path opacity="0.1" d="M11.9644 32.6482V33.6661H14.8746V32.6482H11.9644Z" fill="#1919D3"/>
<path opacity="0.1" d="M25.6233 31.2356V32.2536H28.5335V31.2356H25.6233Z" fill="#1919D3"/>
<path opacity="0.1" d="M32.8324 71.9534V70.9379H29.9221V71.9534H31.376V72.9714H34.2862V71.9534H32.8324Z" fill="#1919D3"/>
<path d="M76.7673 13.596H44.582V75.9998H76.7673V13.596Z" fill="#407BFF"/>
<path d="M49.1514 6.05269C49.121 6.05237 49.0908 6.05775 49.0626 6.06853C49.0344 6.07931 49.0088 6.09527 48.9872 6.11548C48.9656 6.13569 48.9484 6.15975 48.9367 6.18628C48.925 6.2128 48.9189 6.24126 48.9189 6.27V12.5915H49.3813V6.27C49.3813 6.21237 49.3571 6.15709 49.314 6.11634C49.2708 6.07558 49.2124 6.05269 49.1514 6.05269Z" fill="#00308E"/>
<path d="M72.0478 10.556C71.9868 10.556 71.9283 10.5789 71.8852 10.6196C71.8421 10.6604 71.8179 10.7157 71.8179 10.7733V12.5915H72.2802V10.7733C72.2802 10.7446 72.2742 10.7161 72.2625 10.6896C72.2508 10.663 72.2336 10.639 72.212 10.6188C72.1904 10.5986 72.1647 10.5826 72.1365 10.5718C72.1083 10.561 72.0782 10.5557 72.0478 10.556Z" fill="#00308E"/>
<path d="M52.9929 7.7019H52.5305V12.5915H52.9929V7.7019Z" fill="#00308E"/>
<path d="M56.3519 6.48982C57.0283 8.24768 56.551 10.0273 55.2849 10.4619C54.0188 10.8965 52.4439 9.82685 51.7675 8.06658C51.091 6.30631 51.5709 4.53156 52.837 4.09692C54.103 3.66229 55.678 4.73197 56.3519 6.48982Z" fill="#00308E"/>
<path d="M76.7676 45.7782L88.4073 53.1646V75.9998H76.7676V45.7782Z" fill="#407BFF"/>
<path opacity="0.1" d="M76.7676 45.7782L88.4073 53.1646V75.9998H76.7676V45.7782Z" fill="#1919D3"/>
<path opacity="0.1" d="M85.6425 69.4755V68.3672H82.4441V69.4755H84.0445V70.5838H87.2404V69.4755H85.6425Z" fill="#1919D3"/>
<path d="M89.4998 54.2898L76.7676 46.1621V44.9258L89.4998 53.0559V54.2898Z" fill="#00308E"/>
<path opacity="0.4" d="M86.3928 65.0011V55.2653H78.4977V65.0011H86.3928Z" fill="white"/>
<path opacity="0.4" d="M86.3928 60.4303V59.8363H78.4977V60.4303H86.3928Z" fill="white"/>
<path opacity="0.4" d="M86.051 55.6227H78.8374V64.6462H86.051V55.6227Z" fill="white"/>
<path opacity="0.3" d="M85.7624 57.1271H79.4167V64.6463H85.7624V57.1271Z" fill="#407BFF"/>
<path d="M76.7674 13.5961H44.5821L44.1431 12.9344H77.2064L76.7674 13.5961Z" fill="#407BFF"/>
<path opacity="0.2" d="M76.7674 13.5961H44.5821L44.1431 12.9344H77.2064L76.7674 13.5961Z" fill="#1919D3"/>
<path d="M77.3953 12.9343H43.9541L43.4998 12.2462H77.8496L77.3953 12.9343Z" fill="#00308E"/>
<path opacity="0.2" d="M48.3496 15.2332H45.6082V21.4774H48.3496V15.2332Z" fill="#1919D3"/>
<path opacity="0.4" d="M47.9439 16.1579H46.0142V20.5574H47.9439V16.1579Z" fill="#407BFF"/>
<path opacity="0.2" d="M75.7412 15.2332H72.9998V21.4774H75.7412V15.2332Z" fill="#1919D3"/>
<path opacity="0.4" d="M75.3328 16.1579H73.4031V20.5574H75.3328V16.1579Z" fill="#407BFF"/>
<path opacity="0.2" d="M71.8181 15.2332H67.4736V21.4774H71.8181V15.2332Z" fill="#1919D3"/>
<path opacity="0.4" d="M71.1772 16.1579H68.1167V20.5574H71.1772V16.1579Z" fill="#407BFF"/>
<path opacity="0.2" d="M53.876 15.2332H49.5315V21.4774H53.876V15.2332Z" fill="#1919D3"/>
<path opacity="0.4" d="M53.2353 16.1579H50.1748V20.5574H53.2353V16.1579Z" fill="#407BFF"/>
<path opacity="0.2" d="M66.1691 15.2332H55.1829V21.4774H66.1691V15.2332Z" fill="#1919D3"/>
<path opacity="0.4" d="M64.543 16.1579H56.8062V20.5574H64.543V16.1579Z" fill="#407BFF"/>
<path opacity="0.4" d="M59.2747 44.4598V26.8016H51.0911V44.4598H59.2747Z" fill="white"/>
<path opacity="0.1" d="M47.3262 44.4574V44.9258H63.0398V44.4574H47.3262Z" fill="#1919D3"/>
<path opacity="0.4" d="M59.2747 36.1704V35.0934H51.0911V36.1704H59.2747Z" fill="white"/>
<path opacity="0.4" d="M58.6543 27.4464H51.7087V43.8127H58.6543V27.4464Z" fill="white"/>
<path opacity="0.3" d="M58.1309 30.1749H52.7603V43.8127H58.1309V30.1749Z" fill="#407BFF"/>
<path opacity="0.4" d="M63.0371 44.4574V26.7992H60.3697V44.4574H63.0371Z" fill="white"/>
<path opacity="0.4" d="M63.0371 36.168V35.0911H60.3697V36.168H63.0371Z" fill="white"/>
<path opacity="0.4" d="M62.4194 27.4464H60.99V43.8127H62.4194V27.4464Z" fill="white"/>
<path opacity="0.4" d="M49.9937 44.4598V26.8016H47.3262V44.4598H49.9937Z" fill="white"/>
<path opacity="0.4" d="M49.9937 36.168V35.0911H47.3262V36.168H49.9937Z" fill="white"/>
<path opacity="0.4" d="M49.3733 27.4464H47.9438V43.8127H49.3733V27.4464Z" fill="white"/>
<path opacity="0.4" d="M59.2747 66.4451V48.7869H51.0911V66.4451H59.2747Z" fill="white"/>
<path opacity="0.1" d="M47.3235 66.4451V66.9135H63.0371V66.4451H47.3235Z" fill="#1919D3"/>
<path opacity="0.4" d="M59.2747 58.1557V57.0787H51.0911V58.1557H59.2747Z" fill="white"/>
<path opacity="0.4" d="M58.6543 49.4341H51.7087V65.8005H58.6543V49.4341Z" fill="white"/>
<path opacity="0.3" d="M58.1309 52.1625H52.7603V65.8004H58.1309V52.1625Z" fill="#407BFF"/>
<path opacity="0.4" d="M63.0396 66.4451V48.7869H60.3721V66.4451H63.0396Z" fill="white"/>
<path opacity="0.4" d="M63.0396 58.1557V57.0787H60.3721V58.1557H63.0396Z" fill="white"/>
<path opacity="0.4" d="M62.4194 49.4341H60.99V65.8005H62.4194V49.4341Z" fill="white"/>
<path opacity="0.4" d="M49.9937 66.4475V48.7893H47.3262V66.4475H49.9937Z" fill="white"/>
<path opacity="0.4" d="M49.9937 58.1557V57.0787H47.3262V58.1557H49.9937Z" fill="white"/>
<path opacity="0.4" d="M49.3733 49.4341H47.9438V65.8005H49.3733V49.4341Z" fill="white"/>
<path opacity="0.4" d="M74.3499 44.4598V26.8016H66.1663V44.4598H74.3499Z" fill="white"/>
<path opacity="0.1" d="M66.1692 44.4598V44.9283H74.3527V44.4598H66.1692Z" fill="#1919D3"/>
<path opacity="0.4" d="M74.3499 36.168V35.0911H66.1663V36.168H74.3499Z" fill="white"/>
<path opacity="0.4" d="M73.7326 27.4464H66.7871V43.8127H73.7326V27.4464Z" fill="white"/>
<path opacity="0.3" d="M73.2092 30.1749H67.8386V43.8127H73.2092V30.1749Z" fill="#407BFF"/>
<path opacity="0.1" d="M52.1173 24.1407V23.0324H48.9189V24.1407H50.5194V25.2466H53.7152V24.1407H52.1173Z" fill="#1919D3"/>
<path opacity="0.1" d="M67.5858 47.6809V46.5726H64.3875V47.6809H65.9879V48.7893H69.1837V47.6809H67.5858Z" fill="#1919D3"/>
<path opacity="0.1" d="M60.8213 22.477V23.5853H64.0197V22.477H60.8213Z" fill="#1919D3"/>
<path opacity="0.1" d="M48.3955 69.2581V70.3665H51.5939V69.2581H48.3955Z" fill="#1919D3"/>
<path opacity="0.1" d="M56.0764 72.431V73.5393H59.2748V72.431H56.0764Z" fill="#1919D3"/>
<path opacity="0.1" d="M78.1636 51.8245V52.9328H81.3619V51.8245H78.1636Z" fill="#1919D3"/>
<path opacity="0.1" d="M75.3609 73.8822V71.7646H74.9678V69.6469H65.1838V71.7646H64.7907V73.8822H64.3262V75.9998H75.8255V73.8822H75.3609Z" fill="#1919D3"/>
<path d="M74.9678 69.6469V51.2426H65.1812V69.6469H74.9678Z" fill="#00308E"/>
<path d="M74.3527 51.8268H65.8042V69.6444H74.3527V51.8268Z" fill="#1919D3"/>
<g opacity="0.6">
<path d="M69.8421 53.7272H67.2334V56.195H69.8421V53.7272Z" fill="#407BFF"/>
<path d="M72.9207 53.7272H70.312V56.195H72.9207V53.7272Z" fill="#407BFF"/>
<path d="M69.8421 56.6514H67.2334V59.1191H69.8421V56.6514Z" fill="#407BFF"/>
<path d="M72.9207 56.6514H70.312V59.1191H72.9207V56.6514Z" fill="#407BFF"/>
</g>
<path d="M73.1096 62.0288C73.4115 62.0288 73.6563 61.7974 73.6563 61.512C73.6563 61.2266 73.4115 60.9953 73.1096 60.9953C72.8077 60.9953 72.563 61.2266 72.563 61.512C72.563 61.7974 72.8077 62.0288 73.1096 62.0288Z" fill="#407BFF"/>
</svg>
