<svg width="91" height="80" viewBox="0 0 91 80" fill="none" xmlns="http://www.w3.org/2000/svg">
<path d="M81.0474 60.1913L76.5604 54.5226L16.5965 51.3341L6.84298 54.5226L2.91797 63.1491C3.27204 63.7806 3.8265 64.2826 4.49789 64.5796L5.73302 65.1171C6.20368 65.3268 6.71312 65.4406 7.23028 65.4517L79.8595 67.1382L81.0474 60.1913Z" fill="#00308E"/>
<path opacity="0.2" d="M81.0474 60.1913L76.5604 54.5226L16.5965 51.3341L6.84298 54.5226L2.91797 63.1491C3.27204 63.7806 3.8265 64.2826 4.49789 64.5796L5.73302 65.1171C6.20368 65.3268 6.71312 65.4406 7.23028 65.4517L79.8595 67.1382L81.0474 60.1913Z" fill="white"/>
<path d="M84.2851 56.2347L83.2342 53.1939C83.0631 52.6988 82.788 52.2442 82.4264 51.8591C82.0649 51.4741 81.6249 51.1673 81.1347 50.9582C78.0646 49.6547 70.9325 47.0568 63.2927 47.336C63.2927 47.336 53.3432 38.5341 42.9615 37.2929C33.9613 36.2177 16.8396 38.4049 12.4375 39.0048C12.3783 39.0123 12.3235 39.0391 12.2819 39.0809C12.2403 39.1227 12.2144 39.177 12.2083 39.235C12.2023 39.293 12.2166 39.3513 12.2487 39.4004C12.2809 39.4495 12.3291 39.4865 12.3856 39.5054L13.5192 39.9023C13.6077 39.9341 13.685 39.9902 13.7416 40.0639C13.7983 40.1376 13.8319 40.2258 13.8384 40.3177C13.8449 40.4097 13.824 40.5015 13.7782 40.5822C13.7325 40.6628 13.6638 40.7287 13.5806 40.7721L4.31592 45.5318C3.76858 45.813 3.31032 46.2351 2.99066 46.7523C2.671 47.2696 2.5021 47.8623 2.5022 48.4665V61.5573C2.50242 62.1955 2.69102 62.82 3.04538 63.3561C3.39975 63.8922 3.90485 64.317 4.50013 64.5797L5.73289 65.1173C5.78013 65.1404 5.82972 65.1588 5.87695 65.1773C5.87695 65.0089 5.86278 64.8404 5.86278 64.6697C5.85741 63.466 6.10583 62.274 6.59256 61.1682C7.0793 60.0624 7.79391 59.0663 8.6919 58.242C9.58988 57.4178 10.652 56.783 11.812 56.3773C12.9721 55.9715 14.2052 55.8035 15.4347 55.8837C16.6641 55.9639 17.8634 56.2906 18.958 56.8434C20.0525 57.3961 21.0188 58.1632 21.7967 59.0968C22.5746 60.0303 23.1473 61.1104 23.4792 62.2696C23.8112 63.4289 23.8952 64.6425 23.7261 65.8348L59.7715 66.6723C59.4579 65.3684 59.4543 64.0116 59.7609 62.7061C60.0676 61.4006 60.6764 60.1811 61.5405 59.1413C62.4046 58.1014 63.5012 57.2687 64.7459 56.7073C65.9907 56.1458 67.3506 55.8704 68.7213 55.9023C70.0919 55.9342 71.4369 56.2724 72.6529 56.8911C73.8689 57.5098 74.9237 58.3924 75.7362 59.4713C76.5487 60.5502 77.0974 61.7966 77.3401 63.1149C77.5829 64.4331 77.5132 65.7882 77.1365 67.0761L80.6789 67.1568C81.0244 67.1651 81.369 67.1184 81.6991 67.0184L82.2352 66.8592C82.8913 66.6614 83.4652 66.2634 83.8728 65.7237C84.2804 65.1839 84.5002 64.5307 84.5 63.8599V57.4321C84.4952 57.0242 84.4226 56.6198 84.2851 56.2347Z" fill="#407BFF"/>
<path d="M59.7596 66.6722C59.6441 66.1838 59.5707 65.6868 59.54 65.1864L55.2324 63.0223C54.9021 62.8565 54.5403 62.7591 54.1696 62.7362L31.4981 61.2827C31.087 61.257 30.6752 61.3225 30.2937 61.4742L23.7756 64.079C23.7874 64.2751 23.7945 64.4712 23.7945 64.6696C23.7949 65.0592 23.7688 65.4485 23.7166 65.8347L59.7596 66.6722Z" fill="#00308E"/>
<path d="M4.49793 64.5796L5.73306 65.1172C5.78029 65.1403 5.82988 65.1587 5.87712 65.1772C5.87712 65.0088 5.86295 64.8404 5.86295 64.6696C5.86269 63.8776 5.97152 63.0892 6.18649 62.3255L2.5 61.2227V61.5573C2.50022 62.1954 2.68882 62.8199 3.04319 63.356C3.39755 63.8921 3.90265 64.3169 4.49793 64.5796Z" fill="#00308E"/>
<path d="M77.4011 65.7402C77.3454 66.192 77.253 66.6386 77.1248 67.0761L80.6672 67.1568C81.0127 67.1651 81.3573 67.1184 81.6874 67.0184L82.2235 66.8592C82.6815 66.7215 83.102 66.4849 83.4539 66.167L77.4011 65.7402Z" fill="#00308E"/>
<path d="M14.823 55.0788C12.2199 55.0812 9.72404 56.0924 7.88311 57.8904C6.04219 59.6885 5.00654 62.1265 5.00342 64.6696C5.00342 64.7135 5.00342 64.7573 5.00342 64.8035L5.7119 65.1172C5.75914 65.1403 5.80873 65.1588 5.85596 65.1772C5.85596 65.0088 5.84179 64.8404 5.84179 64.6696C5.83642 63.4659 6.08484 62.274 6.57157 61.1681C7.05831 60.0623 7.77293 59.0662 8.67091 58.242C9.56889 57.4177 10.631 56.783 11.791 56.3772C12.9511 55.9715 14.1843 55.8035 15.4137 55.8837C16.6431 55.9639 17.8424 56.2905 18.937 56.8433C20.0315 57.3961 20.9979 58.1632 21.7757 59.0967C22.5536 60.0303 23.1263 61.1103 23.4582 62.2696C23.7902 63.4288 23.8742 64.6424 23.7051 65.8348L24.5553 65.8555C24.7277 64.5063 24.6045 63.1367 24.1938 61.8375C23.783 60.5384 23.0941 59.3394 22.1728 58.3203C21.2516 57.3011 20.1189 56.485 18.8501 55.9261C17.5813 55.3673 16.2054 55.0784 14.8136 55.0788H14.823Z" fill="#00308E"/>
<path d="M68.4954 55.0788C67.0339 55.0784 65.5908 55.397 64.2714 56.0111C62.9521 56.6252 61.7898 57.5194 60.8693 58.6285C59.9489 59.7375 59.2936 61.0333 58.9513 62.4214C58.6089 63.8094 58.5882 65.2546 58.8907 66.6515L59.7597 66.6723C59.4461 65.3683 59.4425 64.0116 59.7492 62.7061C60.0558 61.4006 60.6646 60.1811 61.5287 59.1412C62.3929 58.1013 63.4894 57.2687 64.7342 56.7072C65.979 56.1458 67.3389 55.8704 68.7095 55.9023C70.0802 55.9341 71.4251 56.2724 72.6411 56.8911C73.8572 57.5097 74.9119 58.3924 75.7244 59.4713C76.537 60.5501 77.0856 61.7965 77.3284 63.1148C77.5711 64.4331 77.5014 65.7882 77.1247 67.076L77.9962 67.0945C78.3756 65.6758 78.4171 64.191 78.1173 62.7542C77.8176 61.3175 77.1846 59.967 76.2671 58.8066C75.3495 57.6462 74.1719 56.7067 72.8246 56.0605C71.4773 55.4142 69.9963 55.0784 68.4954 55.0788Z" fill="#00308E"/>
<path d="M42.7139 39.2584C37.4144 38.624 28.9905 39.1869 22.3237 39.8445C22.1796 39.8582 22.0424 39.9112 21.9277 39.9975C21.813 40.0837 21.7254 40.1997 21.6749 40.3323C21.6245 40.4648 21.6131 40.6085 21.6422 40.747C21.6713 40.8856 21.7397 41.0133 21.8396 41.1157L25.4103 44.8072C25.8782 45.2891 26.5023 45.5981 27.1768 45.6816L54.8952 49.0408C55.2348 49.0829 55.5795 49.0657 55.913 48.9901L59.6774 48.1456C59.7811 48.1227 59.8758 48.0713 59.9507 47.9977C60.0256 47.924 60.0774 47.8311 60.1002 47.7297C60.123 47.6283 60.1158 47.5226 60.0794 47.4251C60.043 47.3276 59.9789 47.2422 59.8947 47.1789C56.5766 44.6757 49.6594 40.089 42.7139 39.2584Z" fill="#00308E"/>
<path opacity="0.3" d="M79.1957 64.2105H78.9312L80.8771 57.4505H81.8194L79.1957 64.2105Z" fill="#1919D3"/>
<path opacity="0.3" d="M84.486 63.8621V57.432C84.486 57.3003 84.4789 57.1686 84.4648 57.0375L82.1716 64.9996H82.4857L83.0549 63.5368L84.4128 64.5012C84.4587 64.2911 84.4832 64.077 84.486 63.8621Z" fill="#1919D3"/>
<g opacity="0.3">
<path d="M41.5471 50.309L38.2408 50.1753C38.1263 50.1706 38.0158 50.1329 37.9233 50.0668C37.8308 50.0007 37.7605 49.9093 37.7213 49.8041C37.7023 49.7522 37.6966 49.6964 37.7049 49.6418C37.7131 49.5871 37.735 49.5353 37.7686 49.4909C37.8022 49.4465 37.8465 49.4108 37.8975 49.3871C37.9486 49.3633 38.0049 49.3521 38.0614 49.3546L41.3676 49.4906C41.4819 49.4951 41.5922 49.5329 41.6844 49.599C41.7765 49.6651 41.8463 49.7566 41.8848 49.8618C41.9039 49.9135 41.9096 49.9689 41.9015 50.0233C41.8934 50.0776 41.8717 50.1292 41.8383 50.1734C41.8049 50.2176 41.7609 50.2531 41.7101 50.2768C41.6593 50.3004 41.6033 50.3115 41.5471 50.309Z" fill="#1919D3"/>
</g>
<path d="M16.8045 40.885L13.7958 40.149C13.8233 40.2034 13.8396 40.2626 13.8436 40.3231C13.8477 40.3836 13.8395 40.4443 13.8196 40.5017C13.7996 40.5592 13.7683 40.6122 13.7273 40.6578C13.6864 40.7033 13.6366 40.7406 13.5809 40.7674L4.31629 45.5317C4.21002 45.587 4.10847 45.647 4.00928 45.7116H5.91747C6.09055 45.7113 6.26283 45.6888 6.42994 45.6447L16.0346 43.0422C16.161 43.0073 16.2753 42.9395 16.3653 42.8461L17.1493 42.0132C17.2296 41.9251 17.2854 41.8184 17.3116 41.7032C17.3377 41.5881 17.3333 41.4683 17.2988 41.3553C17.2642 41.2422 17.2007 41.1397 17.1142 41.0574C17.0277 40.9751 16.9211 40.9158 16.8045 40.885Z" fill="#00308E"/>
<path opacity="0.7" d="M69.1 50.0099L70.4036 49.5715C70.6185 49.498 70.8506 49.4868 71.0719 49.5392L81.8196 52.0771L82.0558 53C82.1265 53.2678 82.0866 53.552 81.9448 53.7913L81.9094 53.8513C81.7939 54.0467 81.6215 54.2041 81.4142 54.3035C81.2069 54.403 80.974 54.4399 80.7451 54.4097L78.6197 54.1213C78.4118 54.0944 78.2148 54.0148 78.0481 53.8905L75.5921 52.0679L69.1118 50.4829C69.0615 50.4665 69.0177 50.4354 68.9862 50.3938C68.9547 50.3522 68.9372 50.3021 68.9359 50.2504C68.9346 50.1987 68.9496 50.1479 68.979 50.1048C69.0084 50.0618 69.0506 50.0286 69.1 50.0099Z" fill="white"/>
<path d="M70.0376 49.9638C69.9934 49.9822 69.9561 50.0133 69.9304 50.053C69.9048 50.0927 69.8922 50.1391 69.8943 50.1859C69.8963 50.2328 69.9129 50.278 69.9419 50.3154C69.9709 50.3528 70.0109 50.3806 70.0565 50.3953L75.8118 51.8003L77.9915 53.4154C78.1405 53.5243 78.3151 53.5949 78.4993 53.6207L80.3886 53.8745C80.5917 53.9016 80.7984 53.8691 80.9826 53.7812C81.1668 53.6933 81.32 53.5539 81.423 53.3808L81.456 53.3254C81.5799 53.116 81.6147 52.8674 81.5529 52.6332L81.3852 51.9895L71.1924 49.5832L70.0376 49.9638Z" fill="#407BFF"/>
<path opacity="0.3" d="M70.0376 49.9638C69.9934 49.9822 69.9561 50.0133 69.9304 50.053C69.9048 50.0927 69.8922 50.1391 69.8943 50.1859C69.8963 50.2328 69.9129 50.278 69.9419 50.3154C69.9709 50.3528 70.0109 50.3806 70.0565 50.3953L75.8118 51.8003L77.9915 53.4154C78.1405 53.5243 78.3151 53.5949 78.4993 53.6207L80.3886 53.8745C80.5917 53.9016 80.7984 53.8691 80.9826 53.7812C81.1668 53.6933 81.32 53.5539 81.423 53.3808L81.456 53.3254C81.5799 53.116 81.6147 52.8674 81.5529 52.6332L81.3852 51.9895L71.1924 49.5832L70.0376 49.9638Z" fill="white"/>
<path d="M81.3783 51.9733L76.8794 50.9097L78.7805 52.7093C78.9092 52.8349 79.0739 52.9194 79.2528 52.9515L80.9957 53.2515C81.1793 53.2827 81.3682 53.2474 81.5271 53.1522C81.5882 52.9798 81.5956 52.7935 81.5483 52.617L81.3783 51.9733Z" fill="#407BFF"/>
<path opacity="0.6" d="M81.3783 51.9733L76.8794 50.9097L78.7805 52.7093C78.9092 52.8349 79.0739 52.9194 79.2528 52.9515L80.9957 53.2515C81.1793 53.2827 81.3682 53.2474 81.5271 53.1522C81.5882 52.9798 81.5956 52.7935 81.5483 52.617L81.3783 51.9733Z" fill="white"/>
<path d="M48.273 38.5317L47.5645 38.887C47.5465 38.8968 47.5319 38.9116 47.5223 38.9295C47.5128 38.9473 47.5088 38.9675 47.5108 38.9876C47.5128 39.0077 47.5207 39.0267 47.5336 39.0424C47.5465 39.0582 47.5638 39.0699 47.5834 39.0762C53.282 40.8711 58.5626 44.7218 61.5996 47.232C61.7583 47.3629 61.9474 47.4537 62.1505 47.4964C62.3535 47.539 62.5642 47.5322 62.7639 47.4766L63.2858 47.3312C63.2858 47.3312 56.4938 41.3164 48.273 38.5317Z" fill="#00308E"/>
<path opacity="0.2" d="M21.0813 50.7205L32.2258 59.084L55.4051 62.1456L62.4333 52.7393L32.1408 50.7205H21.0813Z" fill="white"/>
<path d="M20.1089 69.8337C23.0288 66.9812 23.0288 62.3562 20.1089 59.5036C17.189 56.6511 12.4549 56.6511 9.53501 59.5036C6.6151 62.3562 6.6151 66.9812 9.535 69.8337C12.4549 72.6863 17.189 72.6863 20.1089 69.8337Z" fill="#00308E"/>
<g opacity="0.6">
<path d="M16.6154 70.3014C16.5809 70.1939 16.5893 70.0776 16.6388 69.9758C16.6882 69.874 16.7752 69.7942 16.8822 69.7523C17.8603 69.378 18.7099 68.7408 19.3326 67.9144C19.9553 67.088 20.3258 66.1062 20.4011 65.0826C20.4094 64.9702 20.4611 64.8651 20.5457 64.7884C20.6303 64.7118 20.7415 64.6693 20.8568 64.6696C20.9203 64.6694 20.9832 64.6821 21.0414 64.7069C21.0996 64.7316 21.1519 64.7679 21.1949 64.8135C21.238 64.859 21.2709 64.9128 21.2916 64.9715C21.3123 65.0301 21.3202 65.0923 21.315 65.1541C21.2268 66.3441 20.796 67.4854 20.0722 68.4464C19.3485 69.4074 18.3613 70.1488 17.2247 70.5852C17.1656 70.6063 17.1029 70.6157 17.0401 70.6128C16.9773 70.61 16.9157 70.5949 16.859 70.5684C16.8022 70.542 16.7514 70.5048 16.7096 70.4589C16.6678 70.4131 16.6357 70.3595 16.6154 70.3014Z" fill="#1919D3"/>
</g>
<g opacity="0.6">
<path d="M20.1839 63.1145C19.8555 62.0561 19.2082 61.1191 18.3265 60.4256C17.4447 59.7321 16.3695 59.3143 15.241 59.2269C15.1264 59.2176 15.0196 59.1663 14.9421 59.0833C14.8646 59.0002 14.822 58.8917 14.823 58.7793C14.8232 58.7179 14.8363 58.6572 14.8615 58.6009C14.8867 58.5447 14.9235 58.4941 14.9695 58.4523C15.0156 58.4106 15.07 58.3785 15.1293 58.3582C15.1886 58.3378 15.2515 58.3296 15.3142 58.334C16.6262 58.4361 17.8763 58.9219 18.9016 59.7281C19.9269 60.5343 20.6799 61.6235 21.0624 62.8537C21.0783 62.9128 21.0821 62.9744 21.0735 63.0349C21.0648 63.0955 21.044 63.1537 21.0121 63.2063C20.9803 63.2589 20.9381 63.3048 20.8879 63.3413C20.8377 63.3778 20.7807 63.4042 20.72 63.419C20.608 63.44 20.4921 63.4207 20.3936 63.3647C20.2951 63.3087 20.2206 63.2199 20.1839 63.1145Z" fill="#1919D3"/>
</g>
<g opacity="0.6">
<path d="M11.8047 69.7777C11.7717 69.8298 11.7285 69.8749 11.6775 69.9104C11.6265 69.9459 11.5687 69.9712 11.5076 69.9847C11.4465 69.9982 11.3833 69.9998 11.3216 69.9892C11.2599 69.9786 11.2009 69.9561 11.1482 69.9231C10.2368 69.3144 9.49865 68.4894 9.00321 67.5255C8.50776 66.5616 8.27124 65.4905 8.31587 64.4128C8.3605 63.3351 8.6848 62.2862 9.25832 61.3645C9.83184 60.4429 10.6358 59.6788 11.5945 59.144C11.6494 59.1128 11.7104 59.0931 11.7734 59.0862C11.8365 59.0792 11.9004 59.0852 11.961 59.1036C12.0217 59.122 12.0777 59.1526 12.1256 59.1933C12.1735 59.234 12.2122 59.284 12.2393 59.3401C12.2884 59.4419 12.2964 59.558 12.2618 59.6653C12.2273 59.7726 12.1526 59.8633 12.0527 59.9192C11.2281 60.3785 10.5365 61.0351 10.0431 61.8273C9.54973 62.6195 9.27066 63.5212 9.23216 64.4478C9.19367 65.3744 9.39702 66.2953 9.82308 67.1239C10.2491 67.9526 10.8839 68.6618 11.6678 69.1848C11.7626 69.2482 11.8294 69.3443 11.8548 69.4539C11.8802 69.5634 11.8623 69.6782 11.8047 69.7754V69.7777Z" fill="#1919D3"/>
</g>
<g opacity="0.6">
<path d="M14.3296 71.0134C14.0807 70.9949 13.8331 70.9626 13.588 70.9166C13.526 70.9048 13.4672 70.8807 13.4152 70.8457C13.3633 70.8107 13.3193 70.7656 13.286 70.7132C13.2528 70.6608 13.2309 70.6023 13.222 70.5413C13.213 70.4803 13.217 70.4181 13.2338 70.3587C13.2634 70.2493 13.3346 70.1551 13.4328 70.0952C13.5311 70.0352 13.6491 70.014 13.7628 70.036C13.975 70.0762 14.1895 70.1039 14.4051 70.119C14.5192 70.1307 14.625 70.1825 14.7028 70.2648C14.7806 70.3471 14.825 70.4542 14.8279 70.5662C14.8261 70.6277 14.8116 70.6883 14.7855 70.7444C14.7593 70.8004 14.7219 70.8508 14.6754 70.8925C14.629 70.9341 14.5744 70.9663 14.515 70.9871C14.4556 71.0079 14.3926 71.0168 14.3296 71.0134Z" fill="#1919D3"/>
</g>
<path opacity="0.4" d="M18.0633 67.8353C19.8534 66.0864 19.8534 63.251 18.0633 61.5021C16.2732 59.7533 13.3708 59.7533 11.5807 61.5021C9.79054 63.251 9.79054 66.0864 11.5807 67.8353C13.3708 69.5841 16.2732 69.5841 18.0633 67.8353Z" fill="white"/>
<g opacity="0.3">
<path d="M14.8232 60.6413H14.8209C14.6187 60.6413 14.4548 60.8014 14.4548 60.9989V63.2945C14.4548 63.492 14.6187 63.6521 14.8209 63.6521H14.8232C15.0254 63.6521 15.1893 63.492 15.1893 63.2945V60.9989C15.1893 60.8014 15.0254 60.6413 14.8232 60.6413Z" fill="white"/>
</g>
<path d="M15.0403 61.4581C15.0403 61.3396 14.942 61.2435 14.8207 61.2435C14.6994 61.2435 14.6011 61.3396 14.6011 61.4581V62.8355C14.6011 62.954 14.6994 63.05 14.8207 63.05C14.942 63.05 15.0403 62.954 15.0403 62.8355V61.4581Z" fill="#00308E"/>
<g opacity="0.3">
<path d="M14.8232 65.6871H14.8209C14.6187 65.6871 14.4548 65.8472 14.4548 66.0447V68.3404C14.4548 68.5379 14.6187 68.698 14.8209 68.698H14.8232C15.0254 68.698 15.1893 68.5379 15.1893 68.3404V66.0447C15.1893 65.8472 15.0254 65.6871 14.8232 65.6871Z" fill="white"/>
</g>
<path d="M15.0403 66.5038C15.0403 66.3853 14.942 66.2892 14.8207 66.2892C14.6994 66.2892 14.6011 66.3853 14.6011 66.5038V67.8812C14.6011 67.9997 14.6994 68.0957 14.8207 68.0957C14.942 68.0957 15.0403 67.9997 15.0403 67.8812V66.5038Z" fill="#00308E"/>
<g opacity="0.3">
<path d="M13.4177 64.2912L11.3843 63.1376C11.3005 63.0898 11.2393 63.0116 11.2141 62.9201C11.1888 62.8285 11.2017 62.7309 11.2497 62.6485C11.2986 62.5659 11.3791 62.5057 11.4734 62.481C11.5677 62.4563 11.6682 62.4693 11.7527 62.5169L13.7861 63.6705C13.8279 63.694 13.8645 63.7252 13.8939 63.7625C13.9232 63.7998 13.9448 63.8424 13.9573 63.8878C13.9698 63.9332 13.973 63.9806 13.9667 64.0273C13.9605 64.0739 13.9448 64.1189 13.9207 64.1596C13.8967 64.2008 13.8646 64.2368 13.8263 64.2657C13.7879 64.2946 13.7441 64.3158 13.6973 64.328C13.6505 64.3403 13.6017 64.3433 13.5537 64.337C13.5057 64.3306 13.4595 64.3151 13.4177 64.2912Z" fill="white"/>
</g>
<path d="M13.0847 63.9382L11.8661 63.2461C11.8177 63.2152 11.7826 63.1682 11.7674 63.1137C11.7522 63.0593 11.7579 63.0013 11.7834 62.9508C11.8154 62.9039 11.8637 62.8701 11.9194 62.8556C11.9751 62.8412 12.0342 62.8471 12.0857 62.8723L13.3043 63.5645C13.3295 63.5784 13.3516 63.597 13.3693 63.6193C13.3871 63.6415 13.4002 63.667 13.4079 63.6942C13.4156 63.7214 13.4177 63.7499 13.4141 63.7779C13.4105 63.8059 13.4013 63.8329 13.387 63.8575C13.3578 63.9073 13.3096 63.9437 13.2529 63.9589C13.1962 63.974 13.1358 63.9666 13.0847 63.9382Z" fill="#00308E"/>
<g opacity="0.3">
<path d="M17.8932 66.8061L15.8575 65.6525C15.7733 65.6043 15.7122 65.5256 15.6874 65.4335C15.6626 65.3413 15.6762 65.2434 15.7252 65.161C15.7494 65.1204 15.7815 65.0849 15.8198 65.0564C15.858 65.0279 15.9016 65.0071 15.9481 64.9951C15.9946 64.9831 16.0431 64.9802 16.0907 64.9865C16.1384 64.9928 16.1843 65.0082 16.2259 65.0318L18.2592 66.1854C18.301 66.2089 18.3376 66.2401 18.367 66.2774C18.3964 66.3147 18.4179 66.3573 18.4304 66.4027C18.4429 66.4481 18.4461 66.4955 18.4399 66.5422C18.4336 66.5888 18.4179 66.6338 18.3938 66.6745C18.3699 66.7154 18.3379 66.7511 18.2997 66.7798C18.2615 66.8085 18.218 66.8296 18.1714 66.8418C18.1249 66.854 18.0764 66.8572 18.0287 66.851C17.9809 66.8449 17.9349 66.8296 17.8932 66.8061Z" fill="white"/>
</g>
<path d="M17.5577 66.4621L16.3391 65.77C16.3139 65.7561 16.2918 65.7375 16.2741 65.7151C16.2564 65.6928 16.2434 65.6673 16.2359 65.64C16.2284 65.6127 16.2266 65.5842 16.2305 65.5562C16.2345 65.5282 16.2441 65.5013 16.2588 65.477C16.273 65.4524 16.2921 65.4308 16.3149 65.4135C16.3378 65.3961 16.364 65.3835 16.3919 65.3762C16.4198 65.3689 16.449 65.3671 16.4776 65.3709C16.5063 65.3748 16.5338 65.3841 16.5587 65.3985L17.7797 66.0907C17.8303 66.1196 17.8671 66.1669 17.8821 66.2222C17.8972 66.2775 17.8892 66.3364 17.86 66.386C17.8277 66.4324 17.7792 66.4658 17.7236 66.4798C17.6679 66.4938 17.6089 66.4875 17.5577 66.4621Z" fill="#00308E"/>
<g opacity="0.3">
<path d="M11.2497 66.6838C11.2017 66.6014 11.1888 66.5037 11.2141 66.4122C11.2393 66.3206 11.3005 66.2424 11.3843 66.1947L13.4177 65.0411C13.502 64.9932 13.6022 64.9799 13.6965 65.0041C13.7908 65.0284 13.8714 65.0881 13.9207 65.1703C13.9695 65.2529 13.9827 65.3511 13.9575 65.4432C13.9323 65.5353 13.8706 65.6139 13.7861 65.6617L11.7527 66.8153C11.6682 66.863 11.5677 66.8759 11.4734 66.8512C11.3791 66.8266 11.2986 66.7663 11.2497 66.6838Z" fill="white"/>
</g>
<path d="M11.7834 66.3838C11.7579 66.3332 11.7522 66.2752 11.7674 66.2208C11.7826 66.1664 11.8177 66.1193 11.8661 66.0885L13.0847 65.3963C13.1098 65.3819 13.1375 65.3725 13.1663 65.3686C13.1952 65.3647 13.2245 65.3665 13.2526 65.3738C13.2807 65.3811 13.3071 65.3938 13.3302 65.4111C13.3532 65.4285 13.3725 65.4501 13.387 65.4748C13.4013 65.4993 13.4105 65.5264 13.4141 65.5544C13.4177 65.5824 13.4156 65.6108 13.4079 65.6381C13.4002 65.6653 13.3871 65.6907 13.3693 65.713C13.3516 65.7353 13.3295 65.7539 13.3043 65.7678L12.0857 66.4599C12.0345 66.4854 11.9755 66.4916 11.9199 66.4776C11.8642 66.4636 11.8157 66.4303 11.7834 66.3838Z" fill="#00308E"/>
<g opacity="0.3">
<path d="M15.725 64.1597C15.7008 64.1191 15.6851 64.0743 15.6786 64.0277C15.6722 63.9812 15.6752 63.9338 15.6874 63.8884C15.6997 63.843 15.721 63.8004 15.7502 63.763C15.7793 63.7256 15.8157 63.6942 15.8573 63.6706L17.893 62.517C17.9347 62.4935 17.9807 62.4782 18.0285 62.4721C18.0762 62.4659 18.1248 62.4691 18.1713 62.4813C18.2178 62.4935 18.2614 62.5146 18.2995 62.5433C18.3377 62.572 18.3697 62.6077 18.3937 62.6485C18.4178 62.6893 18.4334 62.7343 18.4397 62.7809C18.446 62.8276 18.4428 62.875 18.4303 62.9204C18.4178 62.9658 18.3962 63.0084 18.3668 63.0457C18.3375 63.083 18.3008 63.1142 18.2591 63.1377L16.2257 64.2912C16.184 64.3148 16.138 64.3301 16.0902 64.3362C16.0425 64.3424 15.9939 64.3392 15.9474 64.327C15.9009 64.3148 15.8573 64.2937 15.8192 64.265C15.781 64.2363 15.749 64.2005 15.725 64.1597Z" fill="white"/>
</g>
<path d="M16.2588 63.8597C16.2441 63.8354 16.2345 63.8085 16.2305 63.7805C16.2266 63.7525 16.2284 63.724 16.2359 63.6967C16.2434 63.6694 16.2564 63.6439 16.2741 63.6215C16.2918 63.5992 16.3139 63.5806 16.3391 63.5667L17.5577 62.8745C17.6092 62.8494 17.6684 62.8434 17.724 62.8579C17.7797 62.8723 17.8281 62.9061 17.86 62.953C17.8892 63.0026 17.8972 63.0615 17.8821 63.1168C17.8671 63.1721 17.8303 63.2194 17.7797 63.2483L16.5587 63.9405C16.5336 63.9544 16.5059 63.9635 16.4773 63.967C16.4486 63.9705 16.4195 63.9684 16.3916 63.9609C16.3637 63.9534 16.3377 63.9406 16.3149 63.9232C16.2921 63.9059 16.273 63.8843 16.2588 63.8597Z" fill="#00308E"/>
<path d="M15.4371 64.6696C15.4371 64.7888 15.4009 64.9053 15.3331 65.0044C15.2652 65.1035 15.1688 65.1806 15.0561 65.2262C14.9433 65.2717 14.8192 65.2835 14.6996 65.26C14.58 65.2366 14.4702 65.179 14.384 65.0946C14.2979 65.0101 14.2394 64.9026 14.2159 64.7857C14.1924 64.6687 14.2049 64.5476 14.2519 64.4376C14.299 64.3276 14.3783 64.2337 14.48 64.1678C14.5817 64.1019 14.7011 64.067 14.8231 64.0674C14.9039 64.0674 14.984 64.083 15.0586 64.1133C15.1333 64.1436 15.2011 64.188 15.2581 64.2439C15.3152 64.2999 15.3603 64.3663 15.391 64.4393C15.4218 64.5124 15.4374 64.5906 15.4371 64.6696Z" fill="#00308E"/>
<path d="M73.7827 69.835C76.7027 66.9824 76.7027 62.3575 73.7827 59.5049C70.8628 56.6523 66.1287 56.6523 63.2088 59.5049C60.2889 62.3575 60.2889 66.9824 63.2088 69.835C66.1287 72.6876 70.8628 72.6876 73.7827 69.835Z" fill="#00308E"/>
<g opacity="0.6">
<path d="M70.2904 70.3014C70.256 70.1939 70.2643 70.0776 70.3138 69.9758C70.3633 69.874 70.4502 69.7942 70.5573 69.7523C71.5353 69.378 72.3849 68.7408 73.0076 67.9144C73.6304 67.088 74.0008 66.1062 74.0761 65.0826C74.0845 64.9702 74.1362 64.8651 74.2208 64.7884C74.3053 64.7118 74.4165 64.6693 74.5319 64.6696C74.5948 64.6714 74.6566 64.6854 74.7139 64.7108C74.7711 64.7363 74.8226 64.7726 74.8653 64.8177C74.9079 64.8629 74.941 64.9159 74.9624 64.9736C74.9838 65.0314 74.9932 65.0928 74.9901 65.1541C74.9016 66.344 74.4706 67.4852 73.7469 68.4462C73.0232 69.4071 72.0362 70.1486 70.8997 70.5852C70.8407 70.6063 70.7779 70.6157 70.7151 70.6128C70.6523 70.61 70.5908 70.5949 70.534 70.5684C70.4773 70.542 70.4265 70.5048 70.3847 70.4589C70.3428 70.4131 70.3108 70.3595 70.2904 70.3014Z" fill="#1919D3"/>
</g>
<g opacity="0.6">
<path d="M73.8586 63.1144C73.53 62.0563 72.8826 61.1194 72.0009 60.4259C71.1192 59.7325 70.0441 59.3146 68.9157 59.2269C68.8009 59.2176 68.6938 59.1664 68.6159 59.0834C68.538 59.0004 68.495 58.8919 68.4954 58.7793C68.4955 58.7177 68.5087 58.6567 68.534 58.6003C68.5594 58.5439 68.5964 58.4932 68.6427 58.4514C68.689 58.4096 68.7437 58.3776 68.8033 58.3574C68.8629 58.3372 68.9261 58.3292 68.9889 58.334C70.3009 58.4361 71.551 58.9219 72.5763 59.7281C73.6016 60.5342 74.3546 61.6234 74.7371 62.8537C74.7531 62.9128 74.7568 62.9744 74.7482 63.0349C74.7396 63.0955 74.7187 63.1537 74.6869 63.2063C74.655 63.2589 74.6128 63.3048 74.5626 63.3413C74.5125 63.3778 74.4554 63.4042 74.3947 63.419C74.2825 63.4431 74.1652 63.4252 74.0659 63.3688C73.9666 63.3124 73.8926 63.2216 73.8586 63.1144Z" fill="#1919D3"/>
</g>
<g opacity="0.6">
<path d="M65.482 69.7776C65.449 69.8297 65.4057 69.8748 65.3547 69.9103C65.3037 69.9458 65.246 69.9711 65.1849 69.9846C65.1238 69.9981 65.0605 69.9997 64.9988 69.9891C64.9371 69.9785 64.8782 69.956 64.8254 69.923C63.914 69.3143 63.1759 68.4893 62.6804 67.5254C62.185 66.5615 61.9485 65.4904 61.9931 64.4127C62.0377 63.335 62.362 62.2861 62.9356 61.3644C63.5091 60.4428 64.313 59.6787 65.2718 59.1439C65.3265 59.1128 65.3872 59.0931 65.4502 59.0862C65.5131 59.0792 65.5768 59.0852 65.6372 59.1036C65.6977 59.1221 65.7535 59.1526 65.8012 59.1933C65.8489 59.234 65.8873 59.284 65.9141 59.34C65.964 59.4414 65.9727 59.5575 65.9385 59.6649C65.9044 59.7724 65.8298 59.8632 65.7299 59.9191C64.9048 60.3779 64.2127 61.0344 63.7189 61.8266C63.2251 62.6189 62.9458 63.5208 62.9073 64.4476C62.8688 65.3744 63.0724 66.2955 63.4988 67.1243C63.9253 67.953 64.5606 68.6621 65.345 69.1847C65.4399 69.2481 65.5067 69.3442 65.5321 69.4538C65.5575 69.5633 65.5396 69.6782 65.482 69.7753V69.7776Z" fill="#1919D3"/>
</g>
<g opacity="0.6">
<path d="M68.0041 71.0135C67.7552 70.9951 67.5076 70.9628 67.2626 70.9167C67.2006 70.9049 67.1418 70.8808 67.0898 70.8458C67.0378 70.8108 66.9938 70.7657 66.9606 70.7133C66.9273 70.6609 66.9055 70.6024 66.8965 70.5414C66.8875 70.4804 66.8915 70.4182 66.9083 70.3588C66.9379 70.2504 67.0084 70.1569 67.1056 70.097C67.2028 70.0372 67.3196 70.0154 67.4326 70.0361C67.6448 70.0763 67.8593 70.104 68.075 70.119C68.1898 70.1283 68.2969 70.1795 68.3748 70.2624C68.4527 70.3453 68.4957 70.4538 68.4953 70.5663C68.4935 70.6272 68.4793 70.6872 68.4536 70.7428C68.4278 70.7984 68.3911 70.8484 68.3454 70.89C68.2997 70.9316 68.246 70.9639 68.1874 70.9851C68.1288 71.0063 68.0665 71.016 68.0041 71.0135Z" fill="#1919D3"/>
</g>
<path opacity="0.4" d="M71.7371 67.8365C73.5272 66.0877 73.5272 63.2522 71.7371 61.5034C69.947 59.7545 67.0446 59.7545 65.2545 61.5034C63.4644 63.2522 63.4644 66.0877 65.2545 67.8365C67.0446 69.5854 69.947 69.5854 71.7371 67.8365Z" fill="white"/>
<g opacity="0.3">
<path d="M68.4978 60.6413H68.4954C68.2933 60.6413 68.1294 60.8014 68.1294 60.9989V63.2945C68.1294 63.492 68.2933 63.6521 68.4954 63.6521H68.4978C68.7 63.6521 68.8639 63.492 68.8639 63.2945V60.9989C68.8639 60.8014 68.7 60.6413 68.4978 60.6413Z" fill="white"/>
</g>
<path d="M68.7149 61.4581C68.7149 61.3396 68.6166 61.2435 68.4953 61.2435C68.374 61.2435 68.2756 61.3396 68.2756 61.4581V62.8355C68.2756 62.954 68.374 63.05 68.4953 63.05C68.6166 63.05 68.7149 62.954 68.7149 62.8355V61.4581Z" fill="#00308E"/>
<g opacity="0.3">
<path d="M68.4978 65.6871H68.4954C68.2933 65.6871 68.1294 65.8472 68.1294 66.0447V68.3404C68.1294 68.5379 68.2933 68.698 68.4954 68.698H68.4978C68.7 68.698 68.8639 68.5379 68.8639 68.3404V66.0447C68.8639 65.8472 68.7 65.6871 68.4978 65.6871Z" fill="white"/>
</g>
<path d="M68.7149 66.5038C68.7149 66.3853 68.6166 66.2892 68.4953 66.2892C68.374 66.2892 68.2756 66.3853 68.2756 66.5038V67.8812C68.2756 67.9997 68.374 68.0957 68.4953 68.0957C68.6166 68.0957 68.7149 67.9997 68.7149 67.8812V66.5038Z" fill="#00308E"/>
<g opacity="0.3">
<path d="M67.0926 64.2912L65.0593 63.1377C65.0175 63.1142 64.9809 63.083 64.9515 63.0457C64.9221 63.0084 64.9005 62.9658 64.888 62.9204C64.8755 62.875 64.8723 62.8276 64.8786 62.7809C64.8849 62.7343 64.9005 62.6893 64.9246 62.6485C64.9486 62.6077 64.9806 62.572 65.0188 62.5433C65.0569 62.5146 65.1005 62.4935 65.147 62.4813C65.1935 62.4691 65.2421 62.4659 65.2898 62.4721C65.3376 62.4782 65.3836 62.4935 65.4253 62.517L67.461 63.6706C67.5026 63.6942 67.539 63.7256 67.5681 63.763C67.5973 63.8004 67.6186 63.843 67.6309 63.8884C67.6432 63.9338 67.6462 63.9812 67.6397 64.0277C67.6333 64.0743 67.6175 64.1191 67.5933 64.1597C67.5695 64.2008 67.5376 64.2368 67.4995 64.2656C67.4614 64.2945 67.4177 64.3157 67.3711 64.3279C67.3245 64.3402 67.2759 64.3432 67.2281 64.3369C67.1803 64.3306 67.1342 64.3151 67.0926 64.2912Z" fill="white"/>
</g>
<path d="M66.7596 63.9382L65.5386 63.2461C65.4907 63.2149 65.4561 63.1677 65.4413 63.1133C65.4265 63.0589 65.4325 63.0011 65.4583 62.9508C65.4903 62.9039 65.5386 62.8701 65.5943 62.8556C65.65 62.8412 65.7091 62.8471 65.7606 62.8723L66.9792 63.5645C67.0044 63.5783 67.0265 63.597 67.0442 63.6193C67.0619 63.6416 67.0749 63.6672 67.0824 63.6945C67.0899 63.7218 67.0917 63.7503 67.0878 63.7782C67.0839 63.8062 67.0742 63.8332 67.0595 63.8575C67.0453 63.8821 67.0262 63.9036 67.0034 63.921C66.9806 63.9384 66.9546 63.9512 66.9267 63.9587C66.8988 63.9662 66.8697 63.9682 66.8411 63.9647C66.8124 63.9612 66.7847 63.9522 66.7596 63.9382Z" fill="#00308E"/>
<g opacity="0.3">
<path d="M71.5654 66.806L69.5321 65.6524C69.4476 65.6046 69.3859 65.526 69.3607 65.4339C69.3354 65.3418 69.3487 65.2436 69.3975 65.161C69.4467 65.0788 69.5274 65.0191 69.6217 64.9948C69.7159 64.9706 69.8162 64.9839 69.9005 65.0318L71.9338 66.1854C71.9756 66.2088 72.0122 66.24 72.0416 66.2773C72.071 66.3146 72.0926 66.3572 72.1051 66.4026C72.1176 66.4481 72.1208 66.4955 72.1145 66.5421C72.1082 66.5888 72.0926 66.6337 72.0685 66.6745C72.0196 66.757 71.9391 66.8173 71.8448 66.8419C71.7505 66.8666 71.65 66.8537 71.5654 66.806Z" fill="white"/>
</g>
<path d="M71.2324 66.4623L70.0138 65.7701C69.9887 65.7562 69.9666 65.7376 69.9488 65.7154C69.931 65.6931 69.9179 65.6676 69.9102 65.6404C69.9026 65.6132 69.9005 65.5847 69.904 65.5567C69.9076 65.5287 69.9169 65.5017 69.9312 65.4771C69.9456 65.4524 69.9649 65.4308 69.988 65.4135C70.011 65.3961 70.0374 65.3834 70.0655 65.3761C70.0936 65.3688 70.123 65.3671 70.1518 65.3709C70.1806 65.3748 70.2084 65.3842 70.2335 65.3987L71.4521 66.0908C71.5004 66.1217 71.5355 66.1687 71.5507 66.2232C71.566 66.2776 71.5603 66.3356 71.5347 66.3861C71.5024 66.4326 71.4539 66.466 71.3983 66.48C71.3426 66.494 71.2837 66.4877 71.2324 66.4623Z" fill="#00308E"/>
<g opacity="0.3">
<path d="M64.9246 66.6838C64.9005 66.6431 64.8849 66.5981 64.8786 66.5514C64.8723 66.5048 64.8755 66.4574 64.888 66.4119C64.9005 66.3665 64.9221 66.3239 64.9515 66.2866C64.9809 66.2494 65.0175 66.2181 65.0593 66.1947L67.0926 65.0411C67.1342 65.0175 67.1801 65.002 67.2277 64.9957C67.2754 64.9894 67.3238 64.9924 67.3703 65.0044C67.4168 65.0164 67.4605 65.0372 67.4987 65.0657C67.537 65.0941 67.5691 65.1297 67.5933 65.1703C67.6423 65.2526 67.6559 65.3506 67.6311 65.4427C67.6063 65.5348 67.5451 65.6136 67.461 65.6617L65.4253 66.8153C65.3836 66.8389 65.3376 66.8541 65.2898 66.8603C65.2421 66.8664 65.1935 66.8633 65.147 66.8511C65.1005 66.8388 65.0569 66.8178 65.0188 66.7891C64.9806 66.7604 64.9486 66.7246 64.9246 66.6838Z" fill="white"/>
</g>
<path d="M65.4583 66.3839C65.4325 66.3335 65.4265 66.2757 65.4413 66.2213C65.4561 66.167 65.4907 66.1197 65.5386 66.0885L66.7596 65.3964C66.7845 65.382 66.812 65.3726 66.8407 65.3688C66.8693 65.3649 66.8985 65.3667 66.9264 65.374C66.9544 65.3813 66.9805 65.394 67.0034 65.4113C67.0262 65.4286 67.0453 65.4502 67.0595 65.4748C67.0742 65.4991 67.0839 65.5261 67.0878 65.5541C67.0917 65.5821 67.0899 65.6105 67.0824 65.6378C67.0749 65.6651 67.0619 65.6907 67.0442 65.713C67.0265 65.7353 67.0044 65.754 66.9792 65.7678L65.7606 66.46C65.7094 66.4854 65.6504 66.4917 65.5948 66.4777C65.5391 66.4637 65.4906 66.4303 65.4583 66.3839Z" fill="#00308E"/>
<g opacity="0.3">
<path d="M69.3975 64.1596C69.3734 64.1189 69.3578 64.0739 69.3515 64.0273C69.3452 63.9806 69.3484 63.9332 69.3609 63.8878C69.3734 63.8424 69.395 63.7998 69.4244 63.7625C69.4538 63.7252 69.4904 63.694 69.5322 63.6705L71.5655 62.5169C71.6501 62.4693 71.7506 62.4563 71.8449 62.481C71.9392 62.5057 72.0196 62.5659 72.0685 62.6485C72.0926 62.6892 72.1083 62.7342 72.1146 62.7808C72.1208 62.8275 72.1176 62.8749 72.1051 62.9203C72.0926 62.9657 72.0711 63.0083 72.0417 63.0456C72.0123 63.0829 71.9757 63.1141 71.9339 63.1376L69.9006 64.2912C69.8588 64.3151 69.8125 64.3306 69.7645 64.337C69.7165 64.3433 69.6677 64.3403 69.6209 64.328C69.5742 64.3158 69.5303 64.2946 69.492 64.2657C69.4536 64.2368 69.4215 64.2008 69.3975 64.1596Z" fill="white"/>
</g>
<path d="M69.9312 63.8597C69.9169 63.8352 69.9076 63.8081 69.904 63.7801C69.9005 63.7521 69.9026 63.7237 69.9102 63.6964C69.9179 63.6692 69.931 63.6437 69.9488 63.6215C69.9666 63.5992 69.9887 63.5806 70.0138 63.5667L71.2324 62.8745C71.2839 62.8494 71.3431 62.8434 71.3988 62.8579C71.4544 62.8723 71.5028 62.9061 71.5347 62.953C71.5603 63.0036 71.566 63.0616 71.5507 63.116C71.5355 63.1704 71.5004 63.2175 71.4521 63.2483L70.2335 63.9405C70.1824 63.9688 70.1219 63.9762 70.0652 63.9611C70.0086 63.946 69.9604 63.9095 69.9312 63.8597Z" fill="#00308E"/>
<path d="M69.1122 64.6696C69.1122 64.7887 69.076 64.9051 69.0083 65.0041C68.9406 65.1032 68.8443 65.1804 68.7317 65.2259C68.619 65.2715 68.4951 65.2834 68.3755 65.2602C68.256 65.237 68.1461 65.1796 68.0599 65.0954C67.9737 65.0112 67.915 64.9039 67.8912 64.7871C67.8675 64.6703 67.8797 64.5492 67.9263 64.4392C67.973 64.3291 68.052 64.2351 68.1533 64.1689C68.2547 64.1027 68.3739 64.0674 68.4958 64.0674C68.6593 64.0674 68.816 64.1309 68.9316 64.2438C69.0472 64.3567 69.1122 64.5099 69.1122 64.6696Z" fill="#00308E"/>
<path opacity="0.3" d="M3.8038 50.702L9.25914 49.087C9.33863 49.0633 9.41032 49.0195 9.46696 48.9601L11.0988 47.2413C11.1573 47.1782 11.1967 47.1005 11.2127 47.0169C11.2288 46.9332 11.2209 46.8469 11.1898 46.7674C11.1588 46.6879 11.1058 46.6183 11.0369 46.5663C10.9679 46.5144 10.8855 46.4821 10.7989 46.473L5.10032 45.947C4.9931 45.9387 4.88621 45.9665 4.79732 46.0256C4.70843 46.0848 4.64287 46.1718 4.61147 46.2723L3.2252 50.1206C3.19994 50.1999 3.19705 50.2844 3.21682 50.3651C3.23659 50.4459 3.27829 50.5199 3.33753 50.5794C3.39677 50.6389 3.47135 50.6818 3.55341 50.7033C3.63547 50.7249 3.72197 50.7245 3.8038 50.702Z" fill="#1919D3"/>
<path opacity="0.3" d="M4.61154 46.2724L3.22526 50.1207C3.19781 50.2073 3.19705 50.2999 3.22309 50.3868C3.24913 50.4738 3.30081 50.5514 3.37169 50.6099L5.10511 49.1956C5.21164 49.1064 5.29296 48.992 5.34128 48.8633L5.90098 47.4467C5.97707 47.2576 5.97781 47.0475 5.90304 46.8578C5.82828 46.6682 5.68345 46.5128 5.49714 46.4224L4.75559 46.0671C4.68975 46.1218 4.64003 46.1927 4.61154 46.2724Z" fill="#1919D3"/>
<path d="M59.8944 47.1767C57.6211 45.4597 55.2073 43.928 52.6772 42.597L53.8864 48.9163L54.8948 49.0386C55.2345 49.0807 55.5791 49.0635 55.9127 48.9879L59.6771 48.1434C59.7807 48.1205 59.8755 48.0691 59.9504 47.9955C60.0252 47.9218 60.0771 47.8289 60.0999 47.7275C60.1227 47.6261 60.1154 47.5205 60.079 47.4229C60.0426 47.3254 59.9786 47.24 59.8944 47.1767Z" fill="#1919D3"/>
<path d="M33.7253 39.0416L34.9369 46.616L38.0873 46.999L35.8579 38.9909C35.1573 39.0001 34.4464 39.017 33.7253 39.0416Z" fill="#1919D3"/>
<path d="M21.839 41.1158L25.4098 44.8072L25.4547 44.8511L25.0981 39.5815C24.1534 39.6646 23.2088 39.7499 22.3208 39.8399C22.176 39.8534 22.038 39.9065 21.9228 39.9932C21.8075 40.0798 21.7196 40.1966 21.6693 40.3299C21.619 40.4632 21.6082 40.6077 21.6382 40.7467C21.6682 40.8858 21.7379 41.0137 21.839 41.1158Z" fill="#1919D3"/>
<path d="M53.9619 47.7718L52.0537 47.7234L52.4764 44.761L54.2878 45.1532C54.5896 45.2183 54.8596 45.3821 55.0533 45.6174C55.247 45.8527 55.3526 46.1456 55.3529 46.4475C55.3529 46.6244 55.3168 46.7995 55.2464 46.9624C55.1761 47.1254 55.0731 47.273 54.9434 47.3964C54.8138 47.5198 54.6601 47.6167 54.4915 47.6811C54.323 47.7456 54.1429 47.7765 53.9619 47.7718Z" fill="#407BFF"/>
<path opacity="0.3" d="M52.9936 44.874L52.4764 44.761L52.0537 47.7234L52.5827 47.7372L52.9936 44.874Z" fill="#1919D3"/>
<path opacity="0.2" d="M2.5 60.706L3.30531 59.9215C3.52914 59.7045 3.70693 59.4465 3.8285 59.1622C3.95008 58.878 4.01305 58.5731 4.0138 58.265V54.9357C4.01365 54.603 3.9409 54.274 3.80041 53.9709C3.65992 53.6677 3.45491 53.3973 3.19904 53.1777L2.50708 52.5847L2.5 60.706Z" fill="white"/>
<path d="M55.9216 15.105C54.787 16.8326 54.0242 18.7305 53.6175 20.6878L50.5 20.9812V27.0186L53.6178 27.3125C54.0237 29.2692 54.787 31.1671 55.9216 32.8953L53.9303 35.3004L58.1995 39.5696L60.6047 37.5785C62.3326 38.7128 64.2303 39.4761 66.1876 39.8823L66.4812 43H72.5188L72.8124 39.8823C74.7697 39.4756 76.6674 38.7126 78.3953 37.5782L80.8005 39.5693L85.0697 35.3001L83.0787 32.895C84.213 31.1671 84.976 29.2695 85.3822 27.3122L88.4995 27.0186L88.5 20.9812L85.3825 20.6872C84.976 18.7302 84.2127 16.8326 83.0784 15.1047L85.0697 12.6996L80.8005 8.43045L78.3953 10.4215C76.6674 9.2869 74.7695 8.52361 72.8124 8.11745L72.5185 5H66.481L66.1873 8.11772C64.23 8.52416 62.3323 9.2869 60.6047 10.4215L58.1995 8.43018L53.9303 12.6994L55.9216 15.1045V15.105ZM75.1241 18.651C78.2299 21.7567 78.2302 26.7927 75.1241 29.8987C72.0178 33.005 66.9817 33.0045 63.8759 29.8987C60.7698 26.7927 60.7698 21.757 63.8759 18.6507C66.9819 15.5447 72.0175 15.5447 75.1239 18.6507L75.1241 18.651Z" fill="#1919D3"/>
<path d="M36.3548 21.457C35.9666 22.0481 35.7057 22.6973 35.5665 23.3669L34.5 23.4673V25.5327L35.5666 25.6333C35.7055 26.3027 35.9666 26.952 36.3548 27.5432L35.6735 28.366L37.1341 29.8265L37.9569 29.1453C38.548 29.5334 39.1972 29.7945 39.8668 29.9335L39.9673 31.0001H42.0327L42.1332 29.9335C42.8028 29.7943 43.452 29.5333 44.0431 29.1452L44.8659 29.8264L46.3265 28.3659L45.6453 27.5431C46.0334 26.952 46.2944 26.3028 46.4334 25.6332L47.4998 25.5327L47.5 23.4673L46.4335 23.3667C46.2944 22.6972 46.0333 22.0481 45.6452 21.4569L46.3265 20.6342L44.8659 19.1736L44.0431 19.8548C43.452 19.4666 42.8027 19.2055 42.1332 19.0666L42.0326 18.0001H39.9672L39.8667 19.0667C39.1971 19.2057 38.5479 19.4666 37.9569 19.8548L37.1341 19.1735L35.6735 20.6341L36.3548 21.4569V21.457ZM42.9241 22.6701C43.9866 23.7326 43.9867 25.4555 42.9241 26.5181C41.8614 27.5807 40.1385 27.5805 39.076 26.5181C38.0133 25.4555 38.0133 23.7327 39.076 22.67C40.1386 21.6075 41.8613 21.6075 42.924 22.67L42.9241 22.6701Z" fill="#407BFF"/>
</svg>
