<svg width="125" height="100" viewBox="0 0 125 100" fill="none" xmlns="http://www.w3.org/2000/svg">
<rect width="125" height="100" fill="white"/>
<path d="M95.456 75.3989H91.994C91.7295 75.3989 91.5151 75.6105 91.5151 75.8716V75.9806C91.5151 76.2417 91.7295 76.4533 91.994 76.4533H95.456C95.7205 76.4533 95.9349 76.2417 95.9349 75.9806V75.8716C95.9349 75.6105 95.7205 75.3989 95.456 75.3989Z" fill="#00308E"/>
<path d="M94.1118 75.7625C94.1118 76.0861 94.209 76.4024 94.3911 76.6715C94.5732 76.9406 94.8321 77.1503 95.135 77.2741C95.4378 77.3979 95.771 77.4303 96.0925 77.3672C96.414 77.3041 96.7094 77.1482 96.9412 76.9194C97.1729 76.6906 97.3308 76.3991 97.3948 76.0817C97.4587 75.7643 97.4259 75.4354 97.3004 75.1364C97.175 74.8375 96.9626 74.5819 96.69 74.4022C96.4174 74.2224 96.097 74.1264 95.7692 74.1264C95.3297 74.1264 94.9081 74.2988 94.5973 74.6056C94.2864 74.9125 94.1118 75.3286 94.1118 75.7625Z" fill="#00308E"/>
<path d="M88.2923 35.7326H97.9972C98.932 35.7379 99.839 36.0471 100.578 36.6122C101.317 37.1774 101.847 37.9671 102.085 38.8593L106.432 55.9112C106.503 56.1444 106.519 56.391 106.477 56.6312C106.435 56.8714 106.337 57.0985 106.19 57.2946C106.043 57.4906 105.852 57.6501 105.632 57.7603C105.412 57.8704 105.168 57.9282 104.921 57.929C104.199 57.9203 103.497 57.6947 102.908 57.2822C102.32 56.8698 101.872 56.2901 101.625 55.6203L97.942 43.1678C97.6506 42.3542 97.1125 41.649 96.4008 41.1481C95.6891 40.6472 94.8383 40.3749 93.9642 40.3682H88.2002V35.7326H88.2923Z" fill="#00308E"/>
<path d="M60.393 51.7117L54.5 39.241H61.2401L60.393 51.7117Z" fill="#407BFF"/>
<path opacity="0.5" d="M60.393 51.7117L54.5 39.241H61.2401L60.393 51.7117Z" fill="white"/>
<path d="M93.5408 76.4533H58.1831L60.5771 41.5498C60.7613 39.3464 61.7417 37.2818 63.3394 35.7325C66.702 32.5853 71.1931 30.8853 75.8251 31.006C79.5476 30.9557 83.1991 32.0136 86.3036 34.0419C87.0192 34.5421 87.6851 35.1082 88.2924 35.7325C89.8956 37.28 90.8824 39.3444 91.0732 41.5498L93.5408 76.4533Z" fill="#407BFF"/>
<path d="M88.1451 82.9977H63.5052C62.916 83.0202 62.3321 82.8809 61.8184 82.5952C61.3047 82.3096 60.8814 81.8888 60.5955 81.3798L58.1831 76.4533H93.5408L91.0547 81.3616C90.7714 81.874 90.3491 82.2985 89.8352 82.5874C89.3213 82.8764 88.7361 83.0185 88.1451 82.9977Z" fill="#407BFF"/>
<path opacity="0.4" d="M88.1451 82.9977H63.5052C62.916 83.0202 62.3321 82.8809 61.8184 82.5952C61.3047 82.3096 60.8814 81.8888 60.5955 81.3798L58.1831 76.4533H93.5408L91.0547 81.3616C90.7714 81.874 90.3491 82.2985 89.8352 82.5874C89.3213 82.8764 88.7361 83.0185 88.1451 82.9977Z" fill="#1919D3"/>
<path opacity="0.5" d="M88.2923 35.7325H63.3394C66.7019 32.5853 71.193 30.8853 75.8251 31.006C79.5475 30.9557 83.199 32.0136 86.3035 34.0419C87.0191 34.5421 87.685 35.1082 88.2923 35.7325Z" fill="white"/>
<path d="M75.7512 73.4356C76.1072 73.4356 76.3958 73.1508 76.3958 72.7994C76.3958 72.448 76.1072 72.1631 75.7512 72.1631C75.3952 72.1631 75.1067 72.448 75.1067 72.7994C75.1067 73.1508 75.3952 73.4356 75.7512 73.4356Z" fill="white"/>
<path d="M69.1956 73.4356C69.5515 73.4356 69.8401 73.1508 69.8401 72.7994C69.8401 72.448 69.5515 72.1631 69.1956 72.1631C68.8396 72.1631 68.551 72.448 68.551 72.7994C68.551 73.1508 68.8396 73.4356 69.1956 73.4356Z" fill="white"/>
<path d="M72.4734 73.4356C72.8294 73.4356 73.1179 73.1508 73.1179 72.7994C73.1179 72.448 72.8294 72.1631 72.4734 72.1631C72.1174 72.1631 71.8289 72.448 71.8289 72.7994C71.8289 73.1508 72.1174 73.4356 72.4734 73.4356Z" fill="white"/>
<path d="M79.0295 73.4356C79.3855 73.4356 79.6741 73.1508 79.6741 72.7994C79.6741 72.448 79.3855 72.1631 79.0295 72.1631C78.6736 72.1631 78.385 72.448 78.385 72.7994C78.385 73.1508 78.6736 73.4356 79.0295 73.4356Z" fill="white"/>
<path d="M82.3257 73.4356C82.6817 73.4356 82.9702 73.1508 82.9702 72.7994C82.9702 72.448 82.6817 72.1631 82.3257 72.1631C81.9697 72.1631 81.6812 72.448 81.6812 72.7994C81.6812 73.1508 81.9697 73.4356 82.3257 73.4356Z" fill="white"/>
<path d="M48.5603 42.4709H44.7587C44.2912 42.4709 43.8428 42.289 43.5122 41.9653C43.1816 41.6416 42.9958 41.2026 42.9958 40.7448C42.9958 40.287 43.1816 39.848 43.5122 39.5243C43.8428 39.2006 44.2912 39.0187 44.7587 39.0187H48.5143C48.6792 38.8351 48.8049 38.6209 48.8839 38.3889C48.9628 38.1569 48.9936 37.9117 48.9742 37.6679V24.4747C48.9936 24.2308 48.9628 23.9857 48.8839 23.7537C48.8049 23.5216 48.6792 23.3075 48.5143 23.1238H45.1266C44.6591 23.1238 44.2107 22.9419 43.8801 22.6182C43.5495 22.2945 43.3638 21.8555 43.3638 21.3977C43.3638 20.9399 43.5495 20.5009 43.8801 20.1772C44.2107 19.8535 44.6591 19.6717 45.1266 19.6717H48.5603C50.7677 19.6717 52.4999 21.788 52.4999 24.4747V37.6679C52.4999 40.3696 50.7677 42.4709 48.5603 42.4709Z" fill="#407BFF"/>
<g opacity="0.4">
<path d="M48.5603 42.4709H44.7587C44.2912 42.4709 43.8428 42.289 43.5122 41.9653C43.1816 41.6416 42.9958 41.2026 42.9958 40.7448C42.9958 40.287 43.1816 39.848 43.5122 39.5243C43.8428 39.2006 44.2912 39.0187 44.7587 39.0187H48.5143C48.6792 38.8351 48.8049 38.6209 48.8839 38.3889C48.9628 38.1569 48.9936 37.9117 48.9742 37.6679V24.4747C48.9936 24.2308 48.9628 23.9857 48.8839 23.7537C48.8049 23.5216 48.6792 23.3075 48.5143 23.1238H45.1266C44.6591 23.1238 44.2107 22.9419 43.8801 22.6182C43.5495 22.2945 43.3638 21.8555 43.3638 21.3977C43.3638 20.9399 43.5495 20.5009 43.8801 20.1772C44.2107 19.8535 44.6591 19.6717 45.1266 19.6717H48.5603C50.7677 19.6717 52.4999 21.788 52.4999 24.4747V37.6679C52.4999 40.3696 50.7677 42.4709 48.5603 42.4709Z" fill="white"/>
</g>
<path d="M41.1411 56.7449H24.8922C24.2946 56.7478 23.7111 56.5669 23.2243 56.2275C22.7374 55.8881 22.3718 55.4076 22.179 54.8537L21.7038 53.5178C21.6071 53.2423 21.5554 52.9536 21.5505 52.6623L20.8147 23.379H45.2033L44.4675 52.8274C44.4537 53.1351 44.3917 53.4388 44.2835 53.728L43.839 54.8987C43.6374 55.4405 43.2703 55.9084 42.7876 56.2387C42.3049 56.569 41.73 56.7458 41.1411 56.7449Z" fill="#407BFF"/>
<path d="M31.3918 53.743V48.2645H32.7101L34.8716 53.743H31.3918Z" fill="#00308E"/>
<path d="M34.8409 53.7429H31.3918V56.7448H34.8409V53.7429Z" fill="#00308E"/>
<path opacity="0.1" d="M34.8409 53.7429H31.3918V56.7448H34.8409V53.7429Z" fill="white"/>
<path d="M30.4108 53.743L24.1719 54.6885L31.4839 52.3771L33.8446 48.2645H34.8716V52.7824L41.2485 54.6885L34.8716 53.743H30.4108Z" fill="#00308E"/>
<path opacity="0.2" d="M30.4108 53.743L24.1719 54.6885L31.4839 52.3771L33.8446 48.2645H34.8716V52.7824L41.2485 54.6885L34.8716 53.743H30.4108Z" fill="white"/>
<path opacity="0.5" d="M41.1411 56.7449H24.8922C24.2946 56.7478 23.7111 56.5669 23.2243 56.2275C22.7374 55.8881 22.3718 55.4076 22.179 54.8537L21.7038 53.5178C21.6071 53.2423 21.5554 52.9536 21.5505 52.6623L20.8147 23.379H45.2033L44.4675 52.8274C44.4537 53.1351 44.3917 53.4388 44.2835 53.728L43.839 54.8987C43.6374 55.4405 43.2703 55.9084 42.7876 56.2387C42.3049 56.569 41.73 56.7458 41.1411 56.7449Z" fill="white"/>
<path d="M24.8615 56.7448H41.1103C41.6325 56.7098 42.1558 56.7931 42.6397 56.9883C43.1236 57.1836 43.5549 57.4855 43.9002 57.8705L44.4367 58.681C44.5426 58.8393 44.6107 59.0188 44.636 59.2064L46.8741 79.3489H19.1284L21.3818 59.1313C21.3998 58.9304 21.474 58.7382 21.5964 58.576L22.0869 57.8555C22.4328 57.4761 22.8625 57.179 23.3432 56.9865C23.824 56.7941 24.3432 56.7114 24.8615 56.7448Z" fill="#407BFF"/>
<path opacity="0.3" d="M24.8615 56.7448H41.1103C41.6325 56.7098 42.1558 56.7931 42.6397 56.9883C43.1236 57.1836 43.5549 57.4855 43.9002 57.8705L44.4367 58.681C44.5426 58.8393 44.6107 59.0188 44.636 59.2064L46.8741 79.3489H19.1284L21.3818 59.1313C21.3998 58.9304 21.474 58.7382 21.5964 58.576L22.0869 57.8555C22.4328 57.4761 22.8625 57.179 23.3432 56.9865C23.824 56.7941 24.3432 56.7114 24.8615 56.7448Z" fill="white"/>
<path d="M41.141 82.9962H24.8921C23.9586 83.0165 23.025 82.9562 22.1023 82.8161L21.5657 82.681C21.493 82.6666 21.4248 82.6358 21.3665 82.5909L19.1284 79.3489H46.8741L44.636 82.6059C44.5671 82.6522 44.4886 82.6829 44.4061 82.696L43.9156 82.8161C42.9979 82.9557 42.0695 83.016 41.141 82.9962Z" fill="#407BFF"/>
<path opacity="0.4" d="M41.141 82.9962H24.8921C23.9586 83.0165 23.025 82.9562 22.1023 82.8161L21.5657 82.681C21.493 82.6666 21.4248 82.6358 21.3665 82.5909L19.1284 79.3489H46.8741L44.636 82.6059C44.5671 82.6522 44.4886 82.6829 44.4061 82.696L43.9156 82.8161C42.9979 82.9557 42.0695 83.016 41.141 82.9962Z" fill="#1919D3"/>
<path d="M39.1943 18.6811H24.601L24.5857 17H39.179L39.1943 18.6811Z" fill="#407BFF"/>
<path opacity="0.4" d="M39.1943 18.6811H24.601L24.5857 17H39.179L39.1943 18.6811Z" fill="#1919D3"/>
<path d="M45.2953 18.7562V20.4522H19.0212L18.5 19.5967V18.7562L25.2755 18.3359L31.8976 17.9306L39.8688 18.426L45.2953 18.7562Z" fill="#407BFF"/>
<path opacity="0.7" d="M45.2953 18.7562V20.4522H19.0212L18.5 19.5967V18.7562L25.2755 18.3359L31.8976 17.9306L39.8688 18.426L45.2953 18.7562Z" fill="white"/>
<path d="M45.2953 19.5967L45.2799 20.4522L45.2033 23.394H20.8147L19.0212 20.4522L18.5 19.5967H45.2953Z" fill="#407BFF"/>
<path opacity="0.5" d="M45.2953 19.5967L45.2799 20.4522L45.2033 23.394H20.8147L19.0212 20.4522L18.5 19.5967H45.2953Z" fill="white"/>
<path d="M45.2952 23.379H20.8147V25.9756H45.2952V23.379Z" fill="#407BFF"/>
<path opacity="0.4" d="M45.2952 23.379H20.8147V25.9756H45.2952V23.379Z" fill="#1919D3"/>
<path d="M33.1086 60.7523C31.9474 60.7523 30.8123 61.0894 29.8468 61.7211C28.8813 62.3527 28.1288 63.2505 27.6845 64.301C27.2401 65.3514 27.1238 66.5072 27.3504 67.6223C27.5769 68.7375 28.1361 69.7618 28.9571 70.5657C29.7782 71.3697 30.8243 71.9172 31.9632 72.139C33.1021 72.3608 34.2826 72.2469 35.3554 71.8119C36.4281 71.3768 37.3451 70.6399 37.9902 69.6946C38.6353 68.7492 38.9796 67.6378 38.9796 66.5009C38.9756 64.9775 38.3557 63.5176 37.2556 62.4404C36.1554 61.3631 34.6644 60.7562 33.1086 60.7523ZM33.1086 70.1331C32.3749 70.1331 31.6577 69.9201 31.0476 69.521C30.4376 69.1218 29.9621 68.5546 29.6813 67.8909C29.4006 67.2271 29.3271 66.4968 29.4702 65.7922C29.6134 65.0876 29.9667 64.4404 30.4855 63.9325C31.0043 63.4245 31.6653 63.0785 32.3849 62.9384C33.1045 62.7982 33.8504 62.8701 34.5282 63.1451C35.2061 63.42 35.7854 63.8855 36.1931 64.4829C36.6007 65.0802 36.8182 65.7825 36.8182 66.5009C36.8182 67.4642 36.4274 68.3881 35.7317 69.0693C35.036 69.7504 34.0925 70.1331 33.1086 70.1331Z" fill="white"/>
<path opacity="0.6" d="M36.8184 66.501C36.8184 67.2194 36.6009 67.9216 36.1933 68.519C35.7856 69.1163 35.2063 69.5818 34.5284 69.8567C33.8506 70.1316 33.1047 70.2036 32.3851 70.0634C31.6655 69.9233 31.0045 69.5773 30.4857 69.0694C29.9669 68.5614 29.6136 67.9142 29.4705 67.2096C29.3273 66.505 29.4008 65.7747 29.6815 65.1109C29.9623 64.4472 30.4378 63.88 31.0478 63.4808C31.6579 63.0817 32.3751 62.8687 33.1088 62.8687C34.0927 62.8687 35.0362 63.2514 35.7319 63.9326C36.4276 64.6137 36.8184 65.5376 36.8184 66.501Z" fill="white"/>
<path d="M33.1087 69.3076C32.5418 69.3076 31.9876 69.143 31.5162 68.8346C31.0448 68.5262 30.6774 68.0879 30.4604 67.575C30.2434 67.0621 30.1867 66.4978 30.2973 65.9533C30.4079 65.4089 30.6809 64.9087 31.0818 64.5162C31.4827 64.1237 31.9934 63.8564 32.5495 63.7481C33.1055 63.6398 33.6819 63.6953 34.2057 63.9078C34.7295 64.1202 35.1772 64.48 35.4922 64.9415C35.8071 65.4031 35.9753 65.9458 35.9753 66.5009C35.9753 67.2453 35.6733 67.9592 35.1357 68.4856C34.5981 69.0119 33.869 69.3076 33.1087 69.3076ZM33.1087 64.0844C32.6206 64.0844 32.1434 64.2261 31.7376 64.4916C31.3317 64.7572 31.0154 65.1346 30.8286 65.5761C30.6418 66.0177 30.5929 66.5036 30.6882 66.9723C30.7834 67.4411 31.0184 67.8717 31.3636 68.2096C31.7087 68.5476 32.1485 68.7777 32.6273 68.871C33.106 68.9642 33.6022 68.9163 34.0532 68.7334C34.5041 68.5505 34.8896 68.2408 35.1608 67.8434C35.432 67.446 35.5767 66.9788 35.5767 66.5009C35.5727 65.8612 35.3114 65.2488 34.8494 64.7965C34.3874 64.3442 33.762 64.0883 33.1087 64.0844Z" fill="#407BFF"/>
<path opacity="0.2" d="M35.3312 76.2871C35.3343 76.6594 35.2241 77.0242 35.0147 77.335C34.8053 77.6458 34.5062 77.8886 34.1555 78.0325C33.8048 78.1764 33.4182 78.2148 33.0451 78.1429C32.672 78.0709 32.3292 77.8919 32.0603 77.6287C31.7914 77.3654 31.6085 77.0297 31.5351 76.6644C31.4617 76.299 31.5009 75.9206 31.6478 75.5771C31.7947 75.2337 32.0427 74.9408 32.3602 74.7358C32.6776 74.5308 33.0502 74.4229 33.4304 74.4259C33.9346 74.4259 34.4181 74.622 34.7745 74.971C35.131 75.3201 35.3312 75.7934 35.3312 76.2871Z" fill="#1919D3"/>
<path d="M33.4304 77.788C34.277 77.788 34.9633 77.116 34.9633 76.287C34.9633 75.4581 34.277 74.7861 33.4304 74.7861C32.5838 74.7861 31.8975 75.4581 31.8975 76.287C31.8975 77.116 32.5838 77.788 33.4304 77.788Z" fill="#00308E"/>
</svg>
