<svg width="125" height="100" viewBox="0 0 125 100" fill="none" xmlns="http://www.w3.org/2000/svg">
<rect width="125" height="100" fill="white"/>
<path d="M67.9943 70.1358C67.9943 70.1358 67.9516 67.4043 67.9516 63.509C67.9516 59.6138 68.2197 48.4306 68.2197 48.4306L71.2752 33.4585L65.2379 30.2457L47.1258 28.7436L44.0664 29.8494C44.0664 29.8494 37.8853 32.2368 37.1568 33.9457C36.4284 35.6546 40.6048 49.6678 40.6048 49.6678C40.6048 49.6678 40.2163 58.2973 40.0357 60.5475C39.7945 63.3802 39.842 66.23 40.1775 69.0532L39.6433 71.1255C39.6433 71.1255 47.2774 75.2064 56.3217 74.9918C65.0184 74.7985 68.2352 71.8891 68.2352 71.8891L67.9943 70.1358Z" fill="#00308E"/>
<path d="M29.55 55.8364C29.4781 55.6296 29.3557 52.1905 30.2376 50.0042C31.1195 47.8178 37.1569 33.9457 37.1569 33.9457L42.9845 44.7461L40.6049 49.6678L38.167 55.4111L37.8018 67.7561L38.9867 70.8027L34.6996 74.3249L32.9377 69.2852C32.9377 69.2852 31.848 68.943 31.339 67.2341C30.8301 65.5253 29.55 55.8364 29.55 55.8364Z" fill="#00308E"/>
<path d="M45.8746 57.3095C45.8568 57.4214 45.8308 57.5319 45.7969 57.6401C45.7406 57.8527 45.6473 58.1543 45.5191 58.5235C44.8438 60.4519 43.8113 62.2374 42.4752 63.7874C42.2188 64.0832 42.0032 64.3171 41.8478 64.4698C41.7719 64.5542 41.6887 64.6319 41.5991 64.7018C41.6664 64.6107 41.7397 64.5241 41.8186 64.4427C41.9663 64.2823 42.1722 64.0426 42.4208 63.7429C43.7214 62.176 44.749 60.4033 45.4609 58.4984C45.5968 58.1349 45.6998 57.8372 45.7658 57.6285C45.7929 57.5193 45.8293 57.4125 45.8746 57.3095Z" fill="#00308E"/>
<path d="M61.3782 57.3134C61.3782 57.3405 58.1555 57.3638 54.1792 57.3638C50.2028 57.3638 46.9763 57.3405 46.9763 57.3134C46.9763 57.2862 50.2009 57.263 54.1792 57.263C58.1575 57.263 61.3782 57.2862 61.3782 57.3134Z" fill="#00308E"/>
<path d="M66.4691 63.828C66.3945 63.781 66.3248 63.7266 66.2613 63.6656C66.0788 63.5096 65.9044 63.3444 65.7387 63.1707C65.4916 62.9141 65.2595 62.6437 65.0433 62.3607C64.511 61.6669 64.0776 60.9032 63.7554 60.0912C63.6235 59.7609 63.5106 59.4234 63.4174 59.0802C63.3532 58.8491 63.3007 58.6149 63.2601 58.3785C63.2415 58.2926 63.2305 58.2053 63.2271 58.1175C63.2606 58.1989 63.2847 58.2839 63.2989 58.3708C63.3358 58.5351 63.3999 58.7709 63.4932 59.0609C63.5864 59.3509 63.6991 59.6872 63.8487 60.0565C64.0166 60.4533 64.2066 60.8405 64.4178 61.2163C64.6328 61.5908 64.8689 61.9528 65.1249 62.3008C65.3658 62.6198 65.595 62.8962 65.7989 63.1185C66.0029 63.3408 66.1739 63.5168 66.2962 63.6327C66.3596 63.6925 66.4175 63.7579 66.4691 63.828Z" fill="#00308E"/>
<path d="M63.6194 70.1357C63.6097 70.1183 63.8719 69.9424 64.2371 69.6061C64.4474 69.4037 64.6422 69.1859 64.8199 68.9546C65.0347 68.6678 65.2245 68.3631 65.3871 68.0441C65.5453 67.7227 65.6753 67.3883 65.7756 67.0447C65.8523 66.7625 65.9075 66.4749 65.9407 66.1844C65.9932 65.6876 65.9679 65.3764 65.9893 65.3764C66.0062 65.4474 66.0153 65.5199 66.0165 65.5929C66.0218 65.6785 66.0218 65.7644 66.0165 65.85C66.0183 65.9642 66.0137 66.0784 66.0029 66.1922C65.9807 66.4878 65.932 66.7809 65.8572 67.0679C65.6704 67.7748 65.3398 68.436 64.8859 69.0107C64.7016 69.2441 64.4968 69.4608 64.274 69.6583C64.1827 69.7452 64.0798 69.8129 64.0098 69.8748C63.9429 69.9293 63.8721 69.979 63.7981 70.0236C63.743 70.0676 63.683 70.1052 63.6194 70.1357Z" fill="#00308E"/>
<path d="M67.9944 70.1357L67.9322 70.1782L67.7379 70.2942L67.4369 70.4876C67.3184 70.5629 67.1785 70.6461 67.0153 70.7292C66.1113 71.2283 65.1601 71.6375 64.1754 71.9509C63.8665 72.0631 63.5324 72.1442 63.1905 72.2409C62.8486 72.3376 62.4815 72.411 62.1066 72.498C61.3035 72.6599 60.4923 72.7792 59.6765 72.8556C58.7759 72.9427 57.8714 72.9827 56.9667 72.9755C56.0246 72.9755 55.0494 72.9291 54.0529 72.8344C50.6606 72.4936 47.3205 71.7565 44.1014 70.6383C42.8659 70.213 41.885 69.8168 41.2148 69.5268C40.8787 69.3857 40.6204 69.2658 40.4378 69.1846L40.2435 69.0918L40.1775 69.057C40.2018 69.0623 40.2253 69.0708 40.2474 69.0822L40.4417 69.1653C40.6184 69.2407 40.8787 69.3586 41.2187 69.492C41.8927 69.7684 42.8756 70.1551 44.113 70.5707C47.3347 71.6647 50.6717 72.3879 54.0587 72.7261C55.0494 72.8208 56.0207 72.8672 56.9589 72.8692C57.861 72.8773 58.7628 72.8392 59.661 72.7551C60.4731 72.6804 61.2809 72.5649 62.0813 72.4091C62.4562 72.324 62.8195 72.2506 63.1633 72.1578C63.5071 72.065 63.8374 71.9838 64.1443 71.8755C65.1283 71.5691 66.0811 71.171 66.9901 70.6867C67.1532 70.6074 67.2931 70.5262 67.4136 70.4528L67.7205 70.2749L67.9147 70.1647C67.9398 70.1514 67.9666 70.1416 67.9944 70.1357Z" fill="#00308E"/>
<path d="M74.5191 37.6939C73.9169 35.2176 71.2712 33.4662 71.2712 33.4662L67.8174 48.7379L70.8302 56.2771L69.6278 68.3495L68.9382 69.8515L73.1321 72.9059L76.8967 67.7541C76.8967 67.7541 79.4997 58.7534 79.4997 55.9949C79.4997 53.2363 75.1213 40.1722 74.5191 37.6939Z" fill="#00308E"/>
<path d="M44.7015 29.6175C44.7015 29.6175 44.0196 29.7161 44.0663 28.1C44.1129 26.4839 44.9035 24.8639 44.9035 24.8639L48.1125 23.2903C48.1125 23.2903 58.0194 22.0667 61.5548 24.6435C65.0901 27.2204 65.9701 27.2455 65.603 28.7495L65.2339 30.2515L55.9739 33.9438L44.7015 29.6175Z" fill="#00308E"/>
<path d="M62.8914 27.1893C62.8887 27.204 62.8841 27.2183 62.8778 27.2318C62.8623 27.2647 62.8467 27.3053 62.8254 27.3555C62.804 27.4058 62.7554 27.4676 62.7069 27.5488C62.6465 27.6279 62.5817 27.7034 62.5126 27.775C62.0529 28.2184 61.5378 28.6011 60.98 28.9136C59.5852 29.7487 57.5281 30.6998 55.1524 31.62L55.131 31.6297L55.1097 31.6161L54.0083 30.9106L47.8272 27.023L45.9604 25.8361L45.4554 25.5094C45.4029 25.4727 45.3602 25.4437 45.3252 25.4224L45.2825 25.3895C45.2825 25.3895 45.3 25.3895 45.331 25.4127L45.467 25.492L45.9818 25.8032L47.8641 26.9631L54.0607 30.8294L55.1582 31.5176H55.1136C57.4931 30.609 59.5542 29.6695 60.9411 28.8537C61.4983 28.5486 62.0162 28.1773 62.4835 27.748C62.5651 27.6726 62.6233 27.5933 62.6777 27.5295C62.7321 27.4657 62.769 27.4019 62.802 27.3536L62.8623 27.2357C62.8817 27.2009 62.8895 27.1873 62.8914 27.1893Z" fill="#00308E"/>
<path d="M64.01 30.7425L63.9673 30.7637L63.8391 30.8179L63.3321 31.0209L61.475 31.7496L55.259 34.1487H55.2434H55.2298C54.9987 34.0887 54.75 34.0365 54.5053 33.9553C53.2463 33.5633 52.0248 33.0606 50.8553 32.4533C49.7714 31.9082 48.8156 31.3823 48.0076 30.9513C47.1995 30.5202 46.5448 30.178 46.0825 29.9538C45.8552 29.8378 45.6727 29.7605 45.5522 29.6986L45.4143 29.6309C45.3976 29.6241 45.3819 29.615 45.3677 29.6039C45.3854 29.6069 45.4024 29.6127 45.4182 29.6213L45.56 29.6793C45.6843 29.7334 45.8688 29.8068 46.1 29.919C46.5682 30.1297 47.2305 30.4641 48.0425 30.8855C48.8545 31.307 49.8141 31.827 50.898 32.3663C52.0643 32.9654 53.2803 33.4634 54.5325 33.8548C54.7753 33.9283 55.022 33.9805 55.2512 34.0481H55.2221L61.4478 31.6762L63.3146 30.9783L63.8216 30.785L63.9537 30.7386L64.01 30.7425Z" fill="#00308E"/>
<path d="M40.5036 51.4598C40.4985 51.4148 40.4985 51.3694 40.5036 51.3245C40.5036 51.2259 40.5153 51.0963 40.525 50.9378C40.5347 50.7793 40.525 50.5647 40.525 50.325C40.525 50.0853 40.5153 49.8147 40.4978 49.5131C40.4687 48.9119 40.389 48.1986 40.2919 47.4079C40.1948 46.6173 40.0549 45.7512 39.9034 44.8465C39.5887 43.0333 39.2604 41.3978 39.0584 40.207C38.9574 39.6116 38.8855 39.1284 38.8447 38.7939C38.8292 38.6335 38.8175 38.5059 38.8078 38.4073C38.8027 38.3617 38.8027 38.3157 38.8078 38.27C38.8205 38.3136 38.8289 38.3583 38.8331 38.4034C38.8486 38.502 38.8661 38.6296 38.8894 38.7901C38.9438 39.1226 39.0234 39.6039 39.1341 40.1974C39.3556 41.3824 39.6936 43.0159 40.0102 44.8369C40.1695 45.7435 40.2958 46.6134 40.3987 47.4041C40.5017 48.1947 40.5619 48.9138 40.5833 49.5189C40.5949 49.8205 40.6046 50.0989 40.5949 50.3328C40.5852 50.5667 40.5949 50.7812 40.5716 50.9494C40.5483 51.1176 40.5425 51.2375 40.5328 51.3361C40.5269 51.3781 40.5172 51.4195 40.5036 51.4598Z" fill="#00308E"/>
<path d="M69.3775 37.1952C69.3775 37.1952 69.3775 37.2126 69.3775 37.2436C69.3775 37.2745 69.3775 37.3267 69.3639 37.3827L69.2998 37.9221C69.2435 38.3957 69.1619 39.0684 69.0628 39.8977C68.8685 41.566 68.6238 43.8761 68.4218 46.4317C68.2197 48.9873 68.1013 51.3071 68.0333 52.985C68.0022 53.8182 67.9769 54.4967 67.9594 54.9742C67.9497 55.2023 67.942 55.384 67.9361 55.5155V55.6566C67.9386 55.672 67.9386 55.6876 67.9361 55.703C67.9344 55.6869 67.9344 55.6707 67.9361 55.6547C67.9361 55.6179 67.9361 55.5716 67.9361 55.5155C67.9361 55.3821 67.9361 55.2023 67.9361 54.9742C67.9361 54.5025 67.9536 53.824 67.9789 52.9831C68.0294 51.3032 68.1382 48.9815 68.3382 46.424C68.5383 43.8665 68.7967 41.5564 69.0084 39.8881C69.1152 39.0549 69.2027 38.3802 69.2784 37.9163C69.3134 37.6901 69.3406 37.5103 69.36 37.3808C69.3697 37.3248 69.3775 37.2784 69.3853 37.2416C69.3803 37.2266 69.3777 37.211 69.3775 37.1952Z" fill="#00308E"/>
<g opacity="0.3">
<path d="M55.2493 34.1023C58.7303 33.9534 62.2967 32.7085 64.8783 30.381C63.5069 30.93 62.2384 31.4655 60.902 31.9758C59.0216 32.695 57.1296 33.3928 55.2493 34.1023Z" fill="#00308E"/>
</g>
<g opacity="0.3">
<path d="M44.0444 68.5254C50.4411 70.82 57.7314 72.0282 64.1398 69.7587C62.275 71.2666 59.7264 71.9818 57.3235 72.0243C52.677 72.1055 47.9741 70.994 44.0444 68.5254Z" fill="#00308E"/>
</g>
<g opacity="0.3">
<path d="M68.4797 49.3179C69.7657 48.0478 70.3892 46.2113 70.4222 44.4077C70.4553 42.6041 69.8492 40.6227 69.1363 38.966C68.5399 42.6486 68.3593 46.482 68.1204 50.1124" fill="#00308E"/>
</g>
<path d="M60.2448 17.3525C59.6431 16.5274 58.7835 15.9188 57.7975 15.6197C54.8098 14.7469 50.6136 14.4151 46.1839 18.7128L45.5382 19C45.5382 19 45.4064 17.536 45.6323 16.4518C45.7829 15.7291 47.1252 11.5093 51.9107 11.0775C51.9088 11.059 59.2263 9.88588 60.2448 17.3525Z" fill="#00308E"/>
<path d="M60.2448 17.3525C59.6431 16.5274 58.7835 15.9188 57.7975 15.6197C54.8098 14.7469 50.6136 14.4151 46.1839 18.7128L45.5382 19C45.5382 19 45.4064 17.536 45.6323 16.4518C45.7829 15.7291 47.1252 11.5093 51.9107 11.0775C51.9088 11.059 59.2263 9.88588 60.2448 17.3525Z" fill="#407BFF"/>
<path d="M46.1821 18.7034C48.0082 16.7427 50.3407 15.6197 52.7993 14.7172C55.2579 13.8147 59.1398 13.2346 61.7584 13.0789C62.5453 13.0363 63.3586 13.0233 64.0909 13.3069C64.8232 13.5904 65.4652 14.2335 65.4991 15.0137C65.5424 15.9903 63.5826 17.067 62.6922 17.4729C61.8017 17.8788 59.9624 18.5848 59.9624 18.5848C59.9624 18.5848 59.4711 16.3814 57.7034 15.7568C54.0324 14.4503 46.0484 18.7702 46.1821 18.7034Z" fill="#00308E"/>
<path d="M73.0562 18.3172C73.1435 18.1964 73.2211 18.0563 73.357 18.0128C73.4928 17.9694 73.6578 18.0467 73.8179 18.0902L74.2545 26.7045L73.6529 26.8687L73.0562 18.3172Z" fill="#CCE5F7"/>
<path d="M86.6071 18.6602L86.8254 19.2787L85.4281 26.5595L84.9526 26.4001L86.3014 18.9163L86.6071 18.6602Z" fill="#CCE5F7"/>
<path d="M60.5 81.3133C63.2898 85.1253 66.1038 86.4201 68.748 86.6761C71.7318 86.5795 74.0461 84.473 76.3895 81.3133C76.962 80.3471 77.8935 80.1152 78.1361 81.3133L78.6504 82.7627C78.6899 82.8678 78.7617 82.9578 78.8556 83.0197C78.9495 83.0816 79.0607 83.1124 79.1733 83.1076C79.2858 83.1028 79.3939 83.0626 79.4822 82.9928C79.5704 82.9231 79.6342 82.8273 79.6644 82.7192L80.0283 81.3278C80.0746 81.0926 80.2016 80.8807 80.3874 80.7285C80.5733 80.5761 80.8065 80.4929 81.0472 80.4929C81.2879 80.4929 81.5211 80.5761 81.7069 80.7285C81.8928 80.8807 82.0197 81.0926 82.066 81.3278L82.5027 83.6082C83.1819 85.449 85.0935 88.1304 89.2952 87.9951C92.2062 88.0289 94.341 84.5745 96.5 81.3278L86.1706 40.0342L73.4833 39.6235L60.5 81.3133Z" fill="#1919D3"/>
<path opacity="0.2" d="M77.9664 56.5285L77.5831 80.5211C77.4352 80.4768 77.2774 80.478 77.1302 80.5245C76.983 80.5711 76.8534 80.6608 76.7583 80.782L77.9664 56.5285Z" fill="#00308E"/>
<path opacity="0.2" d="M81.6342 80.7046C81.5013 80.5946 81.3426 80.52 81.1728 80.4879C81.0031 80.4558 80.8279 80.4671 80.6638 80.521V57.0357L81.6342 80.7046Z" fill="#00308E"/>
<path d="M69.3594 27.6128L73.071 25.8445C73.5188 25.6299 74.0133 25.5298 74.5097 25.5534C75.0062 25.5771 75.4889 25.7236 75.9141 25.9798L79.8489 28.3375L83.0898 26.3228C83.6656 25.9668 84.3259 25.7689 85.0034 25.7494C85.6809 25.7299 86.3515 25.8894 86.947 26.2117L90.61 28.1925L86.6995 41.8701L84.5211 42.7832C84.2428 42.8984 83.9414 42.9475 83.6407 42.9265C83.3401 42.9055 83.0485 42.8151 82.789 42.6625L80.4165 41.0729C80.1699 40.9089 79.8789 40.8237 79.5823 40.8289C79.2858 40.8341 78.9979 40.9293 78.7572 41.1019L77.1998 42.2276C76.8922 42.4477 76.54 42.598 76.1679 42.6681C75.7957 42.7383 75.4127 42.7264 75.0456 42.6335L72.6877 42.0296L69.3594 27.6128Z" fill="#407BFF"/>
<path d="M64.9441 51.2575L64.5178 51.2345C64.5349 50.9253 64.5462 50.5988 64.5633 50.261C64.6542 48.0503 64.7736 45.2956 65.95 43.4458C67.1719 41.5273 69.2406 40.3876 72.105 40.0497C74.6909 39.7462 77.3052 40.8515 78.7715 42.8617C80.3742 45.0551 80.4935 47.9587 80.4822 50.7477H80.0559C80.0673 48.0331 79.9536 45.204 78.4305 43.1194C77.0495 41.2295 74.5886 40.1929 72.1562 40.4792C69.4282 40.7999 67.4618 41.8766 66.3081 43.6806C65.1885 45.4331 65.0805 48.1248 64.9895 50.2839C64.9782 50.6218 64.9611 50.9539 64.9441 51.2632V51.2575Z" fill="#00308E"/>
<path d="M83.5 64H61.5L63.7676 49.5909H81.7154L83.5 64Z" fill="#407BFF"/>
<path opacity="0.3" d="M63.7678 49.5909C63.7678 49.5909 66.4731 56.7668 72.503 56.7954C78.533 56.8183 81.7156 49.5909 81.7156 49.5909C81.7156 49.5909 78.7603 58.1871 72.503 58.0611C66.2457 57.9294 63.7678 49.5909 63.7678 49.5909Z" fill="#00308E"/>
<path d="M74.3725 54.1839H70.792V54.8826H74.3725V54.1839Z" fill="#00308E"/>
</svg>
