<svg width="125" height="100" viewBox="0 0 125 100" fill="none" xmlns="http://www.w3.org/2000/svg">
<rect width="125" height="100" fill="white"/>
<path d="M106.321 65.2417C106.357 65.239 106.39 65.2259 106.418 65.2039C106.447 65.1819 106.468 65.152 106.48 65.1177C106.502 65.0662 106.506 65.0085 106.492 64.9542C106.478 64.8999 106.446 64.8521 106.403 64.8188C87.2309 52.6089 78.7501 17.5105 78.669 17.1569C78.6655 17.1312 78.6566 17.1066 78.6431 17.0847C78.6296 17.0629 78.6118 17.0443 78.5907 17.0301C78.5697 17.016 78.546 17.0066 78.5212 17.0027C78.4964 16.9988 78.4711 17.0004 78.447 17.0074C78.3983 17.0312 78.3595 17.0722 78.3375 17.123C78.3156 17.1738 78.3119 17.2311 78.3271 17.2845C78.4117 17.649 86.9348 52.9188 106.24 65.2162C106.265 65.2312 106.293 65.24 106.321 65.2417Z" fill="#407BFF"/>
<path d="M86.4624 66.3864H70.5266L78.4963 17.2188L86.4624 66.3864Z" fill="#00308E"/>
<path d="M63.5757 66.3864L78.4964 17.2188H37.224L18.5 66.3864H63.5757Z" fill="#407BFF"/>
<path opacity="0.2" d="M63.5757 66.3864L78.4964 17.2188H37.224L18.5 66.3864H63.5757Z" fill="#00308E"/>
<path d="M75.9796 66.3864L78.4964 17.2188L63.5757 66.3864H75.9796Z" fill="#407BFF"/>
<path d="M81.0091 66.3864L78.4958 17.2188L93.413 66.3864H81.0091Z" fill="#407BFF"/>
<path d="M38.3273 66.6087C51.9649 66.6087 62.2081 53.1884 68.4013 41.9301C72.6256 34.1023 76.0638 25.8476 78.6621 17.2952C78.6793 17.2421 78.6778 17.1844 78.6578 17.1323C78.6378 17.0803 78.6006 17.0372 78.5528 17.0108C78.5295 17.0019 78.5045 16.9984 78.4797 17.0006C78.4549 17.0027 78.4309 17.0106 78.4094 17.0234C78.3878 17.0363 78.3693 17.054 78.3551 17.0751C78.3409 17.0962 78.3314 17.1204 78.3272 17.1457C75.7395 25.6644 72.3143 33.8862 68.1052 41.6822C61.9614 52.8493 51.8098 66.1639 38.3273 66.1639C38.2755 66.1694 38.2279 66.1959 38.1949 66.2375C38.1619 66.2792 38.1461 66.3327 38.151 66.3863C38.1461 66.4399 38.1619 66.4934 38.1949 66.535C38.2279 66.5767 38.2755 66.6031 38.3273 66.6087Z" fill="#00308E"/>
<path d="M68.6831 57.5737L99.7617 57.5737V55.7836L68.6831 55.7836V57.5737Z" fill="#1919D3"/>
<path opacity="0.2" d="M68.6827 57.5737H79.8564V55.7836H68.6827V57.5737Z" fill="#1919D3"/>
<path d="M89.6029 74.6143H91.1292L78.8486 57.5737H77.3188L89.6029 74.6143Z" fill="#1919D3"/>
<path d="M78.8486 74.6143H77.3188L89.6029 57.5737H91.1292L78.8486 74.6143Z" fill="#1919D3"/>
<path d="M94.8969 50.6721C94.8969 53.4977 92.1229 55.7763 88.7002 55.7763C85.2776 55.7763 82.5071 53.4867 82.5071 50.6721H94.8969Z" fill="#1919D3"/>
<path d="M59.296 75.4557L44.2241 75.4557L44.3078 74.503H59.0448L59.296 75.4557Z" fill="#1919D3"/>
<path d="M42.7355 65.3227C42.7355 65.3227 43.5542 65.5825 44.559 65.5825C45.54 65.5825 47.071 65.5825 47.071 65.5825L42.2208 81.4719C41.8876 82.5694 40.7877 83.2106 39.7074 82.9369C38.5253 82.6375 37.833 81.3681 38.1967 80.1668L42.7355 65.3227Z" fill="#1919D3"/>
<path d="M60.6357 65.3642C60.6357 65.3642 59.8465 65.5825 58.961 65.5825C57.9146 65.5825 56.2816 65.5825 56.2816 65.5825L61.1317 81.4719C61.4649 82.5694 62.5649 83.2106 63.6451 82.9369C64.8272 82.6375 65.5195 81.3681 65.1558 80.1668L60.6357 65.3642Z" fill="#1919D3"/>
<path d="M41.2097 53.3709V56.229H62.2266V53.3709C62.2266 52.4143 61.4768 51.6388 60.552 51.6388H42.8843C41.9594 51.6388 41.2097 52.4143 41.2097 53.3709Z" fill="#1919D3"/>
<path d="M37.8604 58.654V56.5754H65.6597V58.654C65.6597 62.4805 62.6606 65.5825 58.961 65.5825C53.3367 65.5825 50.1833 65.5825 44.559 65.5825C40.8594 65.5825 37.8604 62.4805 37.8604 58.654Z" fill="#1919D3"/>
<path d="M46.3432 40.3815C46.4812 40.3962 46.5816 40.5238 46.5673 40.6665L46.5668 40.6717L46.5654 40.686C46.5641 40.6984 46.5623 40.7163 46.5599 40.7386C46.5553 40.7832 46.5486 40.8455 46.5406 40.9163C46.5248 41.0567 46.5033 41.2345 46.4817 41.3739C46.397 41.9208 46.0493 42.1919 45.7778 42.4036L45.7709 42.409C45.4888 42.6289 45.2889 42.7901 45.2238 43.1173C45.1882 43.2964 45.1735 43.401 45.1731 43.4994C45.1727 43.5966 45.1863 43.7004 45.2232 43.8757C45.2921 44.2033 45.5274 44.4337 45.8383 44.7331L45.8455 44.74C46.1314 45.0153 46.4887 45.3594 46.5658 45.8839C46.5834 46.0034 46.5927 46.0906 46.5919 46.182C46.5912 46.267 46.5814 46.35 46.5691 46.4541L46.5668 46.4739C46.4964 47.073 46.1061 47.3476 45.8083 47.5572L45.7938 47.5674C45.482 47.7869 45.2729 47.9438 45.2267 48.2963C45.212 48.4077 45.2113 48.5628 45.2156 48.6999C45.2177 48.7664 45.2208 48.825 45.2234 48.8669C45.2247 48.8878 45.2259 48.9045 45.2267 48.9157L45.2277 48.9284L45.2279 48.9314L45.228 48.932C45.2398 49.075 45.1373 49.2008 44.9991 49.2131C44.8609 49.2253 44.7392 49.1193 44.7274 48.9763L44.9777 48.9542C44.7274 48.9763 44.7274 48.9763 44.7274 48.9763L44.7273 48.9745L44.7269 48.9703L44.7258 48.9551C44.7248 48.9421 44.7235 48.9234 44.7221 48.9003C44.7192 48.8543 44.7157 48.7899 44.7135 48.7167C44.709 48.5744 44.7083 48.3831 44.7288 48.2264C44.8067 47.6332 45.1956 47.3597 45.4918 47.1514L45.5111 47.1378C45.8217 46.9191 46.0268 46.7627 46.0681 46.4112L46.0692 46.402C46.083 46.284 46.0891 46.2299 46.0895 46.1772C46.09 46.1279 46.0855 46.0734 46.0691 45.962C46.0216 45.6384 45.803 45.4091 45.4959 45.1134L45.4601 45.079C45.1821 44.812 44.8362 44.4798 44.7323 43.9863C44.6927 43.7981 44.67 43.651 44.6707 43.4972C44.6713 43.3445 44.6948 43.1979 44.7317 43.0126C44.8364 42.4859 45.1791 42.2192 45.4449 42.0124L45.4684 41.994C45.7467 41.777 45.9353 41.6168 45.9857 41.2917C46.0055 41.1639 46.0259 40.9952 46.0416 40.8561C46.0494 40.787 46.0559 40.7262 46.0605 40.6826C46.0627 40.6609 46.0645 40.6434 46.0658 40.6315L46.0676 40.6134L46.3432 40.3815Z" fill="#CCE5F7"/>
<path d="M52.5116 40.3815C52.6496 40.3962 52.7499 40.5238 52.7357 40.6665L52.7357 40.6669L52.7352 40.6717L52.7337 40.686C52.7325 40.6984 52.7306 40.7163 52.7283 40.7386C52.7236 40.7832 52.7169 40.8455 52.709 40.9163C52.6931 41.0567 52.6717 41.2345 52.6501 41.3739C52.5654 41.9208 52.2176 42.1919 51.9461 42.4036L51.9392 42.409C51.6571 42.6289 51.4572 42.7901 51.3921 43.1173C51.3565 43.2964 51.3418 43.401 51.3414 43.4994C51.341 43.5966 51.3546 43.7004 51.3915 43.8757C51.4605 44.2033 51.6958 44.4337 52.0066 44.7331L52.0138 44.74C52.2998 45.0153 52.6571 45.3594 52.7341 45.8839C52.7517 46.0034 52.7611 46.0906 52.7603 46.182C52.7595 46.267 52.7497 46.35 52.7375 46.4541L52.7352 46.4739C52.6648 47.073 52.2745 47.3476 51.9766 47.5572L51.9622 47.5674C51.6503 47.7869 51.4413 47.9438 51.395 48.2963C51.3804 48.4077 51.3796 48.5628 51.3839 48.6999C51.386 48.7664 51.3892 48.825 51.3918 48.8669C51.3931 48.8878 51.3942 48.9045 51.3951 48.9157L51.396 48.9284L51.3963 48.932C51.4081 49.075 51.3057 49.2008 51.1674 49.2131C51.0292 49.2253 50.9076 49.1193 50.8957 48.9763L51.146 48.9542C50.8957 48.9763 50.8957 48.9763 50.8957 48.9763L50.8957 48.9757L50.8956 48.9745L50.8953 48.9703L50.8941 48.9551C50.8932 48.9421 50.8919 48.9234 50.8904 48.9003C50.8875 48.8543 50.8841 48.7899 50.8818 48.7167C50.8773 48.5744 50.8766 48.3831 50.8972 48.2264C50.975 47.6332 51.3639 47.3597 51.6602 47.1514L51.6794 47.1378C51.9901 46.9191 52.1951 46.7627 52.2364 46.4112L52.2375 46.402C52.2514 46.284 52.2574 46.2299 52.2579 46.1772C52.2583 46.1279 52.2538 46.0734 52.2375 45.962C52.1899 45.6384 51.9714 45.4091 51.6643 45.1134L51.6285 45.079C51.3505 44.812 51.0045 44.4798 50.9006 43.9863C50.861 43.7981 50.8384 43.651 50.839 43.4972C50.8396 43.3445 50.8632 43.1979 50.9001 43.0126C51.0048 42.4859 51.3475 42.2192 51.6132 42.0124L51.6368 41.994C51.9151 41.777 52.1037 41.6168 52.154 41.2917C52.1738 41.1639 52.1942 40.9952 52.2099 40.8561C52.2177 40.787 52.2242 40.7262 52.2288 40.6826C52.2311 40.6609 52.2329 40.6434 52.2341 40.6315L52.2355 40.6179L52.2359 40.6135L52.2359 40.6134L52.5116 40.3815Z" fill="#CCE5F7"/>
<path d="M58.904 40.6665C58.9183 40.5238 58.8179 40.3962 58.6799 40.3815L58.4043 40.6133L58.4043 40.6135L58.4038 40.6179L58.4025 40.6315C58.4012 40.6434 58.3994 40.6609 58.3972 40.6826C58.3926 40.7262 58.3861 40.787 58.3783 40.8561C58.3626 40.9952 58.3422 41.1639 58.3224 41.2917C58.272 41.6168 58.0834 41.777 57.8051 41.994L57.7816 42.0124C57.5158 42.2192 57.1731 42.4859 57.0684 43.0126C57.0315 43.1979 57.008 43.3445 57.0074 43.4972C57.0067 43.651 57.0294 43.7981 57.069 43.9863C57.1728 44.4798 57.5188 44.812 57.7968 45.079L57.8326 45.1134C58.1397 45.4091 58.3583 45.6384 58.4058 45.962C58.4222 46.0734 58.4267 46.1279 58.4262 46.1772C58.4258 46.2299 58.4197 46.284 58.4059 46.402L58.4048 46.4112C58.3635 46.7627 58.1584 46.9191 57.8478 47.1378L57.8285 47.1514C57.5323 47.3597 57.1434 47.6332 57.0655 48.2264C57.045 48.3831 57.0457 48.5744 57.0502 48.7167C57.0524 48.7899 57.0559 48.8543 57.0588 48.9003C57.0602 48.9234 57.0615 48.9421 57.0625 48.9551L57.0636 48.9703L57.064 48.9745L57.064 48.9757L57.0641 48.9761L57.0641 48.9763C57.0641 48.9763 57.0641 48.9763 57.3144 48.9542L57.0641 48.9763C57.0759 49.1193 57.1976 49.2253 57.3358 49.2131C57.474 49.2008 57.5765 49.075 57.5647 48.9321L57.5646 48.9314L57.5644 48.9284L57.5634 48.9157C57.5626 48.9045 57.5614 48.8878 57.5601 48.8669C57.5575 48.825 57.5544 48.7664 57.5523 48.6999C57.548 48.5628 57.5487 48.4077 57.5634 48.2963C57.6096 47.9438 57.8187 47.7869 58.1305 47.5674L58.145 47.5572C58.4428 47.3476 58.8331 47.073 58.9035 46.4739L58.9058 46.4541C58.9181 46.35 58.9279 46.267 58.9286 46.182C58.9294 46.0906 58.9201 46.0034 58.9025 45.8839C58.8254 45.3594 58.4681 45.0153 58.1822 44.74L58.175 44.7331C57.8641 44.4337 57.6288 44.2033 57.5599 43.8757C57.523 43.7004 57.5094 43.5966 57.5098 43.4994C57.5102 43.401 57.5249 43.2964 57.5605 43.1173C57.6256 42.7901 57.8255 42.6289 58.1076 42.409L58.1145 42.4036C58.386 42.1919 58.7337 41.9208 58.8184 41.3739C58.84 41.2345 58.8615 41.0567 58.8773 40.9163C58.8853 40.8455 58.892 40.7832 58.8966 40.7386C58.899 40.7163 58.9008 40.6984 58.9021 40.686L58.9035 40.6717L58.904 40.6665Z" fill="#CCE5F7"/>
<path d="M52.1697 80.0146C55.4544 80.0146 56.744 76.8658 55.5598 74.2372C54.3756 71.6087 54.8683 70.8949 54.8683 70.8949C54.8683 70.8949 53.4058 72.3119 53.4058 73.3645C52.251 72.1545 55.1121 69.5514 53.9244 66.9454C53.0445 68.6832 52.4584 69.5544 49.8014 72.105C47.3033 74.5011 45.7561 80.0146 52.1697 80.0146Z" fill="#407BFF"/>
<path opacity="0.5" d="M51.5178 79.6083C49.7303 79.6083 48.8987 77.7564 49.7441 76.323C50.5894 74.8895 50.1745 74.4306 50.1745 74.4306C50.1745 74.4306 51.0666 75.2733 50.9871 75.8461C51.7079 75.1864 50.6966 73.57 51.5385 72.15C51.8843 73.0961 51.8013 73.7619 53.0443 75.1609C54.3547 76.6333 55.0133 79.6083 51.5178 79.6083Z" fill="#F2F7FF"/>
<path opacity="0.5" d="M51.8621 79.055C52.659 79.055 53.029 78.2303 52.6521 77.59C52.2752 76.9498 52.4602 76.7473 52.4602 76.7473C52.4602 76.7473 52.0626 77.1222 52.0972 77.3786C51.7774 77.0787 52.2268 76.362 51.8517 75.7292C51.6961 76.1521 51.7359 76.449 51.181 77.0712C50.5966 77.7295 50.3027 79.055 51.8621 79.055Z" fill="#F2F7FF"/>
<path d="M47.7339 80.7794C47.7339 80.4533 47.8832 80.1406 48.1491 79.91C48.4149 79.6794 48.7755 79.5499 49.1515 79.5499H54.3602V80.7794H47.7339Z" fill="#CCE5F7"/>
<path opacity="0.2" d="M47.7339 80.7794C47.7339 80.4533 47.8832 80.1406 48.1491 79.91C48.4149 79.6794 48.7755 79.5499 49.1515 79.5499H54.3602V80.7794H47.7339Z" fill="#00308E"/>
<path d="M54.36 79.5469C54.7359 79.5469 55.0965 79.6764 55.3623 79.907C55.6282 80.1376 55.7775 80.4503 55.7775 80.7764H52.9424C52.9424 80.4503 53.0917 80.1376 53.3576 79.907C53.6234 79.6764 53.984 79.5469 54.36 79.5469Z" fill="#CCE5F7"/>
</svg>
