<svg width="125" height="100" viewBox="0 0 125 100" fill="none" xmlns="http://www.w3.org/2000/svg">
<rect width="125" height="100" fill="white"/>
<path d="M36.7502 49.3932H34.2498C34.1355 49.3933 34.0232 49.4234 33.9241 49.4803C33.825 49.5372 33.7425 49.6191 33.6848 49.7178L32.4346 51.8838C32.3775 51.9831 32.3474 52.0957 32.3474 52.2104C32.3474 52.325 32.3775 52.4376 32.4346 52.537L33.6848 54.7009C33.7419 54.8002 33.8242 54.8828 33.9235 54.9401C34.0227 54.9974 34.1352 55.0276 34.2498 55.0275H36.7502C36.8648 55.0276 36.9774 54.9974 37.0766 54.9401C37.1758 54.8828 37.2581 54.8002 37.3152 54.7009L38.5654 52.537C38.6226 52.4376 38.6526 52.325 38.6526 52.2104C38.6526 52.0957 38.6226 51.9831 38.5654 51.8838L37.3152 49.7178C37.2575 49.6191 37.1751 49.5372 37.0759 49.4803C36.9768 49.4234 36.8645 49.3933 36.7502 49.3932Z" fill="#407BFF"/>
<path opacity="0.5" d="M36.7502 49.3932H34.2498C34.1355 49.3933 34.0232 49.4234 33.9241 49.4803C33.825 49.5372 33.7425 49.6191 33.6848 49.7178L32.4346 51.8838C32.3775 51.9831 32.3474 52.0957 32.3474 52.2104C32.3474 52.325 32.3775 52.4376 32.4346 52.537L33.6848 54.7009C33.7419 54.8002 33.8242 54.8828 33.9235 54.9401C34.0227 54.9974 34.1352 55.0276 34.2498 55.0275H36.7502C36.8648 55.0276 36.9774 54.9974 37.0766 54.9401C37.1758 54.8828 37.2581 54.8002 37.3152 54.7009L38.5654 52.537C38.6226 52.4376 38.6526 52.325 38.6526 52.2104C38.6526 52.0957 38.6226 51.9831 38.5654 51.8838L37.3152 49.7178C37.2575 49.6191 37.1751 49.5372 37.0759 49.4803C36.9768 49.4234 36.8645 49.3933 36.7502 49.3932Z" fill="white"/>
<path d="M20.7441 42.216L20.6018 42.0737L21.8039 40.8715L21.9462 41.0138L20.7441 42.216ZM22.8137 40.1462L22.6715 40.004L25.1839 37.4914L25.3261 37.6316L22.8137 40.1462Z" fill="#407BFF"/>
<path opacity="0.5" d="M20.7441 42.216L20.6018 42.0737L21.8039 40.8715L21.9462 41.0138L20.7441 42.216ZM22.8137 40.1462L22.6715 40.004L25.1839 37.4914L25.3261 37.6316L22.8137 40.1462Z" fill="white"/>
<path d="M52.5 56.7449V47.6763L49.695 46.7967C49.5949 46.5282 49.4847 46.2638 49.3685 45.9953L50.7329 43.3905L44.3216 36.9788L41.717 38.3453C41.4545 38.2271 41.192 38.1169 40.9156 38.0147L40.036 35.2096H30.962L30.0844 38.0147C29.814 38.1169 29.5515 38.2271 29.283 38.3453L26.6784 36.9788L20.2671 43.3905L21.6335 45.9953C21.5153 46.2577 21.4051 46.5202 21.3049 46.7967L18.5 47.6763V56.7449L21.3049 57.6225C21.4071 57.891 21.5173 58.1554 21.6335 58.4239L20.2671 61.0287L26.6784 67.4404L29.283 66.0739C29.5435 66.1921 29.806 66.3023 30.0844 66.4045L30.962 69.2096H40.03L40.9095 66.4045C41.178 66.3023 41.4405 66.1921 41.711 66.0739L44.3156 67.4404L50.7269 61.0287L49.3605 58.4239C49.4767 58.1635 49.5889 57.899 49.689 57.6225L52.5 56.7449ZM42.2479 52.2086C42.2479 53.5433 41.8521 54.848 41.1107 55.9578C40.3692 57.0675 39.3153 57.9325 38.0823 58.4432C36.8493 58.954 35.4925 59.0876 34.1835 58.8272C32.8746 58.5668 31.6722 57.9241 30.7285 56.9804C29.7848 56.0366 29.1421 54.8342 28.8818 53.5251C28.6214 52.2161 28.755 50.8592 29.2657 49.6261C29.7765 48.393 30.6414 47.3391 31.7511 46.5976C32.8608 45.8561 34.1654 45.4603 35.5 45.4603C37.2895 45.4608 39.0055 46.172 40.2709 47.4374C41.5363 48.7028 42.2474 50.419 42.2479 52.2086Z" fill="#407BFF"/>
<path opacity="0.5" d="M52.5 56.7449V47.6763L49.695 46.7967C49.5949 46.5282 49.4847 46.2638 49.3685 45.9953L50.7329 43.3905L44.3216 36.9788L41.717 38.3453C41.4545 38.2271 41.192 38.1169 40.9156 38.0147L40.036 35.2096H30.962L30.0844 38.0147C29.814 38.1169 29.5515 38.2271 29.283 38.3453L26.6784 36.9788L20.2671 43.3905L21.6335 45.9953C21.5153 46.2577 21.4051 46.5202 21.3049 46.7967L18.5 47.6763V56.7449L21.3049 57.6225C21.4071 57.891 21.5173 58.1554 21.6335 58.4239L20.2671 61.0287L26.6784 67.4404L29.283 66.0739C29.5435 66.1921 29.806 66.3023 30.0844 66.4045L30.962 69.2096H40.03L40.9095 66.4045C41.178 66.3023 41.4405 66.1921 41.711 66.0739L44.3156 67.4404L50.7269 61.0287L49.3605 58.4239C49.4767 58.1635 49.5889 57.899 49.689 57.6225L52.5 56.7449ZM42.2479 52.2086C42.2479 53.5433 41.8521 54.848 41.1107 55.9578C40.3692 57.0675 39.3153 57.9325 38.0823 58.4432C36.8493 58.954 35.4925 59.0876 34.1835 58.8272C32.8746 58.5668 31.6722 57.9241 30.7285 56.9804C29.7848 56.0366 29.1421 54.8342 28.8818 53.5251C28.6214 52.2161 28.755 50.8592 29.2657 49.6261C29.7765 48.393 30.6414 47.3391 31.7511 46.5976C32.8608 45.8561 34.1654 45.4603 35.5 45.4603C37.2895 45.4608 39.0055 46.172 40.2709 47.4374C41.5363 48.7028 42.2474 50.419 42.2479 52.2086Z" fill="white"/>
<path d="M39.5934 68.6606H31.4089C31.3981 68.6606 31.3875 68.6571 31.3789 68.6506C31.3702 68.6441 31.3639 68.635 31.3608 68.6246L30.5594 66.096C30.5554 66.0832 30.5567 66.0694 30.5629 66.0576C30.5691 66.0457 30.5797 66.0368 30.5925 66.0329C30.6052 66.0289 30.6191 66.0301 30.6309 66.0363C30.6427 66.0425 30.6516 66.0532 30.6556 66.0659L31.435 68.5605H39.5453L40.3788 65.9277C40.3811 65.9204 40.3851 65.9138 40.3902 65.9083C40.3954 65.9028 40.4018 65.8984 40.4088 65.8956L40.6833 65.7934C40.9157 65.7053 41.1621 65.6031 41.4406 65.4788L41.7071 65.3586C41.7193 65.3533 41.7332 65.3531 41.7456 65.358C41.758 65.3628 41.7679 65.3724 41.7732 65.3847C41.7785 65.3969 41.7788 65.4107 41.7739 65.4231C41.769 65.4355 41.7594 65.4455 41.7472 65.4508L41.4807 65.569C41.2022 65.6952 40.9518 65.7974 40.7194 65.8856L40.4669 65.9818L39.6415 68.6246C39.6382 68.6348 39.6318 68.6438 39.6231 68.6502C39.6145 68.6567 39.6041 68.6603 39.5934 68.6606ZM44.2015 66.7512C44.1882 66.7507 44.1755 66.7458 44.1654 66.7371C44.1606 66.7325 44.1567 66.7269 44.1541 66.7207C44.1515 66.7145 44.1501 66.7078 44.1501 66.7011C44.1501 66.6943 44.1515 66.6877 44.1541 66.6815C44.1567 66.6753 44.1606 66.6697 44.1654 66.665L49.9276 60.9045L48.6474 58.46C48.6438 58.4532 48.642 58.4457 48.642 58.438C48.642 58.4303 48.6438 58.4228 48.6474 58.416L48.7676 58.1495C48.8878 57.879 48.99 57.6305 49.0801 57.3941L49.1823 57.1196C49.1851 57.1126 49.1895 57.1062 49.195 57.101C49.2005 57.0958 49.2071 57.0919 49.2144 57.0895L51.849 56.266V48.1613L49.2444 47.3478C49.2372 47.3467 49.2303 47.3441 49.2243 47.3401C49.2182 47.3362 49.213 47.3309 49.2092 47.3247C49.2053 47.3186 49.2029 47.3116 49.202 47.3044C49.2011 47.2972 49.2018 47.2899 49.204 47.283C49.2062 47.2761 49.2099 47.2697 49.2148 47.2644C49.2197 47.259 49.2257 47.2548 49.2324 47.252C49.2391 47.2492 49.2464 47.2479 49.2536 47.2482C49.2609 47.2484 49.268 47.2503 49.2745 47.2536L51.9071 48.0751C51.917 48.0787 51.9255 48.0853 51.9316 48.0939C51.9377 48.1025 51.941 48.1127 51.9412 48.1232V56.3081C51.9413 56.3187 51.9381 56.3291 51.932 56.3377C51.9258 56.3463 51.9171 56.3528 51.9071 56.3562L49.2684 57.1777L49.1743 57.4302C49.0841 57.6686 48.9739 57.9171 48.8577 58.1916L48.7495 58.436L50.0338 60.8905C50.0401 60.8988 50.0436 60.909 50.0436 60.9195C50.0436 60.93 50.0401 60.9402 50.0338 60.9486L44.2476 66.7371C44.2353 66.7473 44.2195 66.7523 44.2035 66.7512H44.2015ZM26.7968 66.7512C26.7835 66.7507 26.7708 66.7458 26.7607 66.7371L20.9745 60.9486C20.9687 60.94 20.9657 60.9299 20.9657 60.9195C20.9657 60.9092 20.9687 60.8991 20.9745 60.8905L22.2708 58.414C22.2772 58.4023 22.2878 58.3935 22.3005 58.3894C22.3131 58.3853 22.3269 58.3862 22.3389 58.3919C22.3447 58.3951 22.3498 58.3993 22.354 58.4045C22.3581 58.4096 22.3612 58.4155 22.3631 58.4218C22.365 58.4281 22.3656 58.4348 22.3648 58.4413C22.3641 58.4479 22.3621 58.4543 22.359 58.46L21.0807 60.9045L26.8409 66.665C26.8457 66.6697 26.8496 66.6753 26.8522 66.6815C26.8548 66.6877 26.8562 66.6943 26.8562 66.7011C26.8562 66.7078 26.8548 66.7145 26.8522 66.7207C26.8496 66.7269 26.8457 66.7325 26.8409 66.7371C26.8352 66.7422 26.8285 66.7461 26.8213 66.7485C26.814 66.7509 26.8064 66.7518 26.7988 66.7512H26.7968ZM30.2028 65.8515H30.1848C29.9844 65.7734 29.766 65.6812 29.5236 65.573C29.5165 65.5712 29.5099 65.5679 29.5042 65.5633C29.4985 65.5587 29.4939 65.553 29.4907 65.5464C29.4875 65.5398 29.4858 65.5326 29.4856 65.5253C29.4855 65.518 29.487 65.5107 29.4899 65.5041C29.4929 65.4974 29.4973 65.4914 29.5028 65.4866C29.5083 65.4818 29.5148 65.4783 29.5219 65.4763C29.5289 65.4742 29.5363 65.4738 29.5435 65.4749C29.5507 65.4761 29.5576 65.4788 29.5637 65.4828C29.8041 65.589 30.0185 65.6832 30.2208 65.7573C30.2271 65.7598 30.2328 65.7634 30.2376 65.7681C30.2424 65.7727 30.2462 65.7783 30.2488 65.7845C30.2514 65.7906 30.2528 65.7973 30.2528 65.804C30.2528 65.8107 30.2515 65.8173 30.2489 65.8235C30.2447 65.8329 30.2375 65.8407 30.2285 65.8458C30.2195 65.8508 30.2091 65.8528 30.1988 65.8515H30.2028ZM35.5042 59.6121C33.5405 59.6084 31.6586 58.8257 30.2714 57.4358C28.8842 56.0459 28.1051 54.1624 28.1051 52.1986C28.1051 52.1853 28.1104 52.1726 28.1198 52.1632C28.1292 52.1538 28.1419 52.1485 28.1552 52.1485C28.1685 52.1485 28.1812 52.1538 28.1906 52.1632C28.2 52.1726 28.2053 52.1853 28.2053 52.1986C28.2053 53.6423 28.6333 55.0535 29.4354 56.2539C30.2374 57.4543 31.3773 58.3898 32.711 58.9423C34.0447 59.4948 35.5123 59.6393 36.9281 59.3577C38.3439 59.076 39.6445 58.3808 40.6652 57.36C41.686 56.3392 42.3812 55.0386 42.6628 53.6226C42.9444 52.2067 42.7999 50.7391 42.2474 49.4053C41.695 48.0715 40.7595 46.9315 39.5592 46.1295C38.3589 45.3274 36.9477 44.8993 35.5042 44.8993C35.4909 44.8993 35.4781 44.894 35.4687 44.8846C35.4593 44.8752 35.4541 44.8625 35.4541 44.8492C35.4541 44.8359 35.4593 44.8232 35.4687 44.8138C35.4781 44.8044 35.4909 44.7991 35.5042 44.7991C37.467 44.7991 39.3495 45.5789 40.7375 46.967C42.1255 48.355 42.9052 50.2376 42.9052 52.2006C42.9052 54.1636 42.1255 56.0462 40.7375 57.4343C39.3495 58.8223 37.467 59.6021 35.5042 59.6021V59.6121ZM21.8801 57.4622C21.8697 57.4618 21.8596 57.4584 21.851 57.4523C21.8425 57.4463 21.8359 57.4379 21.832 57.4282L21.7379 57.1777L19.0912 56.3502C19.0812 56.3468 19.0725 56.3403 19.0663 56.3317C19.0602 56.323 19.057 56.3127 19.0571 56.3021V48.1172C19.0573 48.1067 19.0606 48.0964 19.0667 48.0879C19.0728 48.0793 19.0813 48.0727 19.0912 48.0691L21.6217 47.2797C21.6344 47.2758 21.6482 47.2769 21.6601 47.2829C21.672 47.2889 21.6812 47.2992 21.6858 47.3117C21.6891 47.3247 21.6874 47.3385 21.6811 47.3503C21.6748 47.3622 21.6643 47.3713 21.6517 47.3758L19.1513 48.1613V56.2721L21.7859 57.0956C21.793 57.0978 21.7994 57.1017 21.8046 57.1069C21.8099 57.1121 21.8138 57.1186 21.816 57.1256L21.9202 57.4001C21.9248 57.4123 21.9245 57.4259 21.9192 57.4379C21.914 57.4499 21.9043 57.4593 21.8921 57.4642L21.8801 57.4622ZM21.8801 47.0432H21.8621C21.8498 47.0379 21.8401 47.0281 21.8348 47.0158C21.8296 47.0035 21.8293 46.9896 21.834 46.9771C21.9302 46.7206 22.0344 46.4762 22.1446 46.2277C22.1502 46.2158 22.1603 46.2066 22.1727 46.2021C22.1851 46.1976 22.1987 46.1982 22.2107 46.2037C22.2168 46.2063 22.2223 46.2101 22.2268 46.2148C22.2314 46.2196 22.2351 46.2252 22.2375 46.2313C22.2399 46.2375 22.2411 46.244 22.241 46.2506C22.2408 46.2572 22.2394 46.2638 22.2367 46.2698C22.1245 46.5143 22.0244 46.7587 21.9282 47.0132C21.9247 47.0241 21.9177 47.0335 21.9083 47.04C21.8988 47.0465 21.8875 47.0498 21.8761 47.0492L21.8801 47.0432ZM48.7656 45.8991H48.7415C48.7357 45.896 48.7306 45.8917 48.7264 45.8866C48.7223 45.8815 48.7192 45.8756 48.7173 45.8692C48.7155 45.8629 48.7149 45.8563 48.7156 45.8497C48.7163 45.8432 48.7183 45.8368 48.7215 45.831L49.9236 43.5168L48.9619 42.551C48.9562 42.5467 48.9514 42.5412 48.948 42.5349C48.9445 42.5286 48.9425 42.5217 48.942 42.5145C48.9415 42.5073 48.9425 42.5002 48.945 42.4934C48.9475 42.4867 48.9515 42.4806 48.9565 42.4755C48.9616 42.4705 48.9677 42.4665 48.9744 42.464C48.9812 42.4615 48.9884 42.4605 48.9955 42.461C49.0027 42.4615 49.0096 42.4635 49.0159 42.467C49.0222 42.4704 49.0277 42.4752 49.032 42.4809L50.0338 43.4827C50.0401 43.4911 50.0436 43.5013 50.0436 43.5118C50.0436 43.5223 50.0401 43.5325 50.0338 43.5408L48.8056 45.8871C48.8004 45.8935 48.7936 45.8986 48.7859 45.9017C48.7782 45.9049 48.7698 45.906 48.7616 45.9051L48.7656 45.8991ZM21.0106 43.5529C20.9972 43.553 20.9843 43.548 20.9745 43.5388C20.9658 43.5292 20.961 43.5167 20.961 43.5038C20.961 43.4908 20.9658 43.4783 20.9745 43.4687L26.7547 37.6842C26.7629 37.6775 26.7732 37.6738 26.7838 37.6738C26.7943 37.6738 26.8046 37.6775 26.8128 37.6842L29.2671 38.9685L29.5116 38.8603C29.748 38.7541 29.9644 38.6599 30.1727 38.5818C30.1789 38.5792 30.1856 38.5779 30.1922 38.5779C30.1989 38.5779 30.2056 38.5792 30.2117 38.5819C30.2179 38.5845 30.2235 38.5883 30.2281 38.5931C30.2328 38.5979 30.2364 38.6036 30.2389 38.6098C30.2434 38.6223 30.2427 38.6361 30.2371 38.6481C30.2315 38.6601 30.2213 38.6694 30.2088 38.674C30.0085 38.7561 29.7881 38.8463 29.5537 38.9505L29.2872 39.0707C29.2802 39.0737 29.2727 39.0752 29.2651 39.0752C29.2576 39.0752 29.2501 39.0737 29.2431 39.0707L26.7988 37.7903L21.0466 43.5529C21.0351 43.5575 21.0221 43.5575 21.0106 43.5529ZM48.1625 41.7255C48.1491 41.7257 48.1362 41.7206 48.1264 41.7115L44.1855 37.7803L41.7412 39.0607C41.7347 39.0642 41.7275 39.066 41.7201 39.066C41.7128 39.066 41.7055 39.0642 41.6991 39.0607L41.4326 38.9404C41.1581 38.8182 40.9097 38.716 40.6753 38.6259L40.4008 38.5237C40.3938 38.5209 40.3874 38.5165 40.3822 38.511C40.377 38.5054 40.3731 38.4988 40.3708 38.4916L39.5473 35.8588H31.445L30.7357 38.125C30.7339 38.1312 30.7309 38.1371 30.7267 38.1422C30.7226 38.1472 30.7174 38.1514 30.7116 38.1544C30.7058 38.1574 30.6994 38.1592 30.6929 38.1596C30.6864 38.1601 30.6798 38.1592 30.6736 38.157C30.6612 38.1529 30.651 38.1441 30.645 38.1325C30.639 38.1209 30.6378 38.1074 30.6416 38.0949L31.3629 35.7947C31.3662 35.7847 31.3727 35.776 31.3814 35.7699C31.39 35.7637 31.4003 35.7605 31.4109 35.7606H39.5954C39.6059 35.7608 39.6161 35.7641 39.6247 35.7702C39.6333 35.7763 39.6398 35.7848 39.6435 35.7947L40.4689 38.4395L40.7214 38.5357C40.9578 38.6239 41.2062 38.7361 41.4827 38.8523L41.7271 38.9605L44.1855 37.6761C44.1938 37.6698 44.204 37.6664 44.2145 37.6664C44.225 37.6664 44.2352 37.6698 44.2436 37.6761L48.1926 41.6434C48.1974 41.648 48.2013 41.6536 48.2039 41.6598C48.2065 41.666 48.2079 41.6727 48.2079 41.6794C48.2079 41.6862 48.2065 41.6928 48.2039 41.699C48.2013 41.7052 48.1974 41.7108 48.1926 41.7155C48.1843 41.7233 48.1738 41.7283 48.1625 41.7295V41.7255Z" fill="#CCE5F7"/>
<path d="M67.2993 69.9505L68.9057 70.1155L69.5187 68.9008L67.5903 68.6108L67.2993 69.9505Z" fill="#1919D3"/>
<path d="M72.5258 75.9612L73.0994 72.8522C73.166 72.4915 73.3703 72.1725 73.6675 71.965C73.9648 71.7575 74.3307 71.6785 74.685 71.7454L79.5 72.6639C79.2127 71.6842 78.7018 70.7876 78.0092 70.0474C77.3165 69.3073 76.4617 68.7445 75.5147 68.4052C74.5676 68.0659 73.5551 67.9596 72.56 68.0951C71.5648 68.2305 70.6153 68.6038 69.789 69.1845L47.9438 56.0165C48.0573 54.6243 47.726 53.232 46.9992 52.0471C46.2725 50.8623 45.1892 49.9484 43.911 49.4415C42.6327 48.9347 41.2278 48.8621 39.9057 49.2346C38.5836 49.6071 37.4151 50.4047 36.5744 51.5086L41.3894 52.4271C41.7431 52.4964 42.0555 52.7053 42.2587 53.0081C42.4619 53.3109 42.5393 53.6833 42.4742 54.044L41.9006 57.1551C41.8335 57.5155 41.6291 57.8342 41.332 58.0416C41.0349 58.249 40.6693 58.3282 40.315 58.2619L35.5 57.3413C35.7885 58.327 36.3032 59.2286 37.0017 59.9715C37.7001 60.7145 38.5621 61.2775 39.5165 61.6139C40.4709 61.9504 41.4902 62.0507 42.4901 61.9065C43.4901 61.7623 44.442 61.3777 45.2672 60.7847L67.0687 73.9273C66.9429 75.3225 67.2646 76.7216 67.9853 77.9149C68.7061 79.1083 69.7873 80.0316 71.0667 80.5465C72.3461 81.0614 73.755 81.1401 75.082 80.771C76.4091 80.4018 77.583 79.6045 78.4277 78.4987L73.6127 77.5781C73.2586 77.5092 72.9457 77.3006 72.7421 76.9977C72.5385 76.6948 72.4607 76.3222 72.5258 75.9612Z" fill="#407BFF"/>
<path d="M67.0849 69.1045L49.373 58.4284C49.0511 58.2343 48.6356 58.3428 48.445 58.6707L47.7231 59.9128C47.5325 60.2407 47.6391 60.6639 47.961 60.858L65.6729 71.5341C65.9949 71.7281 66.4104 71.6196 66.601 71.2917L67.3228 70.0496C67.5134 69.7217 67.4069 69.2986 67.0849 69.1045Z" fill="#407BFF"/>
<path opacity="0.2" d="M67.0849 69.1045L49.373 58.4284C49.0511 58.2343 48.6356 58.3428 48.445 58.6707L47.7231 59.9128C47.5325 60.2407 47.6391 60.6639 47.961 60.858L65.6729 71.5341C65.9949 71.7281 66.4104 71.6196 66.601 71.2917L67.3228 70.0496C67.5134 69.7217 67.4069 69.2986 67.0849 69.1045Z" fill="white"/>
<path d="M68.063 30.2324C66.6895 32.3237 65.7662 34.6211 65.2738 36.9905L61.5 37.3456V44.6541L65.2742 45.0099C65.7655 47.3785 66.6895 49.6759 68.063 51.7679L65.6524 54.6794L70.8205 59.8474L73.732 57.4372C75.8237 58.8103 78.1208 59.7342 80.4902 60.2259L80.8457 64H88.1543L88.5098 60.2259C90.8791 59.7336 93.1763 58.8099 95.268 57.4368L98.1795 59.847L103.348 54.679L100.937 51.7676C102.31 49.6759 103.234 47.3789 103.726 45.0095L107.499 44.6541L107.5 37.3456L103.726 36.9898C103.234 34.6208 102.31 32.3237 100.937 30.2321L103.348 27.3206L98.1795 22.1527L95.268 24.5629C93.1763 23.1894 90.8788 22.2654 88.5098 21.7738L88.154 18H80.8454L80.4899 21.7741C78.1205 22.2661 75.8234 23.1894 73.732 24.5629L70.8205 22.1523L65.6524 27.3203L68.063 30.2317V30.2324ZM91.3082 34.5249C95.0678 38.2844 95.0682 44.3807 91.3082 48.1406C87.5479 51.9008 81.4515 51.9002 77.6918 48.1406C73.9318 44.3807 73.9318 38.2848 77.6918 34.5245C81.4518 30.7646 87.5475 30.7646 91.3078 34.5245L91.3082 34.5249Z" fill="#00308E"/>
</svg>
