<svg width="125" height="100" viewBox="0 0 125 100" fill="none" xmlns="http://www.w3.org/2000/svg">
<rect width="125" height="100" fill="white"/>
<path d="M88.4757 40.9534C88.7501 40.5936 89.0043 40.2192 89.2373 39.8319L89.415 39.5369C89.5924 39.2311 89.7478 38.9257 89.8923 38.6206C89.9696 38.4517 90.0522 38.2773 90.1185 38.1087C90.1848 37.94 90.2164 37.8962 90.2518 37.793L90.3528 37.4994C90.5551 36.9456 90.7162 36.3777 90.8349 35.8002L90.8974 35.502C90.9962 34.9499 91.0551 34.3913 91.0736 33.8303L91.0764 33.5495C91.0889 33.0015 91.0547 32.4532 90.9741 31.9101C90.9657 31.8076 90.9466 31.7162 90.9332 31.6301C90.8458 31.0797 90.7129 30.5369 90.5357 30.0072C90.5088 29.9162 90.477 29.8267 90.4403 29.7391C90.2445 29.1904 89.9981 28.6602 89.7043 28.1551C89.6368 28.0917 89.6008 27.9844 89.5489 27.8936C89.3476 27.5657 89.1225 27.2525 88.8754 26.9563C88.7516 26.8399 88.6596 26.6905 88.5408 26.5578C88.4219 26.4252 88.4057 26.4309 88.3381 26.3674C88.2553 26.2791 88.1669 26.196 88.0735 26.1187C87.8666 25.9033 87.6486 25.6985 87.4204 25.505C87.1874 25.3173 86.9447 25.1418 86.6932 24.9792C86.6031 24.8945 86.4867 24.8482 86.3807 24.78C86.2747 24.7119 86.2137 24.6861 86.1411 24.6389C86.0685 24.5917 85.8352 24.4774 85.6797 24.4048C85.3353 24.2301 84.9796 24.0783 84.615 23.9503C84.5099 23.9145 84.4158 23.8785 84.311 23.8535C83.7425 23.6609 83.1571 23.5222 82.5628 23.4392L82.2716 23.407C81.7145 23.3439 81.1533 23.3294 80.5944 23.3638C80.4974 23.3631 80.4005 23.3704 80.3048 23.3856C79.751 23.4186 79.2017 23.4996 78.6633 23.6279L78.3749 23.6928C77.8319 23.8384 77.2993 24.0183 76.7803 24.2312L76.51 24.3552C75.9596 24.586 75.4291 24.8598 74.9235 25.1741L74.6542 25.3305L74.3749 25.5194L73.9135 25.8523C73.6345 26.0521 73.3671 26.2732 73.1052 26.4996L72.8606 26.7527C72.5522 27.0718 72.2385 27.3964 71.9194 27.7265L71.6323 28.0237L71.5738 28.0842L71.3573 28.3637C71.2563 28.4683 71.1606 28.5673 71.0987 28.6981C70.8406 29.054 70.5994 29.4258 70.3855 29.7917L70.2134 30.092C70.0207 30.4358 69.8449 30.7956 69.696 31.1386L69.4658 31.6992L69.4148 31.8297L69.3138 32.1233C69.1297 32.6753 68.9832 33.239 68.8752 33.8109L68.8286 34.0925C68.74 34.6454 68.6884 35.2037 68.6744 35.7639L68.6715 36.0447C68.6756 36.5967 68.7208 37.148 68.8069 37.6942C68.817 37.7865 68.8324 37.8781 68.8532 37.9687C68.9476 38.5147 69.0895 39.0521 69.2776 39.5749C69.308 39.6769 69.3433 39.7626 69.3733 39.8538C69.5842 40.3998 69.8451 40.9261 70.1528 41.4261C70.2045 41.5183 70.262 41.6074 70.3248 41.6927C70.4265 41.8583 70.5372 42.0183 70.6563 42.1722C70.759 42.3191 70.871 42.4594 70.9916 42.5923C71.1713 42.8152 71.3659 43.0261 71.574 43.2236C71.6606 43.3154 71.7527 43.402 71.8499 43.4828C71.9995 43.6391 72.1573 43.7874 72.3228 43.9272C72.4896 44.0639 72.6633 44.1921 72.8433 44.3113C72.9334 44.3959 73.0235 44.4806 73.1505 44.5159C73.3906 44.6729 73.6398 44.8159 73.8968 44.9442C74.0582 45.0329 74.2192 45.1108 74.3856 45.1832C74.552 45.2555 74.7516 45.3381 74.9343 45.4047C75.1169 45.4714 75.1282 45.482 75.2277 45.5125C75.7915 45.7062 76.3711 45.8504 76.9599 45.9433C77.0576 45.9641 77.1569 45.9767 77.2567 45.9808C77.817 46.0521 78.382 46.0773 78.9458 46.0562L79.2248 46.0454C79.7815 46.0173 80.3345 45.9434 80.8779 45.8245L81.1556 45.7705C81.7092 45.6447 82.2518 45.4772 82.7787 45.2694L83.0605 45.1668C83.6082 44.9381 84.1385 44.6717 84.6477 44.3695L84.9114 44.2078L85.0515 44.1295L85.5404 43.8015C85.8596 43.577 86.167 43.3368 86.4616 43.0818L86.7009 42.8342C86.9986 42.5261 87.3408 42.2387 87.6155 41.8879C87.7185 41.7924 87.8161 41.6913 87.9079 41.5853C87.995 41.5063 88.0767 41.4217 88.1525 41.3322L88.2164 41.2662L88.4757 40.9534ZM87.7791 39.9734C87.6211 40.1924 87.4579 40.417 87.278 40.6364C87.0457 40.9042 86.799 41.1595 86.5389 41.4012L86.3969 40.0919L87.7566 39.9522L87.7791 39.9734ZM76.4475 44.706C75.9863 44.5944 75.5336 44.4498 75.0932 44.2732L74.9797 43.1902L76.6343 43.0232L76.8132 44.6612L76.4529 44.7005L76.4475 44.706ZM72.9922 43.0234L72.8212 41.4663L74.4815 41.3047L74.6657 42.9371L73.0876 43.1025L72.9922 43.0234ZM70.7008 40.1143L70.663 39.7533L72.3067 39.5865L72.4909 41.219L71.3933 41.3319C71.1344 40.9477 70.9066 40.5441 70.7121 40.1249L70.7008 40.1143ZM70.6985 31.7132C70.8739 31.2954 71.0762 30.8894 71.3041 30.4974L71.4198 31.656L70.6879 31.7242L70.6985 31.7132ZM72.4486 28.7908C72.6401 28.5927 72.8315 28.3946 73.0229 28.1966L73.1715 29.5435L71.8171 29.6777C72.0273 29.3712 72.2452 29.0791 72.4709 28.8011L72.4486 28.7908ZM83.7758 24.8519C84.0022 24.9178 84.2125 24.9893 84.423 25.0716L84.5774 26.4346L82.9171 26.5963L82.7383 24.9584L83.7758 24.8519ZM86.7303 28.1532L85.0757 28.3201L84.8968 26.6822L86.5514 26.5153L86.7303 28.1532ZM88.7769 28.8479L88.8719 29.8612L87.2173 30.0281L87.0328 28.3849L88.409 28.2503C88.5798 28.4738 88.6949 28.666 88.8154 28.8526L88.7769 28.8479ZM88.2496 39.1976L88.1001 38.0073L88.9136 37.9214C88.7316 38.366 88.519 38.7976 88.2774 39.2133L88.2496 39.1976ZM86.1716 41.77L84.6261 41.924L84.4867 40.3231L86.1413 40.1562L86.3177 41.7078L86.1716 41.77ZM71.5059 30.0886L71.6069 29.9841L73.1687 29.8243L73.3532 31.4675L71.6929 31.6292L71.5284 30.1098L71.5059 30.0886ZM73.2923 27.8512L74.8816 27.6963L75.0604 29.3342L73.4001 29.4959L73.2829 27.9054L73.2923 27.8512ZM77.4275 32.9654L75.7729 33.1323L75.5887 31.4999L77.2487 31.3275L77.4275 32.9654ZM77.533 31.3112L79.1929 31.1388L79.3718 32.7767L77.7172 32.9436L77.533 31.3112ZM77.4632 33.2509L77.642 34.8888L75.9874 35.0557L75.8085 33.4178L77.4632 33.2509ZM77.7472 33.2238L79.4018 33.0568L79.586 34.6892L77.9639 34.8448L77.7472 33.2238ZM79.6859 33.0298L81.3461 32.8681L81.5303 34.5005L79.8757 34.6675L79.6859 33.0298ZM79.6761 34.9629L79.855 36.6008L78.1947 36.7624L78.0105 35.13L79.6761 34.9629ZM79.9545 34.9305L81.6148 34.7688L81.8052 36.4281L80.1506 36.5951L79.9545 34.9305ZM81.8988 34.7418L83.5591 34.5801L83.7433 36.2125L82.083 36.3742L81.8988 34.7418ZM81.8346 36.6867L82.0135 38.3246L80.3532 38.4863L80.169 36.8539L81.8346 36.6867ZM82.113 36.6543L83.7733 36.4927L83.9575 38.1251L82.2972 38.2868L82.113 36.6543ZM84.0517 36.4603L85.712 36.2987L85.9018 37.9364L84.2359 38.0927L84.0517 36.4603ZM84.0217 36.1801L83.8375 34.5477L85.5031 34.3806L85.6819 36.0185L84.0217 36.1801ZM83.8074 34.2676L83.6286 32.6296L85.2889 32.468L85.4677 34.1059L83.8074 34.2676ZM83.5234 34.2946L81.8688 34.4616L81.6843 32.8184L83.3446 32.6567L83.5234 34.2946ZM81.6599 32.5435L81.4701 30.9058L83.1303 30.7442L83.3145 32.3766L81.6599 32.5435ZM81.3702 32.5653L79.7103 32.7377L79.5261 31.1053L81.1861 30.9329L81.3702 32.5653ZM79.5067 30.8141L79.3225 29.1817L80.9771 29.0148L81.1613 30.6472L79.5067 30.8141ZM79.2174 30.8467L77.5571 31.0084L77.3729 29.376L79.0329 29.2035L79.2174 30.8467ZM77.2787 31.0407L75.6184 31.2024L75.4342 29.57L77.0942 29.3976L77.2787 31.0407ZM75.3344 31.2295L73.6638 31.4129L73.474 29.7752L75.1396 29.6081L75.3344 31.2295ZM75.3644 31.5097L75.5433 33.1476L73.8886 33.3145L73.7097 31.6766L75.3644 31.5097ZM75.5786 33.4222L75.7575 35.0601L74.1028 35.2271L73.924 33.5892L75.5786 33.4222ZM75.7931 35.3456L75.972 36.9835L74.3173 37.1505L74.1328 35.5073L75.7931 35.3456ZM76.0715 35.3132L77.7371 35.1461L77.916 36.784L76.2348 36.9784L76.0715 35.3132ZM77.9463 37.075L78.1252 38.7129L76.4649 38.8745L76.286 37.2366L77.9463 37.075ZM78.2247 37.0426L79.8903 36.8754L80.0692 38.5134L78.4089 38.675L78.2247 37.0426ZM80.0995 38.8043L80.2784 40.4422L78.6181 40.6039L78.4392 38.966L80.0995 38.8043ZM80.3779 38.772L82.0382 38.6103L82.2224 40.2427L80.5621 40.4044L80.3779 38.772ZM82.3166 38.5779L83.9769 38.4163L84.1667 40.054L82.5008 40.2103L82.3166 38.5779ZM84.2662 38.3837L85.9209 38.2168L86.1107 39.8544L84.4451 40.0216L84.2662 38.3837ZM85.9907 36.2771L87.6506 36.1047L87.8351 37.7478L86.1695 37.915L85.9907 36.2771ZM85.955 35.9916L85.7761 34.3537L87.4364 34.1921L87.6263 35.8298L85.955 35.9916ZM85.7464 34.0843L85.5619 32.4411L87.2222 32.2795L87.4293 33.9438L85.7464 34.0843ZM85.5375 32.1662L85.353 30.5231L87.0133 30.3614L87.1922 31.9993L85.5375 32.1662ZM85.2479 32.188L83.5986 32.3495L83.4197 30.7116L85.0744 30.5446L85.2479 32.188ZM83.3844 30.4369L83.2055 28.799L84.8601 28.632L85.0443 30.2645L83.3844 30.4369ZM83.0947 30.4587L81.44 30.6256L81.2559 28.9932L82.9105 28.8263L83.0947 30.4587ZM81.2312 28.7075L81.0523 27.0696L82.7069 26.9027L82.8911 28.5351L81.2312 28.7075ZM80.9471 28.7346L79.2868 28.8963L79.1027 27.2639L80.7573 27.0969L80.9471 28.7346ZM79.0085 28.9286L77.3482 29.0903L77.164 27.4579L78.8186 27.2909L79.0085 28.9286ZM77.0373 29.1341L75.377 29.2957L75.1871 27.658L76.8528 27.4909L77.0373 29.1341ZM73.4379 31.7466L73.6168 33.3845L71.9621 33.5515L71.7776 31.9083L73.4379 31.7466ZM73.6468 33.6647L73.831 35.2971L72.171 35.4696L71.9922 33.8317L73.6468 33.6647ZM73.861 35.5773L74.0455 37.2205L72.3852 37.3821L72.2064 35.7442L73.861 35.5773ZM74.0809 37.4952L74.2597 39.1331L72.5885 39.2949L72.404 37.6518L74.0809 37.4952ZM74.3592 37.4628L76.0195 37.3012L76.1759 38.9179L74.5212 39.0848L74.3592 37.4628ZM76.2341 39.2245L76.4129 40.8624L74.7473 41.0296L74.5685 39.3917L76.2341 39.2245ZM76.5125 39.1922L78.1727 39.0305L78.3516 40.6684L76.6913 40.8301L76.5125 39.1922ZM78.3816 40.9486L78.5661 42.5918L76.9005 42.7589L76.7217 41.121L78.3816 40.9486ZM78.6657 40.9215L80.3203 40.7546L80.5048 42.3978L78.8445 42.5594L78.6657 40.9215ZM80.599 40.733L82.2646 40.5658L82.4435 42.2038L80.7926 42.3112L80.599 40.733ZM82.5486 40.5388L84.2033 40.3718L84.3931 42.0095L82.7328 42.1712L82.5486 40.5388ZM86.2171 38.2326L87.8774 38.071L88.0487 39.6388L87.9902 39.6994L86.3847 39.86L86.2171 38.2326ZM89.1032 37.6586L88.1098 37.7749L87.9309 36.137L89.5912 35.9754L89.6065 36.1263C89.4683 36.6361 89.2942 37.1356 89.0857 37.6211L89.1032 37.6586ZM87.9115 35.8459L87.7326 34.2079L89.393 34.0463L89.5771 35.6787L87.9115 35.8459ZM87.7026 33.9278L87.5181 32.2846L89.1784 32.1229L89.3629 33.7661L87.7026 33.9278ZM87.4884 32.0152L87.3039 30.372L88.9642 30.2103L89.1431 31.8482L87.4884 32.0152ZM86.9846 30.1244L85.3299 30.2913L85.151 28.6534L86.8057 28.4865L86.9846 30.1244ZM84.837 28.4003L83.1714 28.5675L82.9925 26.9296L84.6472 26.7626L84.837 28.4003ZM82.6666 26.6443L81.001 26.8115L80.8221 25.1736L82.4824 25.0119L82.6666 26.6443ZM80.7279 26.8383L79.0633 27.0379L78.8844 25.4L80.539 25.233L80.7279 26.8383ZM78.7839 27.0379L77.1236 27.1995L76.9338 25.5618L78.5941 25.4001L78.7839 27.0379ZM76.6554 25.5942L76.8396 27.2266L75.1793 27.3882L75.047 26.4135C75.5077 26.1001 75.9922 25.8219 76.4962 25.5811L76.6554 25.5942ZM74.89 27.4208L73.6836 27.5575C74.04 27.2225 74.421 26.9138 74.8234 26.6338L74.89 27.4208ZM70.5809 32.0016L71.4601 31.9144L71.6725 33.5733L70.0832 33.7282C70.2031 33.1403 70.3695 32.5631 70.5809 32.0016ZM71.68 33.8323L71.8642 35.4647L70.2042 35.6371L70.0197 33.9939L71.68 33.8323ZM71.8942 35.7449L72.0731 37.3828L70.4184 37.5497L70.2342 35.9173L71.8942 35.7449ZM72.1031 37.663L72.2929 39.3006L70.6273 39.4678L70.4484 37.8299L72.1031 37.663ZM72.6013 39.5485L74.2616 39.3868L74.4458 41.0192L72.7858 41.1917L72.6013 39.5485ZM74.7598 41.2723L76.4201 41.1107L76.599 42.7486L74.9387 42.9102L74.7598 41.2723ZM76.9183 42.9962L78.573 42.8292L78.7575 44.4724L77.0972 44.6341L76.9183 42.9962ZM78.8627 42.8074L80.5283 42.6403L80.658 44.2845L78.9977 44.4462L78.8627 42.8074ZM80.807 42.6187L82.4669 42.4463L82.6458 44.0842L80.9911 44.2511L80.807 42.6187ZM82.7456 42.4247L84.4056 42.2522L84.5023 43.1304C83.9986 43.458 83.4706 43.7479 82.9226 43.9978L82.7456 42.4247ZM84.7762 42.947L84.6953 42.2304L85.8698 42.1268C85.5293 42.415 85.1692 42.6799 84.7919 42.9197L84.7762 42.947ZM89.7983 35.1831L89.6488 33.9927L89.9219 33.9659C89.9048 34.3724 89.8617 34.7772 89.7927 35.1778L89.7983 35.1831ZM89.8603 32.0288C89.9356 32.5742 89.9643 33.1245 89.9463 33.6739L89.6294 33.7016L89.4505 32.0637L89.8603 32.0288ZM89.8137 31.7435L89.4205 31.7835L89.2307 30.1458L89.3837 30.132C89.5726 30.6545 89.7146 31.192 89.8081 31.7382L89.8137 31.7435ZM89.2063 29.8709L89.1769 29.6123C89.2168 29.6924 89.2521 29.7747 89.2826 29.8586L89.2063 29.8709ZM88.2711 28.0263L87.0647 28.1629L86.8858 26.525C87.4108 26.9614 87.8748 27.4645 88.2655 28.021L88.2711 28.0263ZM86.5496 26.2616L84.8893 26.4232L84.7398 25.2329C85.3829 25.496 85.9894 25.84 86.5439 26.2563L86.5496 26.2616ZM82.9929 24.6727L82.7308 24.6993L82.7233 24.6293C82.8119 24.637 82.9 24.6497 82.9873 24.6674L82.9929 24.6727ZM80.748 24.5055C81.3118 24.4843 81.8767 24.5095 82.437 24.5808L82.4524 24.7317L80.7921 24.8934L80.748 24.5055ZM80.4637 24.5218L80.5137 24.9257L78.8534 25.0874L78.8171 24.7803C79.35 24.646 79.893 24.5525 80.4412 24.5006L80.4637 24.5218ZM78.5694 25.1145L77.3736 25.2402C77.755 25.0879 78.1465 24.9613 78.5456 24.8612L78.5694 25.1145ZM69.8586 35.0499L69.9202 35.6642L69.822 35.6769C69.8157 35.4655 69.826 35.2541 69.853 35.0446L69.8586 35.0499ZM69.927 37.6024C69.8425 37.0579 69.7992 36.5083 69.7973 35.9582L69.9502 35.9444L70.1504 37.5603L69.943 37.5859L69.927 37.6024ZM69.9733 37.8769L70.1644 37.857L70.3055 39.1339C70.1616 38.7238 70.0505 38.3035 69.9733 37.8769ZM71.6035 41.5924L72.5318 41.4989L72.6722 42.7542C72.2819 42.3988 71.9242 42.01 71.6035 41.5924ZM73.4389 43.3171L74.7169 43.1953L74.8201 44.1111C74.3279 43.8996 73.8565 43.643 73.4123 43.3446L73.4389 43.3171ZM77.5032 44.8476L78.8138 44.7143L78.836 44.9136C78.3829 44.9348 77.9284 44.9219 77.4766 44.8751L77.5032 44.8476ZM80.7734 44.6764C80.2299 44.7948 79.677 44.8687 79.1203 44.8973L79.1035 44.6925L80.7581 44.5256L80.7734 44.6764ZM81.0421 44.4985L81.6918 44.4265C81.4824 44.5014 81.2683 44.5632 81.0509 44.6117L81.0421 44.4985Z" fill="#407BFF"/>
<path d="M89.0557 42.0534C93.6101 36.4964 93.1974 28.6759 88.135 24.6327C83.0726 20.5895 75.2439 21.8205 70.6952 27.3829C69.8176 28.4493 69.1013 29.6359 68.5682 30.9063L68.5098 30.9668C68.3201 31.4169 68.1579 31.8779 68.024 32.3475C67.2145 34.9871 67.0905 37.7903 67.6631 40.5014C68.0184 42.9349 68.7896 45.3603 67.1447 48.5072L64.78 51.3874L66.5012 52.7632L68.8658 49.8831C71.632 47.6323 74.2127 47.8632 76.6836 47.7075C79.4813 47.6859 82.2227 46.974 84.6577 45.6369C85.0967 45.4097 85.5209 45.1563 85.9282 44.8781L85.9867 44.8176C87.1406 44.0477 88.1743 43.1167 89.0557 42.0534ZM68.5734 48.674L68.427 48.5365C69.6879 45.9314 69.2532 43.5913 69.0221 41.663C69.6902 42.8491 70.5814 43.9003 71.6474 44.7598C72.7197 45.6151 73.9494 46.2571 75.2674 46.6497C73.2694 46.8718 70.8617 46.9399 68.5734 48.674ZM84.9111 44.1743C84.7338 44.2911 84.5505 44.3918 84.3781 44.4923C80.4541 46.6629 75.7203 46.5924 72.3565 43.9039C68.9927 41.2154 67.9297 36.6577 69.2582 32.4154L69.4549 31.834C69.9535 30.4802 70.6756 29.2187 71.5922 28.0998C75.7553 23.0254 82.8471 21.8788 87.4322 25.5155C92.0173 29.1522 92.344 36.2725 88.1756 41.3524C87.2493 42.4781 86.1369 43.4412 84.8845 44.2018L84.9111 44.1743Z" fill="#00308E"/>
<path d="M66.9189 52.0449L65.445 50.8673C65.2181 50.6861 64.8868 50.7191 64.7049 50.9411L55.7276 61.9012C55.5457 62.1232 55.5822 62.4502 55.8091 62.6314L57.283 63.809C57.5099 63.9902 57.8412 63.9572 58.0231 63.7352L67.0004 52.775C67.1823 52.553 67.1458 52.2261 66.9189 52.0449Z" fill="#407BFF"/>
<path d="M94.9957 43.9994C95.2701 43.6395 95.5244 43.2651 95.7574 42.8778L95.935 42.5828C96.1124 42.277 96.2678 41.9717 96.4124 41.6665C96.4896 41.4977 96.5722 41.3233 96.6385 41.1546C96.7048 40.986 96.7364 40.9422 96.7718 40.8389L96.8728 40.5454C97.0751 39.9916 97.2362 39.4237 97.3549 38.8461L97.4174 38.548C97.5162 37.9959 97.5751 37.4372 97.5936 36.8762L97.5964 36.5954C97.6089 36.0475 97.5747 35.4991 97.4942 34.956C97.4857 34.8536 97.4666 34.7622 97.4532 34.676C97.3659 34.1257 97.2329 33.5829 97.0557 33.0532C97.0288 32.9622 96.997 32.8727 96.9603 32.785C96.7645 32.2364 96.5181 31.7062 96.2243 31.2011C96.1568 31.1376 96.1208 31.0303 96.0689 30.9395C95.8676 30.6117 95.6425 30.2984 95.3955 30.0023C95.2716 29.8859 95.1797 29.7365 95.0608 29.6038C94.9419 29.4711 94.9257 29.4768 94.8581 29.4133C94.7753 29.325 94.6869 29.242 94.5935 29.1647C94.3866 28.9493 94.1686 28.7444 93.9404 28.551C93.7074 28.3633 93.4647 28.1878 93.2132 28.0251C93.1231 27.9405 93.0068 27.8941 92.9007 27.826C92.7947 27.7578 92.7337 27.732 92.6611 27.6848C92.5886 27.6376 92.3552 27.5234 92.1998 27.4508C91.8553 27.2761 91.4996 27.1242 91.1351 26.9962C91.03 26.9604 90.9358 26.9245 90.831 26.8995C90.2625 26.7069 89.6771 26.5681 89.0829 26.4851L88.7916 26.453C88.2345 26.3898 87.6733 26.3754 87.1145 26.4098C87.0174 26.4091 86.9205 26.4164 86.8248 26.4316C86.2711 26.4645 85.7218 26.5456 85.1833 26.6738L84.8949 26.7388C84.352 26.8844 83.8193 27.0642 83.3003 27.2771L83.03 27.4011C82.4796 27.6319 81.9491 27.9058 81.4436 28.22L81.1742 28.3764L80.8949 28.5654L80.4335 28.8983C80.1545 29.098 79.8871 29.3192 79.6253 29.5456L79.3807 29.7987C79.0722 30.1178 78.7585 30.4424 78.4395 30.7725L78.1523 31.0696L78.0938 31.1301L77.8774 31.4097C77.7763 31.5142 77.6806 31.6132 77.6187 31.744C77.3606 32.1 77.1194 32.4718 76.9055 32.8376L76.7334 33.1379C76.5408 33.4818 76.365 33.8415 76.2161 34.1846L75.9858 34.7451L75.9348 34.8757L75.8338 35.1692C75.6497 35.7212 75.5032 36.285 75.3952 36.8568L75.3486 37.1385C75.26 37.6913 75.2085 38.2496 75.1944 38.8098L75.1915 39.0906C75.1956 39.6427 75.2408 40.194 75.3269 40.7402C75.337 40.8324 75.3525 40.9241 75.3732 41.0146C75.4676 41.5607 75.6096 42.0981 75.7976 42.6208C75.828 42.7228 75.8633 42.8085 75.8933 42.8997C76.1042 43.4457 76.3651 43.972 76.6728 44.472C76.7245 44.5643 76.782 44.6533 76.8448 44.7387C76.9465 44.9042 77.0572 45.0643 77.1763 45.2182C77.279 45.365 77.391 45.5053 77.5116 45.6383C77.6913 45.8612 77.8859 46.0721 78.094 46.2695C78.1806 46.3614 78.2727 46.4479 78.3699 46.5288C78.5195 46.685 78.6774 46.8334 78.8428 46.9732C79.0096 47.1098 79.1834 47.238 79.3633 47.3572C79.4534 47.4419 79.5435 47.5265 79.6705 47.5619C79.9106 47.7189 80.1598 47.8619 80.4168 47.9902C80.5782 48.0789 80.7393 48.1567 80.9057 48.2291C81.0721 48.3015 81.2716 48.384 81.4543 48.4507C81.6369 48.5174 81.6482 48.5279 81.7477 48.5584C82.3115 48.7521 82.8911 48.8963 83.4799 48.9893C83.5776 49.0101 83.677 49.0226 83.7767 49.0267C84.3371 49.0981 84.902 49.1233 85.4658 49.1021L85.7448 49.0913C86.3015 49.0633 86.8545 48.9894 87.3979 48.8704L87.6757 48.8165C88.2292 48.6907 88.7719 48.5232 89.2987 48.3154L89.5806 48.2128C90.1282 47.9841 90.6586 47.7177 91.1677 47.4154L91.4314 47.2537L91.5715 47.1755L92.0604 46.8474C92.3796 46.623 92.687 46.3828 92.9816 46.1278L93.2209 45.8802C93.5187 45.5721 93.8609 45.2847 94.1355 44.9338C94.2385 44.8383 94.3361 44.7373 94.428 44.6312C94.515 44.5522 94.5967 44.4677 94.6726 44.3782L94.7364 44.3121L94.9957 43.9994ZM94.2991 43.0194C94.1412 43.2384 93.9779 43.4629 93.798 43.6823C93.5658 43.9502 93.319 44.2055 93.0589 44.4471L92.9169 43.1378L94.2766 42.9982L94.2991 43.0194ZM82.9676 47.752C82.5063 47.6404 82.0537 47.4957 81.6132 47.3192L81.4997 46.2361L83.1544 46.0692L83.3332 47.7071L82.9729 47.7465L82.9676 47.752ZM79.5122 46.0694L79.3412 44.5123L81.0015 44.3506L81.1857 45.983L79.6076 46.1485L79.5122 46.0694ZM77.2208 43.1602L77.183 42.7992L78.8267 42.6325L79.0109 44.2649L77.9133 44.3779C77.6544 43.9936 77.4266 43.59 77.2321 43.1708L77.2208 43.1602ZM77.2185 34.7591C77.3939 34.3414 77.5962 33.9353 77.8241 33.5434L77.9398 34.702L77.2079 34.7701L77.2185 34.7591ZM78.9687 31.8367C79.1601 31.6387 79.3515 31.4406 79.543 31.2425L79.6915 32.5895L78.3371 32.7236C78.5473 32.4172 78.7652 32.125 78.9909 31.8471L78.9687 31.8367ZM90.2958 27.8979C90.5223 27.9637 90.7325 28.0352 90.943 28.1176L91.0975 29.4806L89.4372 29.6422L89.2583 28.0043L90.2958 27.8979ZM93.2503 31.1991L91.5957 31.3661L91.4168 29.7282L93.0715 29.5612L93.2503 31.1991ZM95.2969 31.8939L95.392 32.9071L93.7373 33.0741L93.5528 31.4309L94.9291 31.2963C95.0998 31.5198 95.215 31.7119 95.3354 31.8986L95.2969 31.8939ZM94.7696 42.2436L94.6201 41.0532L95.4337 40.9673C95.2516 41.4119 95.0391 41.8436 94.7974 42.2592L94.7696 42.2436ZM92.6916 44.816L91.1462 44.97L91.0067 43.3691L92.6614 43.2022L92.8377 44.7537L92.6916 44.816ZM78.0259 33.1346L78.1269 33.03L79.6887 32.8703L79.8732 34.5135L78.2129 34.6751L78.0484 33.1557L78.0259 33.1346ZM79.8123 30.8972L81.4016 30.7423L81.5804 32.3802L79.9202 32.5418L79.8029 30.9513L79.8123 30.8972ZM83.9475 36.0113L82.2929 36.1783L82.1087 34.5459L83.7687 34.3734L83.9475 36.0113ZM84.053 34.3571L85.713 34.1847L85.8918 35.8226L84.2372 35.9895L84.053 34.3571ZM83.9832 36.2968L84.1621 37.9347L82.5074 38.1017L82.3285 36.4637L83.9832 36.2968ZM84.2672 36.2697L85.9219 36.1028L86.106 37.7352L84.4839 37.8907L84.2672 36.2697ZM86.2059 36.0757L87.8662 35.9141L88.0504 37.5465L86.3957 37.7134L86.2059 36.0757ZM86.1961 38.0088L86.375 39.6467L84.7147 39.8084L84.5305 38.176L86.1961 38.0088ZM86.4745 37.9764L88.1348 37.8148L88.3253 39.4741L86.6706 39.641L86.4745 37.9764ZM88.4188 37.7877L90.0791 37.6261L90.2633 39.2585L88.603 39.4201L88.4188 37.7877ZM88.3547 39.7327L88.5335 41.3706L86.8732 41.5322L86.689 39.8998L88.3547 39.7327ZM88.633 39.7003L90.2933 39.5387L90.4775 41.171L88.8172 41.3327L88.633 39.7003ZM90.5717 39.5063L92.232 39.3446L92.4218 40.9823L90.7559 41.1387L90.5717 39.5063ZM90.5417 39.2261L90.3575 37.5937L92.0231 37.4265L92.202 39.0644L90.5417 39.2261ZM90.3275 37.3135L90.1486 35.6756L91.8089 35.514L91.9878 37.1519L90.3275 37.3135ZM90.0434 37.3406L88.3888 37.5075L88.2043 35.8643L89.8646 35.7027L90.0434 37.3406ZM88.1799 35.5895L87.9901 33.9518L89.6504 33.7901L89.8346 35.4225L88.1799 35.5895ZM87.8903 35.6112L86.2303 35.7837L86.0461 34.1513L87.7061 33.9788L87.8903 35.6112ZM86.0267 33.8601L85.8425 32.2277L87.4972 32.0608L87.6814 33.6931L86.0267 33.8601ZM85.7374 33.8927L84.0771 34.0543L83.8929 32.4219L85.5529 32.2495L85.7374 33.8927ZM83.7987 34.0867L82.1384 34.2483L81.9542 32.6159L83.6142 32.4435L83.7987 34.0867ZM81.8544 34.2754L80.1838 34.4589L79.994 32.8212L81.6596 32.654L81.8544 34.2754ZM81.8844 34.5556L82.0633 36.1935L80.4086 36.3604L80.2298 34.7225L81.8844 34.5556ZM82.0986 36.4682L82.2775 38.1061L80.6228 38.273L80.444 36.6351L82.0986 36.4682ZM82.3132 38.3916L82.492 40.0295L80.8374 40.1964L80.6529 38.5532L82.3132 38.3916ZM82.5915 38.3592L84.2571 38.192L84.436 39.8299L82.7548 40.0244L82.5915 38.3592ZM84.4664 40.1209L84.6452 41.7588L82.9849 41.9205L82.8061 40.2826L84.4664 40.1209ZM84.7447 40.0885L86.4103 39.9214L86.5892 41.5593L84.9289 41.721L84.7447 40.0885ZM86.6195 41.8503L86.7984 43.4882L85.1381 43.6498L84.9592 42.0119L86.6195 41.8503ZM86.8979 41.8179L88.5582 41.6562L88.7424 43.2887L87.0821 43.4503L86.8979 41.8179ZM88.8366 41.6239L90.4969 41.4622L90.6867 43.0999L89.0208 43.2563L88.8366 41.6239ZM90.7862 41.4296L92.4409 41.2627L92.6307 42.9004L90.9651 43.0675L90.7862 41.4296ZM92.5107 39.3231L94.1707 39.1506L94.3552 40.7938L92.6896 40.9609L92.5107 39.3231ZM92.475 39.0376L92.2962 37.3997L93.9565 37.238L94.1463 38.8757L92.475 39.0376ZM92.2665 37.1303L92.082 35.4871L93.7422 35.3254L93.9493 36.9898L92.2665 37.1303ZM92.0576 35.2122L91.8731 33.569L93.5334 33.4073L93.7122 35.0453L92.0576 35.2122ZM91.7679 35.234L90.1186 35.3954L89.9397 33.7575L91.5944 33.5906L91.7679 35.234ZM89.9044 33.4828L89.7255 31.8449L91.3802 31.678L91.5643 33.3104L89.9044 33.4828ZM89.6147 33.5046L87.9601 33.6716L87.7759 32.0392L89.4305 31.8722L89.6147 33.5046ZM87.7512 31.7535L87.5723 30.1156L89.227 29.9486L89.4111 31.581L87.7512 31.7535ZM87.4672 31.7806L85.8069 31.9422L85.6227 30.3098L87.2773 30.1429L87.4672 31.7806ZM85.5285 31.9746L83.8682 32.1362L83.684 30.5038L85.3387 30.3369L85.5285 31.9746ZM83.5573 32.18L81.897 32.3417L81.7072 30.704L83.3728 30.5368L83.5573 32.18ZM79.958 34.7926L80.1368 36.4305L78.4822 36.5974L78.2977 34.9542L79.958 34.7926ZM80.1668 36.7107L80.351 38.3431L78.691 38.5155L78.5122 36.8776L80.1668 36.7107ZM80.381 38.6233L80.5656 40.2665L78.9053 40.4281L78.7264 38.7902L80.381 38.6233ZM80.6009 40.5411L80.7798 42.179L79.1085 42.3409L78.924 40.6977L80.6009 40.5411ZM80.8793 40.5088L82.5396 40.3471L82.6959 41.9638L81.0413 42.1308L80.8793 40.5088ZM82.7541 42.2705L82.933 43.9084L81.2674 44.0755L81.0885 42.4376L82.7541 42.2705ZM83.0325 42.2381L84.6928 42.0765L84.8716 43.7144L83.2113 43.876L83.0325 42.2381ZM84.9017 43.9945L85.0862 45.6377L83.4206 45.8049L83.2417 44.167L84.9017 43.9945ZM85.1857 43.9675L86.8403 43.8005L87.0248 45.4437L85.3645 45.6054L85.1857 43.9675ZM87.119 43.779L88.7846 43.6118L88.9635 45.2497L87.3126 45.3572L87.119 43.779ZM89.0687 43.5847L90.7233 43.4178L90.9131 45.0555L89.2528 45.2171L89.0687 43.5847ZM92.7371 41.2786L94.3974 41.1169L94.5688 42.6848L94.5103 42.7453L92.9047 42.9059L92.7371 41.2786ZM95.6232 40.7045L94.6298 40.8209L94.4509 39.183L96.1112 39.0213L96.1265 39.1722C95.9883 39.6821 95.8143 40.1815 95.6057 40.6671L95.6232 40.7045ZM94.4315 38.8918L94.2527 37.2539L95.913 37.0922L96.0971 38.7247L94.4315 38.8918ZM94.2226 36.9737L94.0381 35.3305L95.6984 35.1689L95.8829 36.8121L94.2226 36.9737ZM94.0084 35.0611L93.8239 33.4179L95.4842 33.2563L95.6631 34.8942L94.0084 35.0611ZM93.5046 33.1703L91.8499 33.3373L91.671 31.6994L93.3257 31.5324L93.5046 33.1703ZM91.357 31.4463L89.6914 31.6134L89.5125 29.9755L91.1672 29.8086L91.357 31.4463ZM89.1866 29.6903L87.521 29.8574L87.3421 28.2195L89.0024 28.0579L89.1866 29.6903ZM87.2479 29.8843L85.5833 30.0838L85.4044 28.4459L87.0591 28.279L87.2479 29.8843ZM85.304 30.0838L83.6436 30.2455L83.4538 28.6078L85.1141 28.4461L85.304 30.0838ZM83.1755 28.6401L83.3596 30.2725L81.6994 30.4342L81.5671 29.4595C82.0278 29.1461 82.5122 28.8678 83.0162 28.627L83.1755 28.6401ZM81.41 30.4668L80.2036 30.6035C80.56 30.2685 80.941 29.9598 81.3434 29.6798L81.41 30.4668ZM77.1009 35.0475L77.9802 34.9604L78.1925 36.6192L76.6032 36.7741C76.7231 36.1863 76.8895 35.609 77.1009 35.0475ZM78.2 36.8782L78.3842 38.5107L76.7242 38.6831L76.5397 37.0399L78.2 36.8782ZM78.4142 38.7908L78.5931 40.4287L76.9384 40.5957L76.7543 38.9633L78.4142 38.7908ZM78.6231 40.7089L78.8129 42.3466L77.1473 42.5138L76.9685 40.8758L78.6231 40.7089ZM79.1213 42.5944L80.7816 42.4328L80.9658 44.0652L79.3058 44.2376L79.1213 42.5944ZM81.2799 44.3183L82.9402 44.1566L83.119 45.7945L81.4587 45.9562L81.2799 44.3183ZM83.4384 46.0421L85.093 45.8752L85.2775 47.5184L83.6173 47.68L83.4384 46.0421ZM85.3827 45.8534L87.0483 45.6862L87.178 47.3305L85.5178 47.4921L85.3827 45.8534ZM87.327 45.6647L88.987 45.4922L89.1658 47.1301L87.5112 47.2971L87.327 45.6647ZM89.2657 45.4706L90.9256 45.2982L91.0223 46.1764C90.5186 46.5039 89.9906 46.7939 89.4426 47.0438L89.2657 45.4706ZM91.2963 45.9929L91.2153 45.2764L92.3898 45.1727C92.0493 45.4609 91.6892 45.7258 91.3119 45.9656L91.2963 45.9929ZM96.3183 38.229L96.1688 37.0387L96.4419 37.0118C96.4248 37.4183 96.3817 37.8231 96.3127 38.2238L96.3183 38.229ZM96.3803 35.0747C96.4556 35.6202 96.4844 36.1704 96.4663 36.7198L96.1494 36.7475L95.9706 35.1096L96.3803 35.0747ZM96.3337 34.7894L95.9405 34.8294L95.7507 33.1917L95.9037 33.178C96.0926 33.7005 96.2346 34.238 96.3281 34.7842L96.3337 34.7894ZM95.7263 32.9169L95.6969 32.6583C95.7369 32.7384 95.7721 32.8206 95.8026 32.9046L95.7263 32.9169ZM94.7911 31.0722L93.5847 31.2089L93.4058 29.571C93.9308 30.0074 94.3948 30.5105 94.7855 31.0669L94.7911 31.0722ZM93.0696 29.3075L91.4093 29.4692L91.2598 28.2788C91.9029 28.5419 92.5094 28.8859 93.064 29.3022L93.0696 29.3075ZM89.5129 27.7186L89.2508 27.7453L89.2433 27.6753C89.3319 27.683 89.42 27.6957 89.5073 27.7134L89.5129 27.7186ZM87.268 27.5514C87.8318 27.5302 88.3967 27.5555 88.9571 27.6268L88.9724 27.7777L87.3121 27.9393L87.268 27.5514ZM86.9837 27.5677L87.0337 27.9717L85.3734 28.1333L85.3372 27.8263C85.87 27.692 86.413 27.5985 86.9612 27.5466L86.9837 27.5677ZM85.0894 28.1604L83.8936 28.2861C84.275 28.1339 84.6665 28.0073 85.0657 27.9071L85.0894 28.1604ZM76.3786 38.0958L76.4402 38.7102L76.342 38.7229C76.3357 38.5115 76.3461 38.3001 76.373 38.0906L76.3786 38.0958ZM76.447 40.6484C76.3626 40.1038 76.3192 39.5542 76.3173 39.0041L76.4702 38.9904L76.6704 40.6062L76.463 40.6318L76.447 40.6484ZM76.4933 40.9228L76.6844 40.9029L76.8255 42.1798C76.6816 41.7698 76.5705 41.3495 76.4933 40.9228ZM78.1235 44.6384L79.0519 44.5449L79.1923 45.8002C78.8019 45.4448 78.4442 45.0559 78.1235 44.6384ZM79.9589 46.3631L81.237 46.2412L81.3402 47.1571C80.8479 46.9455 80.3765 46.6889 79.9323 46.3906L79.9589 46.3631ZM84.0233 47.8935L85.3338 47.7603L85.356 47.9596C84.9029 47.9807 84.4484 47.9678 83.9967 47.9211L84.0233 47.8935ZM87.2935 47.7224C86.7499 47.8407 86.197 47.9146 85.6404 47.9433L85.6235 47.7385L87.2781 47.5715L87.2935 47.7224ZM87.5621 47.5444L88.2118 47.4725C88.0024 47.5473 87.7884 47.6092 87.5709 47.6576L87.5621 47.5444Z" fill="#407BFF"/>
<path d="M95.5757 45.0993C100.13 39.5423 99.7175 31.7218 94.6551 27.6786C89.5927 23.6354 81.764 24.8664 77.2152 30.4288C76.3376 31.4952 75.6213 32.6818 75.0883 33.9522L75.0298 34.0127C74.8401 34.4628 74.6779 34.9238 74.544 35.3934C73.7346 38.0329 73.6105 40.8362 74.1832 43.5473C74.5384 45.9808 75.3096 48.4062 73.6647 51.5531L71.3001 54.4332L73.0212 55.8091L75.3858 52.929C78.152 50.6782 80.7327 50.9091 83.2036 50.7534C86.0013 50.7318 88.7428 50.0199 91.1778 48.6828C91.6167 48.4556 92.041 48.2022 92.4482 47.924L92.5067 47.8635C93.6607 47.0936 94.6943 46.1626 95.5757 45.0993ZM75.0934 51.7199L74.9471 51.5823C76.2079 48.9773 75.7732 46.6372 75.5421 44.7088C76.2103 45.895 77.1014 46.9461 78.1674 47.8057C79.2397 48.661 80.4694 49.303 81.7874 49.6956C79.7894 49.9177 77.3817 49.9858 75.0934 51.7199ZM91.4311 47.2202C91.2538 47.337 91.0705 47.4377 90.8982 47.5382C86.9741 49.7088 82.2403 49.6382 78.8765 46.9498C75.5127 44.2613 74.4497 39.7035 75.7782 35.4613L75.9749 34.8798C76.4735 33.5261 77.1956 32.2645 78.1122 31.1457C82.2753 26.0713 89.3671 24.9247 93.9522 28.5614C98.5374 32.1981 98.864 39.3184 94.6956 44.3983C93.7693 45.524 92.6569 46.4871 91.4045 47.2477L91.4311 47.2202Z" fill="#00308E"/>
<path d="M73.4392 55.0908L71.9652 53.9133C71.7384 53.732 71.407 53.7651 71.2252 53.9871L62.2478 64.9472C62.066 65.1692 62.1025 65.4961 62.3293 65.6774L63.8033 66.8549C64.0302 67.0362 64.3615 67.0031 64.5433 66.7811L73.5207 55.821C73.7025 55.599 73.666 55.2721 73.4392 55.0908Z" fill="#407BFF"/>
<path d="M73.4285 63.6295C72.7687 63.3057 72.2195 62.7972 71.8505 62.1684C71.4814 61.5396 71.309 60.8188 71.3552 60.0972C71.4015 59.3756 71.6642 58.6857 72.1101 58.1149C72.556 57.544 73.1651 57.118 73.8601 56.8906C74.5552 56.6632 75.3051 56.6448 76.0147 56.8376C76.7244 57.0304 77.3619 57.4258 77.8466 57.9738C78.3313 58.5217 78.6413 59.1975 78.7374 59.9156C78.8335 60.6337 78.7114 61.3618 78.3865 62.0077C78.1722 62.436 77.8739 62.8177 77.5087 63.131C77.1435 63.4444 76.7186 63.6832 76.2581 63.8338C75.7977 63.9844 75.3108 64.0439 74.8253 64.0088C74.3398 63.9738 73.8651 63.8449 73.4285 63.6295Z" fill="#1919D3"/>
<path opacity="0.7" d="M73.4283 63.6293C72.8678 63.3551 72.3849 62.9474 72.0237 62.4435C71.6625 61.9396 71.4346 61.3556 71.3609 60.7451C71.327 60.5099 71.32 60.2718 71.3403 60.0356C71.3762 59.5795 71.4972 59.1346 71.6973 58.7233C72.1116 57.8869 72.8397 57.2438 73.7293 56.9285C73.8437 56.8814 73.9617 56.8434 74.0824 56.8149C74.9448 56.5971 75.8608 56.6933 76.6626 57.0861C76.9244 57.2137 77.1707 57.3703 77.3968 57.5529C77.5203 57.6529 77.635 57.763 77.7395 57.8822C78.1291 58.2976 78.4172 58.795 78.5812 59.3358C78.7452 59.8766 78.7808 60.4461 78.6852 61.0003C78.5897 61.5545 78.3655 62.0784 78.0302 62.5312C77.6948 62.984 77.2573 63.3536 76.7516 63.6114C76.6626 63.6572 76.5706 63.6972 76.4762 63.7312C75.9919 63.9282 75.4696 64.021 74.9441 64.0035C74.4186 63.9859 73.9018 63.8583 73.4283 63.6293Z" fill="white"/>
<g opacity="0.2">
<path d="M73.2699 58.9754C73.9326 58.9817 74.5689 59.2437 75.0421 59.705C75.2831 59.9464 75.4709 60.2342 75.5934 60.5499C75.716 60.8657 75.7707 61.2025 75.7541 61.539C75.7295 62.3315 75.9879 63.1101 76.4845 63.739C76.5789 63.7051 76.6709 63.665 76.7599 63.6193C76.2685 63.0356 76.0123 62.2952 76.0408 61.5411C76.0474 61.1649 75.9769 60.7906 75.8335 60.4405C75.6902 60.0904 75.477 59.7717 75.2067 59.5034C74.6726 59.0001 73.9665 58.7135 73.231 58.7013C72.8094 58.7087 72.4009 58.8405 72.0584 59.0798C71.7159 59.3191 71.4552 59.6548 71.3099 60.0435C71.2896 60.2798 71.2966 60.5179 71.3306 60.7531C71.7762 59.5613 72.4022 58.9767 73.2699 58.9754ZM76.7381 57.8174C77.0755 57.8063 77.4135 57.8279 77.7472 57.8821C77.6427 57.7629 77.528 57.6527 77.4045 57.5527L76.7385 57.5655C76.2155 57.5833 75.6919 57.5265 75.1841 57.3967C74.7921 57.2612 74.4195 57.0758 74.0756 56.8453C73.9549 56.8737 73.8369 56.9117 73.7225 56.9589C74.1454 57.2701 74.6122 57.5185 75.1076 57.6959C75.6429 57.8145 76.1923 57.8555 76.7381 57.8174Z" fill="white"/>
</g>
<path d="M59.6644 68.0001H56.1015C54.1125 68.0001 52.5 69.6501 52.5 71.6855V80.3146C52.5 82.35 54.1125 84 56.1015 84H59.6644C61.6534 84 63.2659 82.35 63.2659 80.3146V71.6855C63.2659 69.6501 61.6534 68.0001 59.6644 68.0001Z" fill="#407BFF"/>
<path d="M86.8985 68H83.3357C81.3466 68 79.7341 69.65 79.7341 71.6854V80.3145C79.7341 82.3499 81.3466 83.9999 83.3357 83.9999H86.8985C88.8876 83.9999 90.5 82.3499 90.5 80.3145V71.6854C90.5 69.65 88.8876 68 86.8985 68Z" fill="#407BFF"/>
<path d="M83.2383 77.9072H59.7315C59.2281 77.8918 58.7504 77.6762 58.3997 77.3063C58.0491 76.9364 57.853 76.4412 57.8533 75.9258C57.8708 75.4282 58.0764 74.957 58.4268 74.6114C58.7771 74.2658 59.2449 74.0729 59.7315 74.0732H83.2093C83.7028 74.0881 84.1721 74.2954 84.5212 74.6527C84.8703 75.0099 85.0729 75.4901 85.0875 75.9952C85.0709 76.4935 84.8714 76.9671 84.5286 77.3215C84.1859 77.6759 83.7251 77.8851 83.2383 77.9072Z" fill="#407BFF"/>
<path d="M51.3975 67.0061C51.4101 69.2195 50.9607 71.411 50.0782 73.4398C49.1957 75.4685 47.8997 77.2897 46.2734 78.7862C45.2218 79.7624 44.0407 80.5881 42.7634 81.2398L42.0973 81.5738C41.2729 81.9591 40.4154 82.2687 39.5353 82.4987C38.2385 82.8358 36.9038 83.0042 35.5641 82.9997C33.4299 83.0018 31.3172 82.5729 29.3518 81.7386C27.3864 80.9044 25.6087 79.6818 24.1246 78.1438C23.958 77.964 23.7787 77.7841 23.6121 77.5914C21.0316 74.6733 19.6093 70.9065 19.6154 67.0061C19.6126 66.3402 19.6553 65.675 19.7435 65.015C19.7435 64.7837 19.7435 64.5525 19.8331 64.3213C20.335 61.3594 21.6586 58.5992 23.6523 56.3568C25.646 54.1143 28.2292 52.4804 31.1061 51.642C31.7626 51.4486 32.4299 51.2942 33.1045 51.1796L34.2446 51.0511C34.6161 51.0511 35.0004 51.0511 35.3847 51.0511H35.5641C38.786 51.0663 41.9286 52.055 44.5817 53.8883C47.2348 55.7216 49.2752 58.3143 50.4367 61.3281L50.6674 61.9576C51.1926 63.5147 51.4735 65.1442 51.5 66.7877C51.4689 66.8619 51.4347 66.9348 51.3975 67.0061Z" fill="#407BFF"/>
<path d="M29.1717 61.8552L22.9075 66.4285L25.303 73.8279H33.0532L35.4487 66.4285L29.1717 61.8552Z" fill="#00308E"/>
<path d="M51.3846 66.6725L49.8601 67.6745L44.1852 63.1012L43.8137 62.8057L43.929 62.4846L46.4911 55.5348C48.1443 57.1294 49.4297 59.0674 50.2573 61.2128L50.4878 61.8423C51.0348 63.3959 51.3374 65.0255 51.3846 66.6725Z" fill="#00308E"/>
<path d="M46.2228 78.7864C45.1712 79.7627 43.99 80.5884 42.7128 81.24L42.0467 81.574C41.2223 81.9594 40.3648 82.269 39.4846 82.4989L39.9586 80.071L40.0611 79.5315H40.2532L46.2228 78.7864Z" fill="#00308E"/>
<path d="M35.3206 51L32.9635 52.1819L32.0284 52.6443L31.8746 52.4773L31.042 51.6423C31.6985 51.4489 32.3658 51.2945 33.0404 51.1798L34.1805 51.0514C34.5007 51.0257 34.8851 51 35.3206 51Z" fill="#00308E"/>
<path d="M34.1294 51.0511C33.688 51.3873 33.2804 51.7659 32.9124 52.1816C30.4528 54.9307 29.6586 58.9901 29.4536 62.0603C29.3478 63.4843 29.3478 64.9142 29.4536 66.3381L28.8259 66.4152C28.681 64.9939 28.6553 63.563 28.749 62.1374C28.8173 58.6921 29.8711 55.339 31.7851 52.477C32.1364 52.0162 32.5264 51.5865 32.9508 51.1924L34.1294 51.0511Z" fill="#00308E"/>
<path d="M50.5523 61.8422C48.3769 62.0347 46.2291 62.4654 44.1472 63.1268C41.1352 64.0703 38.1977 65.2383 35.3594 66.621C33.5659 67.4817 32.413 68.124 32.3746 68.1497L32.0671 67.5845C32.2081 67.5074 33.2841 66.9036 34.9367 66.1072C37.8278 64.6759 40.8259 63.4732 43.9038 62.5102C45.9888 61.8608 48.1353 61.4303 50.3089 61.2256L50.5523 61.8422Z" fill="#00308E"/>
<path d="M42.7123 81.2401L42.0462 81.5741C41.316 81.0988 40.5986 80.5978 39.9069 80.0711C37.3527 78.1513 34.9304 76.0612 32.6563 73.8149C30.9782 72.1449 29.9277 70.9759 29.9021 70.9502L30.3889 70.5263C30.3889 70.5263 31.4778 71.7467 33.1815 73.4167C35.3822 75.6025 37.7276 77.6368 40.2015 79.5058C41.0214 80.1225 41.854 80.7006 42.7123 81.2401Z" fill="#00308E"/>
<path d="M28.2626 69.8582C27.24 71.0592 26.3787 72.3894 25.7006 73.8148C25.0078 75.1993 24.4542 76.6495 24.0481 78.144C23.8815 77.9642 23.7022 77.7843 23.5356 77.5916C23.9545 76.1408 24.5122 74.734 25.201 73.3909C25.9064 71.9553 26.7933 70.6168 27.8399 69.4086L28.2626 69.8582Z" fill="#00308E"/>
<path d="M26.033 67.5458L25.8025 68.1367C25.6616 68.0725 24.5214 67.6229 23.0483 66.8521C22.0362 66.3511 20.8449 65.7345 19.6279 64.9894C19.6279 64.7582 19.6279 64.5269 19.7176 64.2957C20.9986 65.0408 22.1515 65.6959 23.1892 66.1969C24.8289 67.0448 25.9946 67.5329 26.033 67.5458Z" fill="#00308E"/>
<path opacity="0.2" d="M46.4528 64.0002C46.459 67.2405 45.3391 70.3817 43.2857 72.8837C41.2324 75.3857 38.3739 77.0921 35.2018 77.7094C32.0297 78.3268 28.7423 77.8165 25.9047 76.2664C23.0672 74.7163 20.8569 72.2232 19.6539 69.2157C19.5508 68.4795 19.4994 67.7368 19.5001 66.9933C19.4973 66.3275 19.5401 65.6622 19.6282 65.0022C19.6282 64.7709 19.6282 64.5397 19.7179 64.3085C20.2198 61.3466 21.5433 58.5864 23.5371 56.3439C25.5308 54.1015 28.114 52.4675 30.9909 51.6292C31.6474 51.4358 32.3147 51.2814 32.9893 51.1668L34.1294 51.0383C34.5009 51.0383 34.8852 51.0383 35.2695 51.0383H35.4489C36.3074 51.0401 37.1644 51.1132 38.0109 51.2567C40.5029 52.3253 42.6294 54.1006 44.1292 56.3645C45.6289 58.6284 46.4365 61.2823 46.4528 64.0002Z" fill="white"/>
<path d="M51.3053 14H47.6946V18.2555H51.3053V14Z" fill="#1919D3"/>
<path d="M52.4466 16.8791H46.5583V21.7396H52.4466V16.8791Z" fill="#407BFF"/>
<path d="M56.5 27.7496V50H42.5V27.7496C42.5 23.3429 45.2006 19.9446 49.5 19.9446C53.7994 19.9446 56.5 23.353 56.5 27.7496Z" fill="#00308E"/>
<path d="M48.7423 21.6186C48.7422 21.7295 48.7101 21.8379 48.6499 21.93C48.5897 22.0221 48.5041 22.0939 48.404 22.1361C48.304 22.1783 48.1939 22.1891 48.0879 22.1671C47.9818 22.1451 47.8846 22.0913 47.8084 22.0125C47.7322 21.9337 47.6806 21.8335 47.6601 21.7246C47.6396 21.6157 47.6511 21.503 47.6932 21.4009C47.7353 21.2987 47.806 21.2116 47.8965 21.1508C47.9869 21.0899 48.093 21.0579 48.2012 21.0589C48.3451 21.0602 48.4827 21.1198 48.5841 21.2246C48.6854 21.3294 48.7423 21.471 48.7423 21.6186ZM55.1372 26.0908C55.0292 26.0908 54.9236 26.1236 54.8338 26.1851C54.7441 26.2466 54.6741 26.334 54.6327 26.4363C54.5914 26.5386 54.5806 26.6511 54.6017 26.7597C54.6227 26.8682 54.6747 26.9679 54.7511 27.0462C54.8275 27.1245 54.9248 27.1778 55.0307 27.1994C55.1366 27.221 55.2464 27.2099 55.3462 27.1675C55.4459 27.1252 55.5312 27.0534 55.5912 26.9614C55.6512 26.8694 55.6832 26.7612 55.6832 26.6505C55.6833 26.5046 55.6278 26.3645 55.5286 26.26C55.4293 26.1555 55.2942 26.0947 55.152 26.0908H55.1372ZM48.939 26.6505C48.8308 26.6505 48.7251 26.6834 48.6352 26.7452C48.5453 26.8069 48.4753 26.8946 48.4341 26.9971C48.3929 27.0997 48.3824 27.2125 48.4039 27.3212C48.4254 27.4299 48.4779 27.5296 48.5547 27.6077C48.6316 27.6857 48.7293 27.7386 48.8356 27.7596C48.9418 27.7807 49.0517 27.7689 49.1514 27.7257C49.2511 27.6826 49.336 27.6101 49.3954 27.5174C49.4548 27.4247 49.486 27.316 49.4851 27.2051C49.4851 27.0597 49.4294 26.9202 49.3301 26.8164C49.2307 26.7127 49.0956 26.6531 48.9538 26.6505H48.939ZM49.4851 31.99C49.3771 31.99 49.2715 32.0228 49.1817 32.0843C49.0919 32.1458 49.0219 32.2332 48.9806 32.3354C48.9393 32.4377 48.9285 32.5502 48.9495 32.6588C48.9706 32.7674 49.0226 32.8671 49.099 32.9454C49.1753 33.0236 49.2726 33.0769 49.3785 33.0985C49.4844 33.1201 49.5942 33.109 49.694 33.0667C49.7938 33.0243 49.8791 32.9526 49.9391 32.8606C49.9991 32.7685 50.0311 32.6603 50.0311 32.5496C50.0311 32.4038 49.9756 32.2637 49.8764 32.1591C49.7772 32.0546 49.6421 31.9939 49.4998 31.99H49.4851ZM43.8477 37.5765C43.7395 37.5765 43.6337 37.6095 43.5438 37.6712C43.4539 37.7329 43.3839 37.8206 43.3428 37.9232C43.3016 38.0257 43.291 38.1385 43.3125 38.2472C43.334 38.3559 43.3865 38.4556 43.4633 38.5337C43.5402 38.6117 43.638 38.6647 43.7442 38.6857C43.8504 38.7067 43.9604 38.6949 44.0601 38.6518C44.1597 38.6086 44.2447 38.5361 44.3041 38.4434C44.3635 38.3507 44.3947 38.242 44.3937 38.1311C44.3925 37.9861 44.3364 37.8473 44.2373 37.7439C44.1382 37.6404 44.0038 37.5804 43.8624 37.5765H43.8477ZM43.3016 32.6051C43.1936 32.6051 43.0881 32.6379 42.9983 32.6994C42.9085 32.7609 42.8385 32.8483 42.7972 32.9506C42.7559 33.0528 42.745 33.1654 42.7661 33.2739C42.7872 33.3825 42.8392 33.4822 42.9155 33.5605C42.9919 33.6388 43.0892 33.6921 43.1951 33.7137C43.301 33.7352 43.4108 33.7242 43.5106 33.6818C43.6104 33.6394 43.6956 33.5677 43.7556 33.4757C43.8156 33.3836 43.8477 33.2754 43.8477 33.1647C43.8477 33.0189 43.7922 32.8788 43.693 32.7743C43.5938 32.6697 43.4586 32.609 43.3164 32.6051H43.3016ZM43.4394 27.3412C43.3314 27.3412 43.2258 27.3741 43.136 27.4356C43.0462 27.497 42.9762 27.5844 42.9349 27.6867C42.8936 27.789 42.8828 27.9015 42.9038 28.0101C42.9249 28.1186 42.9769 28.2184 43.0533 28.2966C43.1296 28.3749 43.2269 28.4282 43.3328 28.4498C43.4388 28.4714 43.5486 28.4603 43.6483 28.4179C43.7481 28.3756 43.8334 28.3039 43.8934 28.2118C43.9534 28.1198 43.9854 28.0116 43.9854 27.9009C43.9855 27.755 43.93 27.6149 43.8307 27.5104C43.7315 27.4059 43.5964 27.3452 43.4541 27.3412H43.4394ZM45.8055 24.1194C45.6975 24.1194 45.5919 24.1522 45.5021 24.2137C45.4124 24.2752 45.3424 24.3626 45.301 24.4649C45.2597 24.5671 45.2489 24.6797 45.27 24.7882C45.291 24.8968 45.343 24.9965 45.4194 25.0748C45.4958 25.1531 45.5931 25.2064 45.699 25.228C45.8049 25.2495 45.9147 25.2385 46.0145 25.1961C46.1142 25.1538 46.1995 25.082 46.2595 24.99C46.3195 24.8979 46.3515 24.7897 46.3515 24.6791C46.3516 24.5332 46.2961 24.3931 46.1969 24.2886C46.0976 24.184 45.9625 24.1233 45.8203 24.1194H45.8055ZM46.3515 29.6656C46.2435 29.6656 46.138 29.6984 46.0482 29.7599C45.9584 29.8214 45.8884 29.9088 45.8471 30.0111C45.8057 30.1133 45.7949 30.2259 45.816 30.3344C45.8371 30.443 45.8891 30.5427 45.9654 30.621C46.0418 30.6993 46.1391 30.7526 46.245 30.7742C46.3509 30.7958 46.4607 30.7847 46.5605 30.7423C46.6603 30.7 46.7456 30.6282 46.8056 30.5362C46.8655 30.4441 46.8976 30.3359 46.8976 30.2253C46.8989 30.0785 46.844 29.9372 46.7446 29.8315C46.6452 29.7259 46.5094 29.6645 46.3663 29.6606L46.3515 29.6656ZM51.6889 23.6152C51.5809 23.6152 51.4753 23.648 51.3855 23.7095C51.2957 23.771 51.2257 23.8584 51.1844 23.9607C51.1431 24.0629 51.1322 24.1755 51.1533 24.284C51.1744 24.3926 51.2264 24.4923 51.3028 24.5706C51.3791 24.6489 51.4764 24.7022 51.5823 24.7238C51.6883 24.7453 51.798 24.7343 51.8978 24.6919C51.9976 24.6496 52.0829 24.5778 52.1429 24.4858C52.2029 24.3937 52.2349 24.2855 52.2349 24.1749C52.2312 24.0316 52.174 23.8953 52.0752 23.794C51.9763 23.6927 51.8433 23.6341 51.7036 23.6303L51.6889 23.6152ZM52.348 29.0454C52.2398 29.0454 52.1341 29.0784 52.0442 29.1401C51.9543 29.2018 51.8843 29.2895 51.8431 29.3921C51.8019 29.4947 51.7914 29.6074 51.8129 29.7161C51.8343 29.8248 51.8868 29.9246 51.9637 30.0026C52.0406 30.0807 52.1383 30.1336 52.2445 30.1546C52.3508 30.1756 52.4607 30.1638 52.5604 30.1207C52.6601 30.0776 52.745 30.005 52.8044 29.9123C52.8638 29.8197 52.895 29.711 52.894 29.6001C52.8891 29.4577 52.8314 29.3227 52.7327 29.2224C52.634 29.1222 52.5017 29.0643 52.3628 29.0606L52.348 29.0454ZM46.6418 34.8488C46.5338 34.8488 46.4282 34.8816 46.3384 34.9431C46.2486 35.0046 46.1786 35.092 46.1373 35.1943C46.096 35.2965 46.0852 35.4091 46.1062 35.5176C46.1273 35.6262 46.1793 35.7259 46.2557 35.8042C46.332 35.8824 46.4293 35.9358 46.5352 35.9573C46.6412 35.9789 46.7509 35.9679 46.8507 35.9255C46.9505 35.8831 47.0358 35.8114 47.0958 35.7194C47.1558 35.6273 47.1878 35.5191 47.1878 35.4084C47.1841 35.2652 47.1269 35.1289 47.0281 35.0276C46.9292 34.9263 46.7963 34.8677 46.6565 34.8639L46.6418 34.8488ZM52.5448 39.2656C52.4366 39.2656 52.3308 39.2985 52.2409 39.3602C52.151 39.422 52.0811 39.5097 52.0399 39.6122C51.9987 39.7148 51.9882 39.8276 52.0096 39.9363C52.0311 40.045 52.0836 40.1447 52.1605 40.2228C52.2373 40.3008 52.3351 40.3537 52.4413 40.3747C52.5476 40.3958 52.6575 40.384 52.7572 40.3408C52.8569 40.2977 52.9418 40.2252 53.0012 40.1325C53.0606 40.0398 53.0918 39.9311 53.0908 39.8202C53.0857 39.6735 53.0245 39.5348 52.9206 39.4339C52.8166 39.333 52.6781 39.278 52.535 39.2807L52.5448 39.2656ZM52.4612 43.4706C52.353 43.4706 52.2472 43.5036 52.1573 43.5653C52.0674 43.627 51.9974 43.7147 51.9563 43.8173C51.9151 43.9198 51.9045 44.0326 51.926 44.1413C51.9475 44.25 52 44.3497 52.0768 44.4278C52.1537 44.5058 52.2515 44.5588 52.3577 44.5798C52.4639 44.6008 52.5739 44.589 52.6736 44.5459C52.7732 44.5027 52.8582 44.4302 52.9176 44.3375C52.977 44.2448 53.0082 44.1361 53.0072 44.0252C53.0021 43.8785 52.9409 43.7398 52.8369 43.6389C52.733 43.538 52.5945 43.483 52.4513 43.4857L52.4612 43.4706ZM46.9959 39.3614C46.888 39.3614 46.7824 39.3942 46.6926 39.4557C46.6028 39.5172 46.5328 39.6046 46.4915 39.7068C46.4502 39.8091 46.4393 39.9216 46.4604 40.0302C46.4815 40.1388 46.5335 40.2385 46.6099 40.3168C46.6862 40.395 46.7835 40.4483 46.8894 40.4699C46.9953 40.4915 47.1051 40.4804 47.2049 40.4381C47.3047 40.3957 47.39 40.324 47.45 40.232C47.51 40.1399 47.542 40.0317 47.542 39.921C47.5381 39.7735 47.4775 39.6335 47.3734 39.5315C47.2693 39.4295 47.1301 39.3738 46.9861 39.3765L46.9959 39.3614ZM44.3396 45.916C44.2314 45.915 44.1253 45.9469 44.0349 46.0078C43.9445 46.0687 43.8737 46.1558 43.8316 46.2579C43.7895 46.3601 43.778 46.4728 43.7985 46.5817C43.819 46.6906 43.8707 46.7908 43.9468 46.8696C44.023 46.9483 44.1203 47.0021 44.2263 47.0241C44.3324 47.0461 44.4424 47.0354 44.5425 46.9932C44.6425 46.951 44.7281 46.8792 44.7883 46.7871C44.8485 46.6949 44.8807 46.5865 44.8807 46.4756C44.8794 46.4028 44.8642 46.3309 44.8358 46.2641C44.8074 46.1974 44.7664 46.1369 44.7153 46.0864C44.6641 46.0358 44.6037 45.9961 44.5376 45.9694C44.4714 45.9428 44.4008 45.9298 44.3297 45.9311L44.3396 45.916ZM49.8196 36.8404C49.7114 36.8394 49.6053 36.8713 49.5149 36.9322C49.4244 36.9931 49.3537 37.0802 49.3116 37.1823C49.2695 37.2845 49.258 37.3972 49.2785 37.5061C49.299 37.615 49.3506 37.7152 49.4268 37.794C49.503 37.8727 49.6002 37.9265 49.7063 37.9485C49.8123 37.9705 49.9224 37.9598 50.0224 37.9176C50.1225 37.8754 50.2081 37.8036 50.2683 37.7115C50.3285 37.6193 50.3607 37.5109 50.3607 37.4C50.3555 37.2542 50.2951 37.1163 50.1922 37.0155C50.0893 36.9147 49.952 36.8591 49.8097 36.8605L49.8196 36.8404ZM49.8835 41.3782C49.7755 41.3782 49.67 41.411 49.5802 41.4725C49.4904 41.534 49.4204 41.6214 49.379 41.7236C49.3377 41.8259 49.3269 41.9384 49.348 42.047C49.369 42.1556 49.421 42.2553 49.4974 42.3336C49.5738 42.4118 49.6711 42.4651 49.777 42.4867C49.8829 42.5083 49.9927 42.4972 50.0925 42.4549C50.1922 42.4125 50.2775 42.3408 50.3375 42.2488C50.3975 42.1567 50.4295 42.0485 50.4295 41.9378C50.4244 41.7916 50.3631 41.6534 50.259 41.5533C50.1549 41.4532 50.0164 41.3993 49.8737 41.4034L49.8835 41.3782ZM49.8835 45.916C49.7755 45.916 49.67 45.9488 49.5802 46.0103C49.4904 46.0718 49.4204 46.1592 49.379 46.2614C49.3377 46.3637 49.3269 46.4762 49.348 46.5848C49.369 46.6934 49.421 46.7931 49.4974 46.8714C49.5738 46.9496 49.6711 47.0029 49.777 47.0245C49.8829 47.0461 49.9927 47.035 50.0925 46.9927C50.1922 46.9503 50.2775 46.8786 50.3375 46.7866C50.3975 46.6945 50.4295 46.5863 50.4295 46.4756C50.4283 46.4024 50.4128 46.3301 50.3842 46.2629C50.3555 46.1958 50.3141 46.1352 50.2624 46.0846C50.2107 46.0339 50.1497 45.9943 50.083 45.968C50.0163 45.9416 49.9451 45.9291 49.8737 45.9311L49.8835 45.916ZM52.6579 48.0084C52.5499 48.0084 52.4444 48.0412 52.3546 48.1027C52.2648 48.1642 52.1948 48.2516 52.1535 48.3539C52.1121 48.4562 52.1013 48.5687 52.1224 48.6773C52.1435 48.7858 52.1955 48.8855 52.2718 48.9638C52.3482 49.0421 52.4455 49.0954 52.5514 49.117C52.6573 49.1386 52.7671 49.1275 52.8669 49.0851C52.9667 49.0428 53.0519 48.971 53.1119 48.879C53.1719 48.787 53.204 48.6788 53.204 48.5681C53.2001 48.4205 53.1395 48.2805 53.0354 48.1785C52.9313 48.0765 52.7921 48.0208 52.6481 48.0235L52.6579 48.0084ZM44.2953 41.6555C44.1871 41.6555 44.0814 41.6884 43.9915 41.7502C43.9016 41.8119 43.8316 41.8996 43.7904 42.0022C43.7492 42.1047 43.7387 42.2175 43.7602 42.3262C43.7816 42.4349 43.8341 42.5346 43.911 42.6127C43.9879 42.6907 44.0856 42.7436 44.1918 42.7647C44.2981 42.7857 44.408 42.7739 44.5077 42.7307C44.6074 42.6876 44.6923 42.6151 44.7517 42.5224C44.8111 42.4297 44.8423 42.321 44.8413 42.2101C44.8395 42.135 44.8229 42.0611 44.7924 41.9928C44.7619 41.9245 44.7182 41.8633 44.6639 41.8129C44.6096 41.7624 44.5459 41.7238 44.4766 41.6994C44.4073 41.6749 44.334 41.6651 44.2609 41.6706L44.2953 41.6555ZM47.0205 43.6723C46.9123 43.6723 46.8066 43.7052 46.7167 43.767C46.6268 43.8287 46.5568 43.9164 46.5156 44.019C46.4744 44.1215 46.4639 44.2343 46.4854 44.343C46.5069 44.4517 46.5594 44.5514 46.6362 44.6295C46.7131 44.7075 46.8108 44.7604 46.9171 44.7815C47.0233 44.8025 47.1332 44.7907 47.2329 44.7475C47.3326 44.7044 47.4176 44.6319 47.477 44.5392C47.5364 44.4465 47.5676 44.3378 47.5666 44.2269C47.5647 44.1516 47.5481 44.0775 47.5177 44.009C47.4872 43.9404 47.4436 43.8789 47.3894 43.828C47.3352 43.7772 47.2715 43.7381 47.2022 43.7131C47.1329 43.688 47.0594 43.6776 46.9861 43.6824L47.0205 43.6723ZM55.2799 45.921C55.1719 45.921 55.0663 45.9538 54.9765 46.0153C54.8867 46.0768 54.8167 46.1642 54.7754 46.2665C54.7341 46.3688 54.7233 46.4813 54.7443 46.5899C54.7654 46.6984 54.8174 46.7981 54.8938 46.8764C54.9701 46.9547 55.0674 47.008 55.1733 47.0296C55.2793 47.0512 55.389 47.0401 55.4888 46.9977C55.5886 46.9554 55.6739 46.8836 55.7339 46.7916C55.7939 46.6996 55.8259 46.5914 55.8259 46.4807C55.8247 46.405 55.8085 46.3303 55.7784 46.2612C55.7482 46.192 55.7047 46.1299 55.6504 46.0785C55.5962 46.0272 55.5323 45.9876 55.4627 45.9623C55.3931 45.9369 55.3191 45.9263 55.2454 45.9311L55.2799 45.921ZM47.1435 48.0588C47.0355 48.0588 46.93 48.0916 46.8402 48.1531C46.7504 48.2146 46.6804 48.302 46.6391 48.4043C46.5977 48.5066 46.5869 48.6191 46.608 48.7277C46.6291 48.8362 46.6811 48.936 46.7574 49.0142C46.8338 49.0925 46.9311 49.1458 47.037 49.1674C47.1429 49.189 47.2527 49.1779 47.3525 49.1355C47.4523 49.0932 47.5375 49.0214 47.5975 48.9294C47.6575 48.8374 47.6896 48.7292 47.6896 48.6185C47.6884 48.5428 47.6722 48.4681 47.6421 48.399C47.6119 48.3299 47.5684 48.2677 47.5141 48.2163C47.4598 48.165 47.396 48.1254 47.3263 48.1001C47.2567 48.0747 47.1828 48.0641 47.1091 48.0689L47.1435 48.0588ZM55.3635 37.0067C55.2555 37.0067 55.1499 37.0396 55.0601 37.1011C54.9703 37.1626 54.9003 37.25 54.859 37.3522C54.8177 37.4545 54.8069 37.567 54.8279 37.6756C54.849 37.7842 54.901 37.8839 54.9774 37.9621C55.0537 38.0404 55.151 38.0937 55.257 38.1153C55.3629 38.1369 55.4727 38.1258 55.5724 38.0835C55.6722 38.0411 55.7575 37.9694 55.8175 37.8773C55.8775 37.7853 55.9095 37.6771 55.9095 37.5664C55.9083 37.4907 55.8922 37.416 55.862 37.3469C55.8319 37.2778 55.7883 37.2157 55.7341 37.1643C55.6798 37.1129 55.6159 37.0733 55.5463 37.048C55.4767 37.0227 55.4028 37.012 55.3291 37.0168L55.3635 37.0067ZM55.3635 41.3933C55.2555 41.3933 55.1499 41.4261 55.0601 41.4876C54.9703 41.5491 54.9003 41.6365 54.859 41.7388C54.8177 41.841 54.8069 41.9536 54.8279 42.0621C54.849 42.1707 54.901 42.2704 54.9774 42.3487C55.0537 42.427 55.151 42.4803 55.257 42.5019C55.3629 42.5235 55.4727 42.5124 55.5724 42.47C55.6722 42.4276 55.7575 42.3559 55.8175 42.2639C55.8775 42.1718 55.9095 42.0637 55.9095 41.953C55.9083 41.8773 55.8922 41.8026 55.862 41.7334C55.8319 41.6643 55.7883 41.6022 55.7341 41.5508C55.6798 41.4994 55.6159 41.4599 55.5463 41.4345C55.4767 41.4092 55.4028 41.3986 55.3291 41.4034L55.3635 41.3933ZM52.6825 34.6874C52.5745 34.6874 52.469 34.7203 52.3792 34.7818C52.2894 34.8433 52.2194 34.9307 52.1781 35.0329C52.1367 35.1352 52.1259 35.2477 52.147 35.3563C52.1681 35.4648 52.2201 35.5646 52.2964 35.6428C52.3728 35.7211 52.4701 35.7744 52.576 35.796C52.6819 35.8176 52.7917 35.8065 52.8915 35.7642C52.9913 35.7218 53.0765 35.6501 53.1365 35.558C53.1965 35.466 53.2286 35.3578 53.2286 35.2471C53.2274 35.1714 53.2112 35.0967 53.1811 35.0276C53.1509 34.9585 53.1074 34.8963 53.0531 34.8449C52.9988 34.7936 52.935 34.754 52.8653 34.7287C52.7957 34.7033 52.7218 34.6927 52.6481 34.6975L52.6825 34.6874ZM55.634 31.8992C55.526 31.8992 55.4205 31.932 55.3307 31.9935C55.2409 32.055 55.1709 32.1424 55.1296 32.2447C55.0882 32.347 55.0774 32.4595 55.0985 32.568C55.1196 32.6766 55.1716 32.7763 55.2479 32.8546C55.3243 32.9329 55.4216 32.9862 55.5275 33.0078C55.6334 33.0294 55.7432 33.0183 55.843 32.9759C55.9428 32.9336 56.0281 32.8618 56.0881 32.7698C56.1481 32.6778 56.1801 32.5696 56.1801 32.4589C56.1796 32.3829 56.1639 32.3079 56.134 32.2384C56.1041 32.169 56.0606 32.1066 56.0061 32.055C55.9517 32.0035 55.8876 31.964 55.8176 31.9389C55.7477 31.9138 55.6735 31.9038 55.5996 31.9093L55.634 31.8992Z" fill="white"/>
</svg>
