<svg width="125" height="100" viewBox="0 0 125 100" fill="none" xmlns="http://www.w3.org/2000/svg">
<rect width="125" height="100" fill="white"/>
<path d="M22.7113 32.1252L18.5 88.0137H25.3842L22.7113 32.1252Z" fill="#00308E"/>
<path d="M74.1018 87.6883L24.6694 87.9526L22.2607 32.1455L71.6776 31.8608L74.1018 87.6883Z" fill="#407BFF"/>
<path opacity="0.6" d="M74.1018 87.6883L24.6694 87.9526L22.2607 32.1455L71.6776 31.8608L74.1018 87.6883Z" fill="white"/>
<path d="M71.6775 31.8609L22.2606 32.1456L21.7944 21.6919L71.2268 21.4275L71.6775 31.8609Z" fill="#00308E"/>
<path d="M29.1916 18.1937C29.1681 17.7332 29.0125 17.3013 28.7561 16.9845C28.4996 16.6677 28.1612 16.4894 27.8085 16.4853C27.6378 16.4819 27.4685 16.525 27.3113 16.612C27.1541 16.699 27.0124 16.828 26.8954 16.9907C26.7785 17.1533 26.6887 17.3461 26.6318 17.5568C26.575 17.7674 26.5523 17.9913 26.5653 18.214C26.5653 18.8242 26.8295 24.4984 26.8606 25.1086C26.8839 25.571 27.0389 26.0052 27.295 26.3253C27.5511 26.6454 27.8896 26.8281 28.2436 26.8373C28.4136 26.8377 28.5819 26.7925 28.738 26.7045C28.8942 26.6164 29.0348 26.4874 29.1514 26.3254C29.2679 26.1634 29.3578 25.9718 29.4155 25.7625C29.4732 25.5532 29.4975 25.3306 29.4868 25.1086C29.4713 24.6205 29.2227 18.6818 29.1916 18.1937Z" fill="#407BFF"/>
<path d="M38.702 18.1532C38.6823 17.6891 38.5284 17.2522 38.2715 16.9311C38.0147 16.6101 37.6741 16.429 37.319 16.4245C37.1476 16.4239 36.9779 16.4696 36.8207 16.5589C36.6634 16.6482 36.522 16.7791 36.4052 16.9434C36.2885 17.1076 36.1989 17.3017 36.1423 17.5134C36.0856 17.7251 36.0629 17.9499 36.0758 18.1736C36.0758 18.7837 36.3399 24.458 36.371 25.0681C36.3983 25.5304 36.5571 25.9625 36.8161 26.2788C37.0751 26.5952 37.4154 26.7728 37.7696 26.7765C37.9396 26.7769 38.1079 26.7317 38.264 26.6437C38.4202 26.5556 38.5608 26.4266 38.6774 26.2646C38.7939 26.1026 38.8838 25.911 38.9415 25.7017C38.9992 25.4924 39.0234 25.2698 39.0128 25.0478C38.9817 24.5597 38.7331 18.6413 38.702 18.1532Z" fill="#407BFF"/>
<path d="M48.2276 18.092C48.2004 17.6297 48.0415 17.1977 47.7826 16.8813C47.5236 16.565 47.1833 16.3874 46.829 16.3836C46.6584 16.3802 46.489 16.4233 46.3318 16.5103C46.1745 16.5973 46.0329 16.7263 45.916 16.889C45.799 17.0516 45.7092 17.2445 45.6523 17.4551C45.5955 17.6658 45.5728 17.8896 45.5858 18.1123C45.5858 18.7225 45.8656 24.3968 45.8811 25.0069C45.9046 25.4728 46.0618 25.9099 46.3212 26.2305C46.5805 26.5511 46.9229 26.7315 47.2797 26.7356C47.4504 26.7333 47.619 26.6855 47.7752 26.5952C47.9314 26.5049 48.0719 26.374 48.1882 26.2104C48.3045 26.0468 48.3941 25.8539 48.4516 25.6435C48.5092 25.4331 48.5334 25.2096 48.5229 24.9866C48.4918 24.4984 48.2431 18.5801 48.2276 18.092Z" fill="#407BFF"/>
<path d="M57.7383 18.0519C57.7148 17.586 57.5576 17.1489 57.2982 16.8283C57.0388 16.5077 56.6965 16.3273 56.3397 16.3232C56.1704 16.3256 56.0031 16.3728 55.848 16.4618C55.6929 16.5509 55.5532 16.68 55.4371 16.8414C55.321 17.0028 55.231 17.1932 55.1725 17.4012C55.114 17.6092 55.0881 17.8305 55.0965 18.0519C55.0965 18.662 55.3762 24.3566 55.4073 24.9668C55.4308 25.4273 55.5864 25.8592 55.8428 26.1759C56.0993 26.4927 56.4377 26.671 56.7904 26.6751C56.961 26.6786 57.1304 26.6355 57.2876 26.5485C57.4448 26.4615 57.5864 26.3325 57.7034 26.1698C57.8204 26.0072 57.9102 25.8143 57.967 25.6037C58.0239 25.393 58.0465 25.1692 58.0335 24.9464C58.018 24.4583 57.7538 18.54 57.7383 18.0519Z" fill="#407BFF"/>
<path d="M67.2487 17.9904C67.2252 17.5299 67.0696 17.098 66.8132 16.7812C66.5567 16.4644 66.2183 16.2861 65.8656 16.282C65.695 16.2785 65.5256 16.3217 65.3684 16.4087C65.2112 16.4957 65.0696 16.6247 64.9526 16.7873C64.8356 16.95 64.7458 17.1428 64.689 17.3535C64.6321 17.5641 64.6095 17.788 64.6225 18.0107C64.6225 18.6209 64.8866 24.2951 64.9177 24.9053C64.9338 25.3692 65.0871 25.8068 65.3452 26.1256C65.6032 26.4444 65.9459 26.6194 66.3008 26.6136C66.4714 26.6171 66.6408 26.574 66.798 26.487C66.9552 26.4 67.0968 26.271 67.2138 26.1083C67.3308 25.9456 67.4206 25.7528 67.4774 25.5422C67.5343 25.3315 67.5569 25.1077 67.5439 24.8849C67.4818 24.3968 67.2642 18.4785 67.2487 17.9904Z" fill="#407BFF"/>
<g opacity="0.7">
<path d="M29.1916 18.1938C29.1681 17.7333 29.0125 17.3014 28.7561 16.9846C28.4996 16.6678 28.1612 16.4895 27.8085 16.4854C27.6378 16.4819 27.4685 16.5251 27.3113 16.6121C27.1541 16.6991 27.0124 16.8281 26.8954 16.9907C26.7785 17.1534 26.6887 17.3462 26.6318 17.5569C26.575 17.7675 26.5523 17.9914 26.5653 18.2141C26.5653 18.8243 26.8295 24.4985 26.8606 25.1087C26.8839 25.5711 27.0389 26.0053 27.295 26.3254C27.5511 26.6455 27.8896 26.8282 28.2436 26.8374C28.4136 26.8378 28.5819 26.7926 28.738 26.7046C28.8942 26.6165 29.0348 26.4875 29.1514 26.3255C29.2679 26.1634 29.3578 25.9719 29.4155 25.7626C29.4732 25.5533 29.4975 25.3307 29.4868 25.1087C29.4713 24.6205 29.2227 18.6819 29.1916 18.1938Z" fill="white"/>
<path d="M38.7015 18.1531C38.6818 17.6889 38.5279 17.252 38.2711 16.931C38.0142 16.6099 37.6736 16.4288 37.3185 16.4244C37.1471 16.4237 36.9774 16.4695 36.8202 16.5588C36.6629 16.6481 36.5215 16.779 36.4047 16.9432C36.288 17.1075 36.1985 17.3015 36.1418 17.5132C36.0851 17.7249 36.0624 17.9497 36.0753 18.1734C36.0753 18.7836 36.3395 24.4578 36.3705 25.068C36.3978 25.5302 36.5566 25.9623 36.8156 26.2787C37.0746 26.595 37.4149 26.7726 37.7691 26.7763C37.9392 26.7768 38.1074 26.7316 38.2635 26.6435C38.4197 26.5555 38.5603 26.4264 38.6769 26.2644C38.7934 26.1024 38.8833 25.9108 38.941 25.7015C38.9987 25.4922 39.0229 25.2697 39.0123 25.0476C38.9812 24.5595 38.7326 18.6412 38.7015 18.1531Z" fill="white"/>
<path d="M48.2276 18.0922C48.2004 17.6299 48.0415 17.1978 47.7826 16.8815C47.5236 16.5651 47.1833 16.3875 46.829 16.3838C46.6584 16.3803 46.489 16.4234 46.3318 16.5105C46.1745 16.5975 46.0329 16.7264 45.916 16.8891C45.799 17.0518 45.7092 17.2446 45.6523 17.4553C45.5955 17.6659 45.5728 17.8897 45.5858 18.1125C45.5858 18.7226 45.8656 24.3969 45.8811 25.0071C45.9046 25.473 46.0618 25.91 46.3212 26.2306C46.5805 26.5512 46.9229 26.7316 47.2797 26.7358C47.4504 26.7334 47.619 26.6857 47.7752 26.5954C47.9314 26.5051 48.0719 26.3741 48.1882 26.2105C48.3045 26.0469 48.3941 25.854 48.4516 25.6436C48.5092 25.4332 48.5334 25.2097 48.5229 24.9867C48.4918 24.4986 48.2431 18.5803 48.2276 18.0922Z" fill="white"/>
<path d="M57.7383 18.0519C57.7148 17.586 57.5576 17.149 57.2982 16.8284C57.0388 16.5078 56.6965 16.3273 56.3397 16.3232C56.1704 16.3257 56.0031 16.3728 55.848 16.4619C55.6929 16.5509 55.5532 16.68 55.4371 16.8414C55.321 17.0028 55.231 17.1932 55.1725 17.4012C55.114 17.6092 55.0881 17.8305 55.0965 18.0519C55.0965 18.662 55.3762 24.3567 55.4073 24.9668C55.4308 25.4273 55.5864 25.8592 55.8428 26.176C56.0993 26.4928 56.4377 26.6711 56.7904 26.6752C56.961 26.6786 57.1304 26.6355 57.2876 26.5485C57.4448 26.4615 57.5864 26.3325 57.7034 26.1699C57.8204 26.0072 57.9102 25.8143 57.967 25.6037C58.0239 25.393 58.0465 25.1692 58.0335 24.9464C58.018 24.4583 57.7538 18.54 57.7383 18.0519Z" fill="white"/>
<path d="M67.2487 17.9903C67.2252 17.5298 67.0696 17.0979 66.8132 16.7811C66.5567 16.4644 66.2183 16.2861 65.8656 16.2819C65.695 16.2785 65.5256 16.3216 65.3684 16.4086C65.2112 16.4956 65.0696 16.6246 64.9526 16.7873C64.8356 16.95 64.7458 17.1428 64.689 17.3534C64.6321 17.5641 64.6095 17.7879 64.6225 18.0107C64.6225 18.6208 64.8866 24.2951 64.9177 24.9052C64.9338 25.3692 65.0871 25.8068 65.3452 26.1256C65.6032 26.4444 65.9459 26.6194 66.3008 26.6136C66.4714 26.6171 66.6408 26.5739 66.798 26.4869C66.9552 26.3999 67.0968 26.2709 67.2138 26.1083C67.3308 25.9456 67.4206 25.7528 67.4774 25.5421C67.5343 25.3315 67.5569 25.1076 67.5439 24.8849C67.4818 24.3968 67.2642 18.4784 67.2487 17.9903Z" fill="white"/>
</g>
<path d="M75.4849 86.1222L26.0525 86.3866L22.2607 32.1455L71.6776 31.8608L75.4849 86.1222Z" fill="#407BFF"/>
<path opacity="0.8" d="M75.4849 86.1222L26.0525 86.3866L22.2607 32.1455L71.6776 31.8608L75.4849 86.1222Z" fill="white"/>
<path d="M61.2188 45.2634L36.7434 45.3855L36.0752 35.847L60.5505 35.7046L61.2188 45.2634Z" fill="#407BFF"/>
<path opacity="0.6" d="M61.2188 45.2634L36.7434 45.3855L36.0752 35.847L60.5505 35.7046L61.2188 45.2634Z" fill="white"/>
<path d="M33.4958 57.7509L26.9535 57.7916L26.3474 49.2293L32.8897 49.1887L33.4958 57.7509Z" fill="white"/>
<path d="M42.7578 57.6901L36.2311 57.7307L35.625 49.1888L42.1673 49.1481L42.7578 57.6901Z" fill="white"/>
<path d="M34.2886 69.2825L27.7618 69.3232L27.1558 60.7609L33.698 60.7203L34.2886 69.2825Z" fill="#407BFF"/>
<path d="M35.0964 80.8141L28.5697 80.8547L27.9636 72.2925L34.5059 72.2721L35.0964 80.8141Z" fill="#407BFF"/>
<path d="M43.5659 69.2418L37.0392 69.2621L36.4331 60.7202L42.9599 60.6795L43.5659 69.2418Z" fill="#407BFF"/>
<path opacity="0.2" d="M43.5659 69.2418L37.0392 69.2621L36.4331 60.7202L42.9599 60.6795L43.5659 69.2418Z" fill="white"/>
<path d="M52.843 69.1809L46.3007 69.2215L45.7102 60.6593L52.237 60.6186L52.843 69.1809Z" fill="#407BFF"/>
<path opacity="0.2" d="M52.843 69.1809L46.3007 69.2215L45.7102 60.6593L52.237 60.6186L52.843 69.1809Z" fill="white"/>
<path d="M62.1047 69.1401L55.578 69.1605L54.9719 60.6186L61.5142 60.5779L62.1047 69.1401Z" fill="#407BFF"/>
<path opacity="0.2" d="M62.1047 69.1401L55.578 69.1605L54.9719 60.6186L61.5142 60.5779L62.1047 69.1401Z" fill="white"/>
<path d="M71.3821 69.0791L64.8398 69.1198L64.2493 60.5576L70.776 60.5373L71.3821 69.0791Z" fill="#407BFF"/>
<path opacity="0.2" d="M71.3821 69.0791L64.8398 69.1198L64.2493 60.5576L70.776 60.5373L71.3821 69.0791Z" fill="white"/>
<path d="M44.374 80.7736L37.8317 80.8143L37.2412 72.252L43.7835 72.2113L44.374 80.7736Z" fill="#407BFF"/>
<path opacity="0.2" d="M44.374 80.7736L37.8317 80.8143L37.2412 72.252L43.7835 72.2113L44.374 80.7736Z" fill="white"/>
<path d="M53.6355 80.7124L47.1087 80.7531L46.5027 72.1909L53.045 72.1706L53.6355 80.7124Z" fill="#407BFF"/>
<path opacity="0.2" d="M53.6355 80.7124L47.1087 80.7531L46.5027 72.1909L53.045 72.1706L53.6355 80.7124Z" fill="white"/>
<path d="M62.9126 80.6718L56.3858 80.7125L55.7798 72.1502L62.3221 72.1096L62.9126 80.6718Z" fill="#407BFF"/>
<path opacity="0.2" d="M62.9126 80.6718L56.3858 80.7125L55.7798 72.1502L62.3221 72.1096L62.9126 80.6718Z" fill="white"/>
<path d="M52.0352 57.6493L45.4929 57.69L44.9023 49.1278L51.4291 49.0871L52.0352 57.6493Z" fill="#407BFF"/>
<path opacity="0.2" d="M52.0352 57.6493L45.4929 57.69L44.9023 49.1278L51.4291 49.0871L52.0352 57.6493Z" fill="white"/>
<path d="M61.2966 57.5882L54.7699 57.6289L54.1638 49.0869L60.7061 49.0463L61.2966 57.5882Z" fill="#407BFF"/>
<path opacity="0.2" d="M61.2966 57.5882L54.7699 57.6289L54.1638 49.0869L60.7061 49.0463L61.2966 57.5882Z" fill="white"/>
<path d="M70.5742 57.5476L64.0319 57.5883L63.4414 49.026L69.9682 48.9853L70.5742 57.5476Z" fill="#407BFF"/>
<path opacity="0.2" d="M70.5742 57.5476L64.0319 57.5883L63.4414 49.026L69.9682 48.9853L70.5742 57.5476Z" fill="white"/>
<path d="M72.1904 80.6107L65.6481 80.6513L65.0576 72.1094L71.5844 72.0687L72.1904 80.6107Z" fill="white"/>
<path d="M89.7661 81.7341C89.8416 81.7346 89.9145 81.7071 89.9704 81.6569C98.9847 73.6459 95.1626 65.1304 91.1302 56.1403C90.7636 55.3214 90.3971 54.4965 90.0425 53.6717C85.944 44.2424 91.2444 35.8693 91.3285 35.7625C91.3715 35.6964 91.3861 35.6162 91.3692 35.5394C91.3523 35.4626 91.3052 35.3956 91.2384 35.3531C91.2058 35.3304 91.1687 35.3147 91.1296 35.3069C91.0906 35.2992 91.0503 35.2995 91.0113 35.3078C90.9723 35.3162 90.9355 35.3324 90.9033 35.3555C90.871 35.3786 90.8439 35.4081 90.8237 35.4421C90.7636 35.5252 85.2589 44.1771 89.4896 53.909C89.8502 54.7339 90.2168 55.5587 90.5834 56.3776C94.5196 65.1957 98.2395 73.5213 89.5677 81.2475C89.5396 81.2751 89.5172 81.3079 89.502 81.3441C89.4867 81.3802 89.4789 81.419 89.4789 81.4582C89.4789 81.4973 89.4867 81.5361 89.502 81.5723C89.5172 81.6084 89.5396 81.6412 89.5677 81.6688C89.6235 81.7138 89.6941 81.737 89.7661 81.7341Z" fill="#CCE5F7"/>
<path d="M86.2082 18.1085C84.2972 24.0426 86.2082 32.6233 91.5026 34.2849C96.797 35.9464 103.396 30.042 105.325 24.1257C107.254 18.2094 104.507 12.0794 99.2369 10.4179C93.9665 8.75633 88.1192 12.1981 86.2082 18.1085Z" fill="#407BFF"/>
<path d="M86.2082 18.1085C84.2972 24.0426 86.2082 32.6233 91.5026 34.2849C96.797 35.9464 103.396 30.042 105.325 24.1257C107.254 18.2094 104.507 12.0794 99.2369 10.4179C93.9665 8.75633 88.1192 12.1981 86.2082 18.1085Z" fill="#407BFF"/>
<path d="M92.1575 34.457L92.6743 36.3322L89.3931 35.3174L90.9195 34.0653L92.1575 34.457Z" fill="#407BFF"/>
<path d="M91.9769 88.3988C91.9014 88.3994 91.8284 88.3718 91.7725 88.3217C82.7582 80.3106 86.5803 71.7952 90.6127 62.805C90.9793 61.9861 91.3459 61.1613 91.7004 60.3364C95.7989 50.9071 90.4985 42.5341 90.4144 42.4273C90.3715 42.3611 90.3569 42.2809 90.3737 42.2041C90.3906 42.1274 90.4377 42.0604 90.5045 42.0178C90.5372 41.9952 90.5742 41.9795 90.6133 41.9717C90.6524 41.9639 90.6927 41.9642 90.7316 41.9725C90.7706 41.9809 90.8074 41.9972 90.8397 42.0203C90.8719 42.0434 90.899 42.0729 90.9192 42.1068C90.9793 42.1899 96.484 50.8418 92.2533 60.5738C91.8927 61.3986 91.5262 62.2235 91.1596 63.0424C87.2233 71.8605 83.5034 80.186 92.1752 87.9122C92.2033 87.9398 92.2257 87.9726 92.241 88.0088C92.2562 88.0449 92.2641 88.0837 92.2641 88.1229C92.2641 88.1621 92.2562 88.2008 92.241 88.237C92.2257 88.2732 92.2033 88.306 92.1752 88.3336C92.1194 88.3785 92.0488 88.4018 91.9769 88.3988Z" fill="#CCE5F7"/>
<path d="M95.5347 24.7733C97.4458 30.7074 95.5347 39.2881 90.2403 40.9497C84.9459 42.6112 78.3474 36.7068 76.4183 30.7905C74.4893 24.8742 77.2356 18.7442 82.506 17.0827C87.7764 15.4211 93.6237 18.8629 95.5347 24.7733Z" fill="#CCE5F7"/>
<path d="M95.5347 24.7733C97.4458 30.7074 95.5347 39.2881 90.2403 40.9497C84.9459 42.6112 78.3474 36.7068 76.4183 30.7905C74.4893 24.8742 77.2356 18.7442 82.506 17.0827C87.7764 15.4211 93.6237 18.8629 95.5347 24.7733Z" fill="#CCE5F7"/>
<path d="M89.5854 41.1218L89.0686 42.997L92.3498 41.9822L90.8234 40.7301L89.5854 41.1218Z" fill="#CCE5F7"/>
<path d="M81.5931 81.7341C81.5176 81.7346 81.4446 81.7071 81.3888 81.6569C72.3744 73.6459 76.1965 65.1304 80.2289 56.1403C80.5955 55.3214 80.9621 54.4965 81.3166 53.6717C85.4152 44.2424 80.1147 35.8693 80.0306 35.7625C79.9877 35.6964 79.9731 35.6162 79.99 35.5394C80.0069 35.4626 80.0539 35.3956 80.1207 35.3531C80.1534 35.3304 80.1904 35.3147 80.2295 35.3069C80.2686 35.2992 80.3089 35.2995 80.3478 35.3078C80.3868 35.3162 80.4236 35.3324 80.4559 35.3555C80.4881 35.3786 80.5152 35.4081 80.5354 35.4421C80.5955 35.5252 86.1002 44.1771 81.8695 53.909C81.5089 54.7339 81.1424 55.5587 80.7758 56.3776C76.8395 65.1957 73.1196 73.5213 81.7914 81.2475C81.8196 81.2751 81.8419 81.3079 81.8572 81.3441C81.8724 81.3802 81.8803 81.419 81.8803 81.4582C81.8803 81.4973 81.8724 81.5361 81.8572 81.5723C81.8419 81.6084 81.8196 81.6412 81.7914 81.6688C81.7356 81.7138 81.665 81.737 81.5931 81.7341Z" fill="#CCE5F7"/>
<path d="M85.1509 18.1085C87.062 24.0426 85.1509 32.6233 79.8565 34.2849C74.5621 35.9464 67.9636 30.042 66.0346 24.1257C64.1055 18.2094 66.8519 12.0794 72.1222 10.4179C77.3926 8.75633 83.2399 12.1981 85.1509 18.1085Z" fill="#00308E"/>
<path d="M85.1509 18.1085C87.062 24.0426 85.1509 32.6233 79.8565 34.2849C74.5621 35.9464 67.9636 30.042 66.0346 24.1257C64.1055 18.2094 66.8519 12.0794 72.1222 10.4179C77.3926 8.75633 83.2399 12.1981 85.1509 18.1085Z" fill="#1919D3"/>
<path d="M79.2016 34.457L78.6848 36.3322L81.966 35.3174L80.4396 34.0653L79.2016 34.457Z" fill="#00308E"/>
<path d="M59.2612 68.5882H59.0952V70.7907H59.2612V68.5882Z" fill="#407BFF"/>
<path d="M59.2612 71.4461H59.0952V72.3572H59.2612V71.4461Z" fill="#407BFF"/>
<path d="M59.676 60.5388H86.8148V89.2935H60.4527C60.2472 89.2935 60.05 89.2129 59.9047 89.0694C59.7593 88.9259 59.6777 88.7312 59.6777 88.5283V60.5388H59.676Z" fill="#407BFF"/>
<path opacity="0.2" d="M86.8148 60.5388H59.676V62.5773H75.2908L75.8086 89.2935L76.1704 62.5773H86.8148V60.5388Z" fill="#1919D3"/>
<path d="M59.4421 56.1682H86.8149V61.9955H59.4421C59.3395 61.9955 59.2412 61.9553 59.1687 61.8837C59.0962 61.8121 59.0554 61.715 59.0554 61.6137V56.5517C59.0552 56.5014 59.065 56.4516 59.0844 56.4051C59.1037 56.3585 59.1322 56.3163 59.1681 56.2806C59.204 56.245 59.2467 56.2167 59.2937 56.1974C59.3408 56.1781 59.3912 56.1682 59.4421 56.1682Z" fill="#407BFF"/>
<path d="M70.1266 89.2935L69.8428 56.1682H75.7442L76.0263 89.2935H70.1266Z" fill="#00308E"/>
<path d="M97.5107 89.2936H86.8215V60.5388H98.2808V88.5283C98.2808 88.7304 98.1998 88.9243 98.0555 89.0677C97.9113 89.2111 97.7154 89.2923 97.5107 89.2936Z" fill="#407BFF"/>
<path opacity="0.2" d="M97.5107 89.2936H86.8215V60.5388H98.2808V88.5283C98.2808 88.7304 98.1998 88.9243 98.0555 89.0677C97.9113 89.2111 97.7154 89.2923 97.5107 89.2936Z" fill="#1919D3"/>
<path opacity="0.2" d="M86.8147 60.5388H98.279V62.5773H91.8813L91.0117 89.2935L91.1063 62.5773H86.8147V60.5388Z" fill="#1919D3"/>
<path d="M98.5147 61.9956H86.8148V56.1683H98.5147C98.5655 56.1683 98.6157 56.1781 98.6627 56.1973C98.7096 56.2165 98.7522 56.2446 98.7881 56.2801C98.824 56.3156 98.8525 56.3577 98.8719 56.404C98.8914 56.4503 98.9014 56.5 98.9014 56.5501V61.6121C98.9016 61.6624 98.8917 61.7122 98.8724 61.7588C98.8531 61.8053 98.8246 61.8475 98.7887 61.8832C98.7528 61.9188 98.7101 61.9471 98.663 61.9664C98.616 61.9857 98.5656 61.9956 98.5147 61.9956Z" fill="#407BFF"/>
<path opacity="0.2" d="M98.5147 61.9956H86.8148V56.1683H98.5147C98.5655 56.1683 98.6157 56.1781 98.6627 56.1973C98.7096 56.2165 98.7522 56.2446 98.7881 56.2801C98.824 56.3156 98.8525 56.3577 98.8719 56.404C98.8914 56.4503 98.9014 56.5 98.9014 56.5501V61.6121C98.9016 61.6624 98.8917 61.7122 98.8724 61.7588C98.8531 61.8053 98.8246 61.8475 98.7887 61.8832C98.7528 61.9188 98.7101 61.9471 98.663 61.9664C98.616 61.9857 98.5656 61.9956 98.5147 61.9956Z" fill="#1919D3"/>
<path d="M91.012 89.2935L91.5065 56.1682H95.1891L94.6945 89.2935H91.012Z" fill="#00308E"/>
<path opacity="0.2" d="M91.012 89.2935L91.5065 56.1682H95.1891L94.6945 89.2935H91.012Z" fill="#1919D3"/>
<path d="M92.9338 45.1724V45.1642H88.1061C87.8283 45.1871 87.5571 45.2604 87.3062 45.3805C82.4105 47.406 80.0307 52.7138 78.9785 56.1617H83.9174C83.9174 56.1617 95.6057 44.8447 92.9338 45.1724Z" fill="#00308E"/>
<path opacity="0.5" d="M83.9175 56.1683C83.9175 51.6896 87.3495 47.4125 92.2452 45.3871C97.1409 43.3616 83.9175 56.1683 83.9175 56.1683Z" fill="#1919D3"/>
<path d="M94.195 48.009H90.6121C90.3834 48.0284 90.1593 48.0838 89.9482 48.1729C85.7263 49.6773 82.4188 53.6184 80.6348 56.1781H84.3024C84.3024 56.1781 96.2745 47.7632 94.195 48.009Z" fill="#00308E"/>
<path opacity="0.5" d="M84.3088 56.1683C86.0364 51.7437 89.4004 49.6674 93.6223 48.1631C97.8442 46.6587 84.3088 56.1683 84.3088 56.1683Z" fill="#1919D3"/>
<path d="M70.0683 43.7746V43.7647H65.2291C65.1404 43.7631 65.0528 43.7848 64.9755 43.8277C64.8982 43.8707 64.8339 43.9332 64.7893 44.0089C63.2791 46.2917 69.768 52.2779 74.4861 56.1666H79.4249C79.4249 56.1666 72.1893 43.4026 70.0683 43.7746Z" fill="#00308E"/>
<path opacity="0.5" d="M79.4246 56.1683C74.7131 52.2796 68.2176 46.2933 69.7278 44.0105C71.238 41.7278 79.4246 56.1683 79.4246 56.1683Z" fill="#1919D3"/>
<path d="M75.1134 46.975H71.5221C71.4497 46.9767 71.3785 46.9937 71.3133 47.0248C71.248 47.0559 71.1902 47.1003 71.1438 47.1552C69.5439 48.8513 73.1087 53.2972 75.7905 56.183H79.4532C79.4532 56.183 76.7647 46.6898 75.1134 46.975Z" fill="#00308E"/>
<path opacity="0.5" d="M79.4532 56.1682C76.7714 53.2808 73.205 48.8366 74.8065 47.1405C76.4079 45.4444 79.4532 56.1682 79.4532 56.1682Z" fill="#1919D3"/>
</svg>
